<?xml version="1.0" standalone="no"?>
<!DOCTYPE svg PUBLIC "-//W3C//DTD SVG 1.1//EN" "http://www.w3.org/Graphics/SVG/1.1/DTD/svg11.dtd" >
<svg xmlns="http://www.w3.org/2000/svg">
<metadata>
Created by FontForge 20090914 at Sat Aug 18 10:03:43 2012
 By www-data
Copyright (c) 2006 by Department of Intellectual Property (DIP), Ministry of Commerce and Software Industry Promotion Agency (Public Organization) (SIPA). All rights reserved.
Created by : Suppakit CHALERMLARP.
</metadata>
<defs>
<font id="THSarabunPSK-Italic" horiz-adv-x="0" >
  <font-face 
    font-family="TH SarabunPSK"
    font-weight="400"
    font-style="italic"
    font-stretch="normal"
    units-per-em="1000"
    panose-1="2 11 5 0 4 2 0 2 0 3"
    ascent="800"
    descent="-200"
    x-height="340"
    cap-height="476"
    bbox="-374.428 -435 947.001 836"
    underline-thickness="30"
    underline-position="-20"
    unicode-range="U+0020-U+FB02"
  />
<missing-glyph horiz-adv-x="692" 
d="M642 0h-592v809h592v-809zM612 28v753h-532v-753h532z" />
    <glyph glyph-name="Agrave" unicode="A&#x300;" horiz-adv-x="400" 
d="M357 0h-43l-23 153h-205l-86 -153h-43l282 483h40zM286 186l-36 254l-145 -254h181zM312 526h-31l-40 81l41 10z" />
    <glyph glyph-name="Aacute" unicode="A&#x301;" horiz-adv-x="400" 
d="M357 0h-43l-23 153h-205l-86 -153h-43l282 483h40zM286 186l-36 254l-145 -254h181zM254 526h-31l70 91l37 -10z" />
    <glyph glyph-name="Atilde" unicode="A&#x303;" horiz-adv-x="400" 
d="M357 0h-43l-23 153h-205l-86 -153h-43l282 483h40zM286 186l-36 254l-145 -254h181zM338 590h28c-10 -41.333 -30.333 -62 -61 -62c-8.66699 0 -21.167 4.66699 -37.5 14s-27.5 14 -33.5 14c-11.333 0 -20 -10.667 -26 -32h-26c10.667 42.667 30 64 58 64
c8.66699 0 20.667 -5 36 -15s28 -15 38 -15c11.333 0 19.333 10.667 24 32z" />
    <glyph glyph-name="Egrave" unicode="E&#x300;" horiz-adv-x="351" 
d="M270 0h-259l101 476h259l-7 -33h-220l-38 -175h196l-7 -33h-196l-42 -202h220zM288 526h-31l-40 81l41 10z" />
    <glyph glyph-name="Eacute" unicode="E&#x301;" horiz-adv-x="351" 
d="M270 0h-259l101 476h259l-7 -33h-220l-38 -175h196l-7 -33h-196l-42 -202h220zM230 526h-31l70 91l37 -10z" />
    <glyph glyph-name="Igrave" unicode="I&#x300;" horiz-adv-x="147" 
d="M50 0h-39l101 476h39zM186 526h-31l-40 81l41 10z" />
    <glyph glyph-name="Iacute" unicode="I&#x301;" horiz-adv-x="147" 
d="M50 0h-39l101 476h39zM128 526h-31l70 91l37 -10z" />
    <glyph glyph-name="Ograve" unicode="O&#x300;" horiz-adv-x="486" 
d="M471 237c-15.333 -71.333 -48.499 -130.333 -99.499 -177s-109.167 -70 -174.5 -70s-113.5 23.333 -144.5 70s-38.833 105.667 -23.5 177s48.333 130.333 99 177s108.667 70 174 70s113.666 -23.333 144.999 -70s39.333 -105.667 24 -177zM432.001 237
c12.667 58.667 6.33398 108.834 -18.999 150.501s-64.666 62.5 -117.999 62.5s-101.333 -20.833 -144 -62.5s-70.334 -91.834 -83.001 -150.501s-6.33398 -108.834 18.999 -150.501s64.666 -62.5 117.999 -62.5s101.333 20.833 144 62.5s70.334 91.834 83.001 150.501z
M355.001 526h-31l-40 81l41 10z" />
    <glyph glyph-name="Oacute" unicode="O&#x301;" horiz-adv-x="486" 
d="M471 237c-15.333 -71.333 -48.499 -130.333 -99.499 -177s-109.167 -70 -174.5 -70s-113.5 23.333 -144.5 70s-38.833 105.667 -23.5 177s48.333 130.333 99 177s108.667 70 174 70s113.666 -23.333 144.999 -70s39.333 -105.667 24 -177zM432.001 237
c12.667 58.667 6.33398 108.834 -18.999 150.501s-64.666 62.5 -117.999 62.5s-101.333 -20.833 -144 -62.5s-70.334 -91.834 -83.001 -150.501s-6.33398 -108.834 18.999 -150.501s64.666 -62.5 117.999 -62.5s101.333 20.833 144 62.5s70.334 91.834 83.001 150.501z
M297.001 526h-31l70 91l37 -10z" />
    <glyph glyph-name="Otilde" unicode="O&#x303;" horiz-adv-x="486" 
d="M471 237c-15.333 -71.333 -48.499 -130.333 -99.499 -177s-109.167 -70 -174.5 -70s-113.5 23.333 -144.5 70s-38.833 105.667 -23.5 177s48.333 130.333 99 177s108.667 70 174 70s113.666 -23.333 144.999 -70s39.333 -105.667 24 -177zM432.001 237
c12.667 58.667 6.33398 108.834 -18.999 150.501s-64.666 62.5 -117.999 62.5s-101.333 -20.833 -144 -62.5s-70.334 -91.834 -83.001 -150.501s-6.33398 -108.834 18.999 -150.501s64.666 -62.5 117.999 -62.5s101.333 20.833 144 62.5s70.334 91.834 83.001 150.501z
M381.001 590h28c-10 -41.333 -30.333 -62 -61 -62c-8.66699 0 -21.167 4.66699 -37.5 14s-27.5 14 -33.5 14c-11.333 0 -20 -10.667 -26 -32h-26c10.667 42.667 30 64 58 64c8.66699 0 20.667 -5 36 -15s28 -15 38 -15c11.333 0 19.333 10.667 24 32z" />
    <glyph glyph-name="Ugrave" unicode="U&#x300;" horiz-adv-x="466" 
d="M411 201c-29.333 -140 -103.667 -210 -223 -210s-164.333 70 -135 210l59 275h39l-59 -274c-13.333 -62.667 -10 -108 10 -136s51 -42 93 -42c42.667 0 79.667 14 111 42s53.333 73.333 66 136l59 274h39zM327.999 526h-31l-40 81l41 10z" />
    <glyph glyph-name="Uacute" unicode="U&#x301;" horiz-adv-x="466" 
d="M411 201c-29.333 -140 -103.667 -210 -223 -210s-164.333 70 -135 210l59 275h39l-59 -274c-13.333 -62.667 -10 -108 10 -136s51 -42 93 -42c42.667 0 79.667 14 111 42s53.333 73.333 66 136l59 274h39zM296.999 526h-31l70 91l37 -10z" />
    <glyph glyph-name="Yacute" unicode="Y&#x301;" horiz-adv-x="366" 
d="M424 476l-221 -266l-44 -210h-38l44 209l-107 267h45l88 -233l188 233h45zM252 526h-31l70 91l37 -10z" />
    <glyph glyph-name="agrave" unicode="a&#x300;" horiz-adv-x="398" 
d="M320 69c-6 -26.667 -4.99902 -49.333 3.00098 -68l-39 -8c-7.33301 24 -9 47 -5 69c-36.667 -48 -83.667 -72 -141 -72c-38.667 0 -68.667 11.167 -90 33.5s-32 52.166 -32 89.499c0 58.667 19 111.334 57 158.001c40 50 88.667 75 146 75
c59.333 0.666992 109.666 -16 150.999 -50zM296.001 143.001l31 136.001c-34 23.333 -68.333 35 -103 35c-48.667 -0.666992 -90 -22.334 -124 -65.001c-30.667 -40 -46 -83.667 -46 -131c0 -29.333 8.5 -52.833 25.5 -70.5s40.833 -26.5 71.5 -26.5
c34 0 64.833 12.167 92.5 36.5s45.167 52.833 52.5 85.5zM281.001 390.002h-31l-40 81l41 10z" />
    <glyph glyph-name="aacute" unicode="a&#x301;" horiz-adv-x="398" 
d="M320 69c-6 -26.667 -4.99902 -49.333 3.00098 -68l-39 -8c-7.33301 24 -9 47 -5 69c-36.667 -48 -83.667 -72 -141 -72c-38.667 0 -68.667 11.167 -90 33.5s-32 52.166 -32 89.499c0 58.667 19 111.334 57 158.001c40 50 88.667 75 146 75
c59.333 0.666992 109.666 -16 150.999 -50zM296.001 143.001l31 136.001c-34 23.333 -68.333 35 -103 35c-48.667 -0.666992 -90 -22.334 -124 -65.001c-30.667 -40 -46 -83.667 -46 -131c0 -29.333 8.5 -52.833 25.5 -70.5s40.833 -26.5 71.5 -26.5
c34 0 64.833 12.167 92.5 36.5s45.167 52.833 52.5 85.5zM262.001 390.002h-31l70 91l37 -10z" />
    <glyph glyph-name="atilde" unicode="a&#x303;" horiz-adv-x="398" 
d="M320 69c-6 -26.667 -4.99902 -49.333 3.00098 -68l-39 -8c-7.33301 24 -9 47 -5 69c-36.667 -48 -83.667 -72 -141 -72c-38.667 0 -68.667 11.167 -90 33.5s-32 52.166 -32 89.499c0 58.667 19 111.334 57 158.001c40 50 88.667 75 146 75
c59.333 0.666992 109.666 -16 150.999 -50zM296.001 143.001l31 136.001c-34 23.333 -68.333 35 -103 35c-48.667 -0.666992 -90 -22.334 -124 -65.001c-30.667 -40 -46 -83.667 -46 -131c0 -29.333 8.5 -52.833 25.5 -70.5s40.833 -26.5 71.5 -26.5
c34 0 64.833 12.167 92.5 36.5s45.167 52.833 52.5 85.5zM334.001 454.002h28c-10 -41.333 -30.333 -62 -61 -62c-8.66699 0 -21.167 4.66699 -37.5 14s-27.5 14 -33.5 14c-11.333 0 -20 -10.667 -26 -32h-26c10.667 42.667 30 64 58 64c8.66699 0 20.667 -5 36 -15
s28 -15 38 -15c11.333 0 19.333 10.667 24 32z" />
    <glyph glyph-name="egrave" unicode="e&#x300;" horiz-adv-x="374" 
d="M344 253c0 -79.333 -67.667 -118.998 -203 -118.998c-24.667 0 -53.667 1.33301 -87 4c-0.666992 -5.33301 -1 -10.333 -1 -15c0 -65.333 38 -98 114 -98c38.667 0 80 7.66699 124 23l-4 -33c-42 -16 -85.667 -24 -131 -24c-43.333 0 -78 11.667 -104 35
s-39 54.666 -39 93.999c0 63.333 22.333 117.666 67 162.999c42.667 42.667 91.667 64 147 64c78 0 117 -31.333 117 -94zM309 254.002c0 41.333 -27.333 62 -82 62c-34 0 -67.667 -13.667 -101 -41c-35.333 -29.333 -58.666 -64.333 -69.999 -105
c27.333 -2 51.666 -3 72.999 -3c120 0 180 29 180 87zM270 390.002h-31l-40 81l41 10z" />
    <glyph glyph-name="eacute" unicode="e&#x301;" horiz-adv-x="374" 
d="M344 253c0 -79.333 -67.667 -118.998 -203 -118.998c-24.667 0 -53.667 1.33301 -87 4c-0.666992 -5.33301 -1 -10.333 -1 -15c0 -65.333 38 -98 114 -98c38.667 0 80 7.66699 124 23l-4 -33c-42 -16 -85.667 -24 -131 -24c-43.333 0 -78 11.667 -104 35
s-39 54.666 -39 93.999c0 63.333 22.333 117.666 67 162.999c42.667 42.667 91.667 64 147 64c78 0 117 -31.333 117 -94zM309 254.002c0 41.333 -27.333 62 -82 62c-34 0 -67.667 -13.667 -101 -41c-35.333 -29.333 -58.666 -64.333 -69.999 -105
c27.333 -2 51.666 -3 72.999 -3c120 0 180 29 180 87zM212 390.002h-31l70 91l37 -10z" />
    <glyph glyph-name="igrave" unicode="i&#x300;" horiz-adv-x="143" 
d="M47 0h-38l72 340h38zM155 390h-31l-40 81l41 10z" />
    <glyph glyph-name="iacute" unicode="i&#x301;" horiz-adv-x="143" 
d="M47 0h-38l72 340h38zM97 390h-31l70 91l37 -10z" />
    <glyph glyph-name="ograve" unicode="o&#x300;" horiz-adv-x="398" 
d="M362 169c-10.667 -50 -35.334 -92.333 -74.001 -127s-83.667 -52 -135 -52s-89 17.333 -113 52s-30.667 77 -20 127s35.334 92.167 74.001 126.5s83.667 51.5 135 51.5s89 -17.167 113 -51.5s30.667 -76.5 20 -126.5zM324 169
c9.33301 41.333 4.33398 75.833 -14.999 103.5s-48.333 41.5 -87 41.5s-73.334 -13.833 -104.001 -41.5s-50.667 -62.167 -60 -103.5c-8.66699 -41.333 -3.5 -76 15.5 -104s47.833 -42 86.5 -42s73.5 14 104.5 42s50.833 62.667 59.5 104zM283.001 390h-31l-40 81l41 10z
" />
    <glyph glyph-name="oacute" unicode="o&#x301;" horiz-adv-x="398" 
d="M362 169c-10.667 -50 -35.334 -92.333 -74.001 -127s-83.667 -52 -135 -52s-89 17.333 -113 52s-30.667 77 -20 127s35.334 92.167 74.001 126.5s83.667 51.5 135 51.5s89 -17.167 113 -51.5s30.667 -76.5 20 -126.5zM324 169
c9.33301 41.333 4.33398 75.833 -14.999 103.5s-48.333 41.5 -87 41.5s-73.334 -13.833 -104.001 -41.5s-50.667 -62.167 -60 -103.5c-8.66699 -41.333 -3.5 -76 15.5 -104s47.833 -42 86.5 -42s73.5 14 104.5 42s50.833 62.667 59.5 104zM224.001 390h-31l70 91l37 -10z
" />
    <glyph glyph-name="otilde" unicode="o&#x303;" horiz-adv-x="398" 
d="M362 169c-10.667 -50 -35.334 -92.333 -74.001 -127s-83.667 -52 -135 -52s-89 17.333 -113 52s-30.667 77 -20 127s35.334 92.167 74.001 126.5s83.667 51.5 135 51.5s89 -17.167 113 -51.5s30.667 -76.5 20 -126.5zM324 169
c9.33301 41.333 4.33398 75.833 -14.999 103.5s-48.333 41.5 -87 41.5s-73.334 -13.833 -104.001 -41.5s-50.667 -62.167 -60 -103.5c-8.66699 -41.333 -3.5 -76 15.5 -104s47.833 -42 86.5 -42s73.5 14 104.5 42s50.833 62.667 59.5 104zM308.001 454h28
c-10 -41.333 -30.333 -62 -61 -62c-8.66699 0 -21.167 4.66699 -37.5 14s-27.5 14 -33.5 14c-11.333 0 -20 -10.667 -26 -32h-26c10.667 42.667 30 64 58 64c8.66699 0 20.667 -5 36 -15s28 -15 38 -15c11.333 0 19.333 10.667 24 32z" />
    <glyph glyph-name="ugrave" unicode="u&#x300;" horiz-adv-x="390" 
d="M312 1l-38.999 -8c-3.33301 22.667 -4 44.667 -2 66c-38.667 -45.333 -86 -68 -142 -68c-81.333 0 -111 52.667 -89 158l26 121c5.33301 28 4.33301 50.667 -3 68l39 8c7.33301 -22.667 9 -45 5 -67l-26 -123c-18.667 -87.333 2.66602 -131 63.999 -131
c28.667 0 56.667 9.33301 84 28c30 21.333 48.333 48.333 55 81l44 206h39l-55 -257c-5.33301 -24.667 -5.33301 -52 0 -82zM261.001 390h-31l-40 81l41 10z" />
    <glyph glyph-name="uacute" unicode="u&#x301;" horiz-adv-x="390" 
d="M312 1l-38.999 -8c-3.33301 22.667 -4 44.667 -2 66c-38.667 -45.333 -86 -68 -142 -68c-81.333 0 -111 52.667 -89 158l26 121c5.33301 28 4.33301 50.667 -3 68l39 8c7.33301 -22.667 9 -45 5 -67l-26 -123c-18.667 -87.333 2.66602 -131 63.999 -131
c28.667 0 56.667 9.33301 84 28c30 21.333 48.333 48.333 55 81l44 206h39l-55 -257c-5.33301 -24.667 -5.33301 -52 0 -82zM220.001 390h-31l70 91l37 -10z" />
    <glyph glyph-name="yacute" unicode="y&#x301;" horiz-adv-x="337" 
d="M141 0c-58.667 -88.667 -122 -140.667 -190 -156l-2 31c58.667 12.667 111 58 157 136c0 2 -0.333008 6 -1 12l-73 317h42l66 -288l180 288h43zM194 390h-31l70 91l37 -10z" />
    <glyph glyph-name="Itilde" unicode="I&#x303;" horiz-adv-x="147" 
d="M50 0h-39l101 476h39zM212 590h28c-10 -41.333 -30.333 -62 -61 -62c-8.66699 0 -21.167 4.66699 -37.5 14s-27.5 14 -33.5 14c-11.333 0 -20 -10.667 -26 -32h-26c10.667 42.667 30 64 58 64c8.66699 0 20.667 -5 36 -15s28 -15 38 -15c11.333 0 19.333 10.667 24 32z
" />
    <glyph glyph-name="itilde" unicode="i&#x303;" horiz-adv-x="143" 
d="M47 0h-38l72 340h38zM181 454h28c-10 -41.333 -30.333 -62 -61 -62c-8.66699 0 -21.167 4.66699 -37.5 14s-27.5 14 -33.5 14c-11.333 0 -20 -10.667 -26 -32h-26c10.667 42.667 30 64 58 64c8.66699 0 20.667 -5 36 -15s28 -15 38 -15c11.333 0 19.333 10.667 24 32z
" />
    <glyph glyph-name="Utilde" unicode="U&#x303;" horiz-adv-x="476" 
d="M416 201c-29.333 -140 -103.667 -210 -223 -210s-164.333 70 -135 210l59 275h39l-59 -274c-13.333 -62.667 -10 -108 10 -136s51 -42 93 -42c42.667 0 79.667 14 111 42s53.333 73.333 66 136l59 274h39zM375.999 590h28c-10 -41.333 -30.333 -62 -61 -62
c-8.66699 0 -21.167 4.66699 -37.5 14s-27.5 14 -33.5 14c-11.333 0 -20 -10.667 -26 -32h-26c10.667 42.667 30 64 58 64c8.66699 0 20.667 -5 36 -15s28 -15 38 -15c11.333 0 19.333 10.667 24 32z" />
    <glyph glyph-name="utilde" unicode="u&#x303;" horiz-adv-x="405" 
d="M312 1l-38.999 -8c-3.33301 22.667 -4 44.667 -2 66c-38.667 -45.333 -86 -68 -142 -68c-81.333 0 -111 52.667 -89 158l26 121c5.33301 28 4.33301 50.667 -3 68l39 8c7.33301 -22.667 9 -45 5 -67l-26 -123c-18.667 -87.333 2.66602 -131 63.999 -131
c28.667 0 56.667 9.33301 84 28c30 21.333 48.333 48.333 55 81l44 206h39l-55 -257c-5.33301 -24.667 -5.33301 -52 0 -82zM311.001 454h28c-10 -41.333 -30.333 -62 -61 -62c-8.66699 0 -21.167 4.66699 -37.5 14s-27.5 14 -33.5 14c-11.333 0 -20 -10.667 -26 -32h-26
c10.667 42.667 30 64 58 64c8.66699 0 20.667 -5 36 -15s28 -15 38 -15c11.333 0 19.333 10.667 24 32z" />
    <glyph glyph-name="uni1EA0" unicode="A&#x323;" horiz-adv-x="400" 
d="M357 0h-43l-23 153h-205l-86 -153h-43l282 483h40zM286 186l-36 254l-145 -254h181zM169 -77c-1.33301 -8 -5.33203 -14.833 -11.999 -20.5s-14.334 -8.5 -23.001 -8.5c-8 0 -14.167 2.83301 -18.5 8.5s-5.83301 12.5 -4.5 20.5c1.33301 6.66699 5.5 13 12.5 19
s14.5 9 22.5 9c8.66699 0 15 -3 19 -9s5.33301 -12.333 4 -19z" />
    <glyph glyph-name="uni1EA1" unicode="a&#x323;" horiz-adv-x="398" 
d="M320 69c-6 -26.667 -4.99902 -49.333 3.00098 -68l-39 -8c-7.33301 24 -9 47 -5 69c-36.667 -48 -83.667 -72 -141 -72c-38.667 0 -68.667 11.167 -90 33.5s-32 52.166 -32 89.499c0 58.667 19 111.334 57 158.001c40 50 88.667 75 146 75
c59.333 0.666992 109.666 -16 150.999 -50zM296.001 143.001l31 136.001c-34 23.333 -68.333 35 -103 35c-48.667 -0.666992 -90 -22.334 -124 -65.001c-30.667 -40 -46 -83.667 -46 -131c0 -29.333 8.5 -52.833 25.5 -70.5s40.833 -26.5 71.5 -26.5
c34 0 64.833 12.167 92.5 36.5s45.167 52.833 52.5 85.5zM169.001 -76.998c-1.33301 -8 -5.33203 -14.833 -11.999 -20.5s-14.334 -8.5 -23.001 -8.5c-8 0 -14.167 2.83301 -18.5 8.5s-5.83301 12.5 -4.5 20.5c1.33301 6.66699 5.5 13 12.5 19s14.5 9 22.5 9
c8.66699 0 15 -3 19 -9s5.33301 -12.333 4 -19z" />
    <glyph glyph-name="uni1EA2" unicode="A&#x309;" horiz-adv-x="400" 
d="M357 0h-43l-23 153h-205l-86 -153h-43l282 483h40zM286 186l-36 254l-145 -254h181zM355 607c-4.66699 -20.667 -17.833 -38.332 -39.5 -52.999s-33.5 -26 -35.5 -34h-31c4.66699 17.333 17.5 32.666 38.5 45.999s33.167 27 36.5 41c2 9.33301 0.333008 16.5 -5 21.5
s-13.333 7.5 -24 7.5c-17.333 0 -34.333 -9.33301 -51 -28l-16 15c20.667 26.667 46.667 40 78 40c18 0 31.5 -4.83301 40.5 -14.5s11.833 -23.5 8.5 -41.5z" />
    <glyph glyph-name="uni1EA3" unicode="a&#x309;" horiz-adv-x="398" 
d="M320 69c-6 -26.667 -4.99902 -49.333 3.00098 -68l-39 -8c-7.33301 24 -9 47 -5 69c-36.667 -48 -83.667 -72 -141 -72c-38.667 0 -68.667 11.167 -90 33.5s-32 52.166 -32 89.499c0 58.667 19 111.334 57 158.001c40 50 88.667 75 146 75
c59.333 0.666992 109.666 -16 150.999 -50zM296.001 143.001l31 136.001c-34 23.333 -68.333 35 -103 35c-48.667 -0.666992 -90 -22.334 -124 -65.001c-30.667 -40 -46 -83.667 -46 -131c0 -29.333 8.5 -52.833 25.5 -70.5s40.833 -26.5 71.5 -26.5
c34 0 64.833 12.167 92.5 36.5s45.167 52.833 52.5 85.5zM351.701 461.913c-4.2002 -18.6006 -16.0508 -34.5029 -35.5518 -47.7031s-30.1514 -23.4004 -31.9512 -30.6006h-27.9004c4.2002 15.6006 15.75 29.4014 34.6504 41.4023
c18.9014 12 29.8516 24.2998 32.8516 36.9004c1.7998 8.40039 0.299805 14.8506 -4.5 19.3506s-12 6.75 -21.6006 6.75c-15.6006 0 -30.9014 -8.40039 -45.9014 -25.2002l-14.4004 13.5c18.6006 24.001 42.001 36.001 70.2021 36.001
c16.2002 0 28.3506 -4.34961 36.4512 -13.0498s10.6504 -21.1504 7.65039 -37.3506z" />
    <glyph glyph-name="uni1EA4" unicode="&#xc2;&#x301;" horiz-adv-x="400" 
d="M357 0h-43l-23 153h-205l-86 -153h-43l282 483h40zM286 186l-36 254l-145 -254h181zM299 606l53 -78h-37l-35 52l-57 -52h-37l85 78h28zM388.599 580.01h-27.9004l63.001 81.9023l33.3008 -9.00098z" />
    <glyph glyph-name="uni1EA5" unicode="&#xe2;&#x301;" horiz-adv-x="398" 
d="M320 69c-6 -26.667 -4.99902 -49.333 3.00098 -68l-39 -8c-7.33301 24 -9 47 -5 69c-36.667 -48 -83.667 -72 -141 -72c-38.667 0 -68.667 11.167 -90 33.5s-32 52.166 -32 89.499c0 58.667 19 111.334 57 158.001c40 50 88.667 75 146 75
c59.333 0.666992 109.666 -16 150.999 -50zM296.001 143.001l31 136.001c-34 23.333 -68.333 35 -103 35c-48.667 -0.666992 -90 -22.334 -124 -65.001c-30.667 -40 -46 -83.667 -46 -131c0 -29.333 8.5 -52.833 25.5 -70.5s40.833 -26.5 71.5 -26.5
c34 0 64.833 12.167 92.5 36.5s45.167 52.833 52.5 85.5zM282.001 470.002l53 -78h-37l-35 52l-57 -52h-37l85 78h28zM360.6 446.012h-27.9004l63.001 81.9023l33.3008 -9.00098z" />
    <glyph glyph-name="uni1EA6" unicode="&#xc2;&#x300;" horiz-adv-x="400" 
d="M357 0h-43l-23 153h-205l-86 -153h-43l282 483h40zM286 186l-36 254l-145 -254h181zM299 606l53 -78h-37l-35 52l-57 -52h-37l85 78h28zM409.801 580.01h-27.9014l-36.001 72.9014l36.9014 9.00098z" />
    <glyph glyph-name="uni1EA7" unicode="&#xe2;&#x300;" horiz-adv-x="398" 
d="M320 69c-6 -26.667 -4.99902 -49.333 3.00098 -68l-39 -8c-7.33301 24 -9 47 -5 69c-36.667 -48 -83.667 -72 -141 -72c-38.667 0 -68.667 11.167 -90 33.5s-32 52.166 -32 89.499c0 58.667 19 111.334 57 158.001c40 50 88.667 75 146 75
c59.333 0.666992 109.666 -16 150.999 -50zM296.001 143.001l31 136.001c-34 23.333 -68.333 35 -103 35c-48.667 -0.666992 -90 -22.334 -124 -65.001c-30.667 -40 -46 -83.667 -46 -131c0 -29.333 8.5 -52.833 25.5 -70.5s40.833 -26.5 71.5 -26.5
c34 0 64.833 12.167 92.5 36.5s45.167 52.833 52.5 85.5zM283.001 470.002l53 -78h-37l-35 52l-57 -52h-37l85 78h28zM387.802 446.012h-27.9014l-36.001 72.9014l36.9014 9.00098z" />
    <glyph glyph-name="uni1EA8" unicode="&#xc2;&#x309;" horiz-adv-x="400" 
d="M357 0h-43l-23 153h-205l-86 -153h-43l282 483h40zM286 186l-36 254l-145 -254h181zM299 606l53 -78h-37l-35 52l-57 -52h-37l85 78h28zM457.7 655.911c-4.2002 -18.6006 -16.0508 -34.5029 -35.5518 -47.7031s-30.1514 -23.4004 -31.9512 -30.6006h-27.9004
c4.2002 15.6006 15.75 29.4014 34.6504 41.4023c18.9014 12 29.8516 24.2998 32.8516 36.9004c1.7998 8.40039 0.299805 14.8506 -4.5 19.3506s-12 6.75 -21.6006 6.75c-15.6006 0 -30.9014 -8.40039 -45.9014 -25.2002l-14.4004 13.5
c18.6006 24.001 42.001 36.001 70.2021 36.001c16.2002 0 28.3506 -4.34961 36.4512 -13.0498s10.6504 -21.1504 7.65039 -37.3506z" />
    <glyph glyph-name="uni1EA9" unicode="&#xe2;&#x309;" horiz-adv-x="398" 
d="M320 69c-6 -26.667 -4.99902 -49.333 3.00098 -68l-39 -8c-7.33301 24 -9 47 -5 69c-36.667 -48 -83.667 -72 -141 -72c-38.667 0 -68.667 11.167 -90 33.5s-32 52.166 -32 89.499c0 58.667 19 111.334 57 158.001c40 50 88.667 75 146 75
c59.333 0.666992 109.666 -16 150.999 -50zM296.001 143.001l31 136.001c-34 23.333 -68.333 35 -103 35c-48.667 -0.666992 -90 -22.334 -124 -65.001c-30.667 -40 -46 -83.667 -46 -131c0 -29.333 8.5 -52.833 25.5 -70.5s40.833 -26.5 71.5 -26.5
c34 0 64.833 12.167 92.5 36.5s45.167 52.833 52.5 85.5zM284.001 470.002l53 -78h-37l-35 52l-57 -52h-37l85 78h28zM441.701 533.913c-4.2002 -18.6006 -16.0508 -34.5029 -35.5518 -47.7031s-30.1514 -23.4004 -31.9512 -30.6006h-27.9004
c4.2002 15.6006 15.75 29.4014 34.6504 41.4023c18.9014 12 29.8516 24.2998 32.8516 36.9004c1.7998 8.40039 0.299805 14.8506 -4.5 19.3506s-12 6.75 -21.6006 6.75c-15.6006 0 -30.9014 -8.40039 -45.9014 -25.2002l-14.4004 13.5
c18.6006 24.001 42.001 36.001 70.2021 36.001c16.2002 0 28.3506 -4.34961 36.4512 -13.0498s10.6504 -21.1504 7.65039 -37.3506z" />
    <glyph glyph-name="uni1EAA" unicode="&#xc2;&#x303;" horiz-adv-x="400" 
d="M357 0h-43l-23 153h-205l-86 -153h-43l282 483h40zM286 186l-36 254l-145 -254h181zM299 606l53 -78h-37l-35 52l-57 -52h-37l85 78h28zM362 696h28c-10 -41.333 -30.333 -62 -61 -62c-8.66699 0 -21.167 4.66699 -37.5 14s-27.5 14 -33.5 14
c-11.333 0 -20 -10.667 -26 -32h-26c10.667 42.667 30 64 58 64c8.66699 0 20.667 -5 36 -15s28 -15 38 -15c11.333 0 19.333 10.667 24 32z" />
    <glyph glyph-name="uni1EAB" unicode="&#xe2;&#x303;" horiz-adv-x="398" 
d="M320 69c-6 -26.667 -4.99902 -49.333 3.00098 -68l-39 -8c-7.33301 24 -9 47 -5 69c-36.667 -48 -83.667 -72 -141 -72c-38.667 0 -68.667 11.167 -90 33.5s-32 52.166 -32 89.499c0 58.667 19 111.334 57 158.001c40 50 88.667 75 146 75
c59.333 0.666992 109.666 -16 150.999 -50zM296.001 143.001l31 136.001c-34 23.333 -68.333 35 -103 35c-48.667 -0.666992 -90 -22.334 -124 -65.001c-30.667 -40 -46 -83.667 -46 -131c0 -29.333 8.5 -52.833 25.5 -70.5s40.833 -26.5 71.5 -26.5
c34 0 64.833 12.167 92.5 36.5s45.167 52.833 52.5 85.5zM284.001 470.002l53 -78h-37l-35 52l-57 -52h-37l85 78h28zM348.001 559.002h28c-10 -41.333 -30.333 -62 -61 -62c-8.66699 0 -21.167 4.66699 -37.5 14s-27.5 14 -33.5 14c-11.333 0 -20 -10.667 -26 -32h-26
c10.667 42.667 30 64 58 64c8.66699 0 20.667 -5 36 -15s28 -15 38 -15c11.333 0 19.333 10.667 24 32z" />
    <glyph glyph-name="uni1EAC" unicode="&#xc2;&#x323;" horiz-adv-x="400" 
d="M357 0h-43l-23 153h-205l-86 -153h-43l282 483h40zM286 186l-36 254l-145 -254h181zM169 -77c-1.33301 -8 -5.33203 -14.833 -11.999 -20.5s-14.334 -8.5 -23.001 -8.5c-8 0 -14.167 2.83301 -18.5 8.5s-5.83301 12.5 -4.5 20.5c1.33301 6.66699 5.5 13 12.5 19
s14.5 9 22.5 9c8.66699 0 15 -3 19 -9s5.33301 -12.333 4 -19zM299.001 606l53 -78h-37l-35 52l-57 -52h-37l85 78h28z" />
    <glyph glyph-name="uni1EAD" unicode="&#xe2;&#x323;" horiz-adv-x="398" 
d="M320 69c-6 -26.667 -4.99902 -49.333 3.00098 -68l-39 -8c-7.33301 24 -9 47 -5 69c-36.667 -48 -83.667 -72 -141 -72c-38.667 0 -68.667 11.167 -90 33.5s-32 52.166 -32 89.499c0 58.667 19 111.334 57 158.001c40 50 88.667 75 146 75
c59.333 0.666992 109.666 -16 150.999 -50zM296.001 143.001l31 136.001c-34 23.333 -68.333 35 -103 35c-48.667 -0.666992 -90 -22.334 -124 -65.001c-30.667 -40 -46 -83.667 -46 -131c0 -29.333 8.5 -52.833 25.5 -70.5s40.833 -26.5 71.5 -26.5
c34 0 64.833 12.167 92.5 36.5s45.167 52.833 52.5 85.5zM148.001 -76.998c-1.33301 -8 -5.33203 -14.833 -11.999 -20.5s-14.334 -8.5 -23.001 -8.5c-8 0 -14.167 2.83301 -18.5 8.5s-5.83301 12.5 -4.5 20.5c1.33301 6.66699 5.5 13 12.5 19s14.5 9 22.5 9
c8.66699 0 15 -3 19 -9s5.33301 -12.333 4 -19zM285.002 470.002l53 -78h-37l-35 52l-57 -52h-37l85 78h28z" />
    <glyph glyph-name="uni1EAE" unicode="&#x102;&#x301;" horiz-adv-x="400" 
d="M357 0h-43l-23 153h-205l-86 -153h-43l282 483h40zM286 186l-36 254l-145 -254h181zM371 589c-7.33301 -18 -18.668 -32.667 -34.001 -44c-20.667 -16 -44 -24 -70 -24s-46.333 8 -61 24c-9.33301 11.333 -14 26 -14 44h35c0.666992 -7.33301 3 -13.666 7 -18.999
c8 -12 21.333 -18 40 -18s34.334 6 47.001 18c6 5.33301 11.333 11.666 16 18.999h34zM289.597 598.01h-27.9004l63.001 81.9023l33.3008 -9.00098z" />
    <glyph glyph-name="uni1EAF" unicode="&#x103;&#x301;" horiz-adv-x="398" 
d="M320 69c-6 -26.667 -4.99902 -49.333 3.00098 -68l-39 -8c-7.33301 24 -9 47 -5 69c-36.667 -48 -83.667 -72 -141 -72c-38.667 0 -68.667 11.167 -90 33.5s-32 52.166 -32 89.499c0 58.667 19 111.334 57 158.001c40 50 88.667 75 146 75
c59.333 0.666992 109.666 -16 150.999 -50zM296.001 143.001l31 136.001c-34 23.333 -68.333 35 -103 35c-48.667 -0.666992 -90 -22.334 -124 -65.001c-30.667 -40 -46 -83.667 -46 -131c0 -29.333 8.5 -52.833 25.5 -70.5s40.833 -26.5 71.5 -26.5
c34 0 64.833 12.167 92.5 36.5s45.167 52.833 52.5 85.5zM366.001 453.002c-7.33301 -18 -18.668 -32.667 -34.001 -44c-20.667 -16 -44 -24 -70 -24s-46.333 8 -61 24c-9.33301 11.333 -14 26 -14 44h35c0.666992 -7.33301 3 -13.666 7 -18.999c8 -12 21.333 -18 40 -18
s34.334 6 47.001 18c6 5.33301 11.333 11.666 16 18.999h34zM287.598 465.012h-27.9004l63.001 81.9023l33.3008 -9.00098z" />
    <glyph glyph-name="uni1EB0" unicode="&#x102;&#x300;" horiz-adv-x="400" 
d="M357 0h-43l-23 153h-205l-86 -153h-43l282 483h40zM286 186l-36 254l-145 -254h181zM371 589c-7.33301 -18 -18.668 -32.667 -34.001 -44c-20.667 -16 -44 -24 -70 -24s-46.333 8 -61 24c-9.33301 11.333 -14 26 -14 44h35c0.666992 -7.33301 3 -13.666 7 -18.999
c8 -12 21.333 -18 40 -18s34.334 6 47.001 18c6 5.33301 11.333 11.666 16 18.999h34zM304.799 600.01h-27.9014l-36.001 72.9014l36.9014 9.00098z" />
    <glyph glyph-name="uni1EB1" unicode="&#x103;&#x300;" horiz-adv-x="398" 
d="M320 69c-6 -26.667 -4.99902 -49.333 3.00098 -68l-39 -8c-7.33301 24 -9 47 -5 69c-36.667 -48 -83.667 -72 -141 -72c-38.667 0 -68.667 11.167 -90 33.5s-32 52.166 -32 89.499c0 58.667 19 111.334 57 158.001c40 50 88.667 75 146 75
c59.333 0.666992 109.666 -16 150.999 -50zM296.001 143.001l31 136.001c-34 23.333 -68.333 35 -103 35c-48.667 -0.666992 -90 -22.334 -124 -65.001c-30.667 -40 -46 -83.667 -46 -131c0 -29.333 8.5 -52.833 25.5 -70.5s40.833 -26.5 71.5 -26.5
c34 0 64.833 12.167 92.5 36.5s45.167 52.833 52.5 85.5zM375.001 453.002c-7.33301 -18 -18.668 -32.667 -34.001 -44c-20.667 -16 -44 -24 -70 -24s-46.333 8 -61 24c-9.33301 11.333 -14 26 -14 44h35c0.666992 -7.33301 3 -13.666 7 -18.999c8 -12 21.333 -18 40 -18
s34.334 6 47.001 18c6 5.33301 11.333 11.666 16 18.999h34zM308.8 464.012h-27.9014l-36.001 72.9014l36.9014 9.00098z" />
    <glyph glyph-name="uni1EB2" unicode="&#x102;&#x309;" horiz-adv-x="400" 
d="M357 0h-43l-23 153h-205l-86 -153h-43l282 483h40zM286 186l-36 254l-145 -254h181zM371 589c-7.33301 -18 -18.668 -32.667 -34.001 -44c-20.667 -16 -44 -24 -70 -24s-46.333 8 -61 24c-9.33301 11.333 -14 26 -14 44h35c0.666992 -7.33301 3 -13.666 7 -18.999
c8 -12 21.333 -18 40 -18s34.334 6 47.001 18c6 5.33301 11.333 11.666 16 18.999h34zM359.698 678.911c-4.2002 -18.6006 -16.0508 -34.5029 -35.5518 -47.7031s-30.1514 -23.4004 -31.9512 -30.6006h-27.9004c4.2002 15.6006 15.75 29.4014 34.6504 41.4023
c18.9014 12 29.8516 24.2998 32.8516 36.9004c1.7998 8.40039 0.299805 14.8506 -4.5 19.3506s-12 6.75 -21.6006 6.75c-15.6006 0 -30.9014 -8.40039 -45.9014 -25.2002l-14.4004 13.5c18.6006 24.001 42.001 36.001 70.2021 36.001
c16.2002 0 28.3506 -4.34961 36.4512 -13.0498s10.6504 -21.1504 7.65039 -37.3506z" />
    <glyph glyph-name="uni1EB3" unicode="&#x103;&#x309;" horiz-adv-x="398" 
d="M320 69c-6 -26.667 -4.99902 -49.333 3.00098 -68l-39 -8c-7.33301 24 -9 47 -5 69c-36.667 -48 -83.667 -72 -141 -72c-38.667 0 -68.667 11.167 -90 33.5s-32 52.166 -32 89.499c0 58.667 19 111.334 57 158.001c40 50 88.667 75 146 75
c59.333 0.666992 109.666 -16 150.999 -50zM296.001 143.001l31 136.001c-34 23.333 -68.333 35 -103 35c-48.667 -0.666992 -90 -22.334 -124 -65.001c-30.667 -40 -46 -83.667 -46 -131c0 -29.333 8.5 -52.833 25.5 -70.5s40.833 -26.5 71.5 -26.5
c34 0 64.833 12.167 92.5 36.5s45.167 52.833 52.5 85.5zM372.001 453.002c-7.33301 -18 -18.668 -32.667 -34.001 -44c-20.667 -16 -44 -24 -70 -24s-46.333 8 -61 24c-9.33301 11.333 -14 26 -14 44h35c0.666992 -7.33301 3 -13.666 7 -18.999c8 -12 21.333 -18 40 -18
s34.334 6 47.001 18c6 5.33301 11.333 11.666 16 18.999h34zM361.699 545.913c-4.2002 -18.6006 -16.0508 -34.5029 -35.5518 -47.7031s-30.1514 -23.4004 -31.9512 -30.6006h-27.9004c4.2002 15.6006 15.75 29.4014 34.6504 41.4023
c18.9014 12 29.8516 24.2998 32.8516 36.9004c1.7998 8.40039 0.299805 14.8506 -4.5 19.3506s-12 6.75 -21.6006 6.75c-15.6006 0 -30.9014 -8.40039 -45.9014 -25.2002l-14.4004 13.5c18.6006 24.001 42.001 36.001 70.2021 36.001
c16.2002 0 28.3506 -4.34961 36.4512 -13.0498s10.6504 -21.1504 7.65039 -37.3506z" />
    <glyph glyph-name="uni1EB4" unicode="&#x102;&#x303;" horiz-adv-x="400" 
d="M357 0h-43l-23 153h-205l-86 -153h-43l282 483h40zM286 186l-36 254l-145 -254h181zM371 589c-7.33301 -18 -18.668 -32.667 -34.001 -44c-20.667 -16 -44 -24 -70 -24s-46.333 8 -61 24c-9.33301 11.333 -14 26 -14 44h35c0.666992 -7.33301 3 -13.666 7 -18.999
c8 -12 21.333 -18 40 -18s34.334 6 47.001 18c6 5.33301 11.333 11.666 16 18.999h34zM357.998 686h28c-10 -41.333 -30.333 -62 -61 -62c-8.66699 0 -21.167 4.66699 -37.5 14s-27.5 14 -33.5 14c-11.333 0 -20 -10.667 -26 -32h-26c10.667 42.667 30 64 58 64
c8.66699 0 20.667 -5 36 -15s28 -15 38 -15c11.333 0 19.333 10.667 24 32z" />
    <glyph glyph-name="uni1EB5" unicode="&#x103;&#x303;" horiz-adv-x="398" 
d="M320 69c-6 -26.667 -4.99902 -49.333 3.00098 -68l-39 -8c-7.33301 24 -9 47 -5 69c-36.667 -48 -83.667 -72 -141 -72c-38.667 0 -68.667 11.167 -90 33.5s-32 52.166 -32 89.499c0 58.667 19 111.334 57 158.001c40 50 88.667 75 146 75
c59.333 0.666992 109.666 -16 150.999 -50zM296.001 143.001l31 136.001c-34 23.333 -68.333 35 -103 35c-48.667 -0.666992 -90 -22.334 -124 -65.001c-30.667 -40 -46 -83.667 -46 -131c0 -29.333 8.5 -52.833 25.5 -70.5s40.833 -26.5 71.5 -26.5
c34 0 64.833 12.167 92.5 36.5s45.167 52.833 52.5 85.5zM368.001 453.002c-7.33301 -18 -18.668 -32.667 -34.001 -44c-20.667 -16 -44 -24 -70 -24s-46.333 8 -61 24c-9.33301 11.333 -14 26 -14 44h35c0.666992 -7.33301 3 -13.666 7 -18.999c8 -12 21.333 -18 40 -18
s34.334 6 47.001 18c6 5.33301 11.333 11.666 16 18.999h34zM355.999 548.002h28c-10 -41.333 -30.333 -62 -61 -62c-8.66699 0 -21.167 4.66699 -37.5 14s-27.5 14 -33.5 14c-11.333 0 -20 -10.667 -26 -32h-26c10.667 42.667 30 64 58 64c8.66699 0 20.667 -5 36 -15
s28 -15 38 -15c11.333 0 19.333 10.667 24 32z" />
    <glyph glyph-name="uni1EB6" unicode="&#x102;&#x323;" horiz-adv-x="400" 
d="M357 0h-43l-23 153h-205l-86 -153h-43l282 483h40zM286 186l-36 254l-145 -254h181zM169 -77c-1.33301 -8 -5.33203 -14.833 -11.999 -20.5s-14.334 -8.5 -23.001 -8.5c-8 0 -14.167 2.83301 -18.5 8.5s-5.83301 12.5 -4.5 20.5c1.33301 6.66699 5.5 13 12.5 19
s14.5 9 22.5 9c8.66699 0 15 -3 19 -9s5.33301 -12.333 4 -19zM371.001 589c-7.33301 -18 -18.668 -32.667 -34.001 -44c-20.667 -16 -44 -24 -70 -24s-46.333 8 -61 24c-9.33301 11.333 -14 26 -14 44h35c0.666992 -7.33301 3 -13.666 7 -18.999c8 -12 21.333 -18 40 -18
s34.334 6 47.001 18c6 5.33301 11.333 11.666 16 18.999h34z" />
    <glyph glyph-name="uni1EB7" unicode="&#x103;&#x323;" horiz-adv-x="398" 
d="M320 69c-6 -26.667 -4.99902 -49.333 3.00098 -68l-39 -8c-7.33301 24 -9 47 -5 69c-36.667 -48 -83.667 -72 -141 -72c-38.667 0 -68.667 11.167 -90 33.5s-32 52.166 -32 89.499c0 58.667 19 111.334 57 158.001c40 50 88.667 75 146 75
c59.333 0.666992 109.666 -16 150.999 -50zM296.001 143.001l31 136.001c-34 23.333 -68.333 35 -103 35c-48.667 -0.666992 -90 -22.334 -124 -65.001c-30.667 -40 -46 -83.667 -46 -131c0 -29.333 8.5 -52.833 25.5 -70.5s40.833 -26.5 71.5 -26.5
c34 0 64.833 12.167 92.5 36.5s45.167 52.833 52.5 85.5zM149.001 -76.998c-1.33301 -8 -5.33203 -14.833 -11.999 -20.5s-14.334 -8.5 -23.001 -8.5c-8 0 -14.167 2.83301 -18.5 8.5s-5.83301 12.5 -4.5 20.5c1.33301 6.66699 5.5 13 12.5 19s14.5 9 22.5 9
c8.66699 0 15 -3 19 -9s5.33301 -12.333 4 -19zM365.002 453.002c-7.33301 -18 -18.668 -32.667 -34.001 -44c-20.667 -16 -44 -24 -70 -24s-46.333 8 -61 24c-9.33301 11.333 -14 26 -14 44h35c0.666992 -7.33301 3 -13.666 7 -18.999c8 -12 21.333 -18 40 -18
s34.334 6 47.001 18c6 5.33301 11.333 11.666 16 18.999h34z" />
    <glyph glyph-name="uni1EB8" unicode="E&#x323;" horiz-adv-x="351" 
d="M270 0h-259l101 476h259l-7 -33h-220l-38 -175h196l-7 -33h-196l-42 -202h220zM144 -77c-1.33301 -8 -5.33203 -14.833 -11.999 -20.5s-14.334 -8.5 -23.001 -8.5c-8 0 -14.167 2.83301 -18.5 8.5s-5.83301 12.5 -4.5 20.5c1.33301 6.66699 5.5 13 12.5 19s14.5 9 22.5 9
c8.66699 0 15 -3 19 -9s5.33301 -12.333 4 -19z" />
    <glyph glyph-name="uni1EB9" unicode="e&#x323;" horiz-adv-x="374" 
d="M344 253c0 -79.333 -67.667 -118.998 -203 -118.998c-24.667 0 -53.667 1.33301 -87 4c-0.666992 -5.33301 -1 -10.333 -1 -15c0 -65.333 38 -98 114 -98c38.667 0 80 7.66699 124 23l-4 -33c-42 -16 -85.667 -24 -131 -24c-43.333 0 -78 11.667 -104 35
s-39 54.666 -39 93.999c0 63.333 22.333 117.666 67 162.999c42.667 42.667 91.667 64 147 64c78 0 117 -31.333 117 -94zM309 254.002c0 41.333 -27.333 62 -82 62c-34 0 -67.667 -13.667 -101 -41c-35.333 -29.333 -58.666 -64.333 -69.999 -105
c27.333 -2 51.666 -3 72.999 -3c120 0 180 29 180 87zM156 -76.998c-1.33301 -8 -5.33203 -14.833 -11.999 -20.5s-14.334 -8.5 -23.001 -8.5c-8 0 -14.167 2.83301 -18.5 8.5s-5.83301 12.5 -4.5 20.5c1.33301 6.66699 5.5 13 12.5 19s14.5 9 22.5 9c8.66699 0 15 -3 19 -9
s5.33301 -12.333 4 -19z" />
    <glyph glyph-name="uni1EBA" unicode="E&#x309;" horiz-adv-x="351" 
d="M270 0h-259l101 476h259l-7 -33h-220l-38 -175h196l-7 -33h-196l-42 -202h220zM334 607c-4.66699 -20.667 -17.833 -38.332 -39.5 -52.999s-33.5 -26 -35.5 -34h-31c4.66699 17.333 17.5 32.666 38.5 45.999s33.167 27 36.5 41c2 9.33301 0.333008 16.5 -5 21.5
s-13.333 7.5 -24 7.5c-17.333 0 -34.333 -9.33301 -51 -28l-16 15c20.667 26.667 46.667 40 78 40c18 0 31.5 -4.83301 40.5 -14.5s11.833 -23.5 8.5 -41.5z" />
    <glyph glyph-name="uni1EBB" unicode="e&#x309;" horiz-adv-x="374" 
d="M344 253c0 -79.333 -67.667 -118.998 -203 -118.998c-24.667 0 -53.667 1.33301 -87 4c-0.666992 -5.33301 -1 -10.333 -1 -15c0 -65.333 38 -98 114 -98c38.667 0 80 7.66699 124 23l-4 -33c-42 -16 -85.667 -24 -131 -24c-43.333 0 -78 11.667 -104 35
s-39 54.666 -39 93.999c0 63.333 22.333 117.666 67 162.999c42.667 42.667 91.667 64 147 64c78 0 117 -31.333 117 -94zM309 254.002c0 41.333 -27.333 62 -82 62c-34 0 -67.667 -13.667 -101 -41c-35.333 -29.333 -58.666 -64.333 -69.999 -105
c27.333 -2 51.666 -3 72.999 -3c120 0 180 29 180 87zM300.7 461.913c-4.2002 -18.6006 -16.0508 -34.5029 -35.5518 -47.7031s-30.1514 -23.4004 -31.9512 -30.6006h-27.9004c4.2002 15.6006 15.75 29.4014 34.6504 41.4023c18.9014 12 29.8516 24.2998 32.8516 36.9004
c1.7998 8.40039 0.299805 14.8506 -4.5 19.3506s-12 6.75 -21.6006 6.75c-15.6006 0 -30.9014 -8.40039 -45.9014 -25.2002l-14.4004 13.5c18.6006 24.001 42.001 36.001 70.2021 36.001c16.2002 0 28.3506 -4.34961 36.4512 -13.0498s10.6504 -21.1504 7.65039 -37.3506z
" />
    <glyph glyph-name="uni1EBC" unicode="E&#x303;" horiz-adv-x="351" 
d="M270 0h-259l101 476h259l-7 -33h-220l-38 -175h196l-7 -33h-196l-42 -202h220zM314 590h28c-10 -41.333 -30.333 -62 -61 -62c-8.66699 0 -21.167 4.66699 -37.5 14s-27.5 14 -33.5 14c-11.333 0 -20 -10.667 -26 -32h-26c10.667 42.667 30 64 58 64
c8.66699 0 20.667 -5 36 -15s28 -15 38 -15c11.333 0 19.333 10.667 24 32z" />
    <glyph glyph-name="uni1EBD" unicode="e&#x303;" horiz-adv-x="374" 
d="M344 253c0 -79.333 -67.667 -118.998 -203 -118.998c-24.667 0 -53.667 1.33301 -87 4c-0.666992 -5.33301 -1 -10.333 -1 -15c0 -65.333 38 -98 114 -98c38.667 0 80 7.66699 124 23l-4 -33c-42 -16 -85.667 -24 -131 -24c-43.333 0 -78 11.667 -104 35
s-39 54.666 -39 93.999c0 63.333 22.333 117.666 67 162.999c42.667 42.667 91.667 64 147 64c78 0 117 -31.333 117 -94zM309 254.002c0 41.333 -27.333 62 -82 62c-34 0 -67.667 -13.667 -101 -41c-35.333 -29.333 -58.666 -64.333 -69.999 -105
c27.333 -2 51.666 -3 72.999 -3c120 0 180 29 180 87zM297 454.002h28c-10 -41.333 -30.333 -62 -61 -62c-8.66699 0 -21.167 4.66699 -37.5 14s-27.5 14 -33.5 14c-11.333 0 -20 -10.667 -26 -32h-26c10.667 42.667 30 64 58 64c8.66699 0 20.667 -5 36 -15s28 -15 38 -15
c11.333 0 19.333 10.667 24 32z" />
    <glyph glyph-name="uni1EBE" unicode="&#xca;&#x301;" horiz-adv-x="351" 
d="M270 0h-259l101 476h259l-7 -33h-220l-38 -175h196l-7 -33h-196l-42 -202h220zM274 606l53 -78h-37l-35 52l-57 -52h-37l85 78h28zM353.599 580.01h-27.9004l63.001 81.9023l33.3008 -9.00098z" />
    <glyph glyph-name="uni1EBF" unicode="&#xea;&#x301;" horiz-adv-x="374" 
d="M344 253c0 -79.333 -67.667 -118.998 -203 -118.998c-24.667 0 -53.667 1.33301 -87 4c-0.666992 -5.33301 -1 -10.333 -1 -15c0 -65.333 38 -98 114 -98c38.667 0 80 7.66699 124 23l-4 -33c-42 -16 -85.667 -24 -131 -24c-43.333 0 -78 11.667 -104 35
s-39 54.666 -39 93.999c0 63.333 22.333 117.666 67 162.999c42.667 42.667 91.667 64 147 64c78 0 117 -31.333 117 -94zM309 254.002c0 41.333 -27.333 62 -82 62c-34 0 -67.667 -13.667 -101 -41c-35.333 -29.333 -58.666 -64.333 -69.999 -105
c27.333 -2 51.666 -3 72.999 -3c120 0 180 29 180 87zM257 470.002l53 -78h-37l-35 52l-57 -52h-37l85 78h28zM346.599 446.012h-27.9004l63.001 81.9023l33.3008 -9.00098z" />
    <glyph glyph-name="uni1EC0" unicode="&#xca;&#x300;" horiz-adv-x="351" 
d="M270 0h-259l101 476h259l-7 -33h-220l-38 -175h196l-7 -33h-196l-42 -202h220zM274 606l53 -78h-37l-35 52l-57 -52h-37l85 78h28zM376.801 580.01h-27.9014l-36.001 72.9014l36.9014 9.00098z" />
    <glyph glyph-name="uni1EC1" unicode="&#xea;&#x300;" horiz-adv-x="374" 
d="M344 253c0 -79.333 -67.667 -118.998 -203 -118.998c-24.667 0 -53.667 1.33301 -87 4c-0.666992 -5.33301 -1 -10.333 -1 -15c0 -65.333 38 -98 114 -98c38.667 0 80 7.66699 124 23l-4 -33c-42 -16 -85.667 -24 -131 -24c-43.333 0 -78 11.667 -104 35
s-39 54.666 -39 93.999c0 63.333 22.333 117.666 67 162.999c42.667 42.667 91.667 64 147 64c78 0 117 -31.333 117 -94zM309 254.002c0 41.333 -27.333 62 -82 62c-34 0 -67.667 -13.667 -101 -41c-35.333 -29.333 -58.666 -64.333 -69.999 -105
c27.333 -2 51.666 -3 72.999 -3c120 0 180 29 180 87zM257 470.002l53 -78h-37l-35 52l-57 -52h-37l85 78h28zM369 437.002h-31l-40 81l41 10z" />
    <glyph glyph-name="uni1EC2" unicode="&#xca;&#x309;" horiz-adv-x="351" 
d="M270 0h-259l101 476h259l-7 -33h-220l-38 -175h196l-7 -33h-196l-42 -202h220zM274 606l53 -78h-37l-35 52l-57 -52h-37l85 78h28zM438.7 655.911c-4.2002 -18.6006 -16.0508 -34.5029 -35.5518 -47.7031s-30.1514 -23.4004 -31.9512 -30.6006h-27.9004
c4.2002 15.6006 15.75 29.4014 34.6504 41.4023c18.9014 12 29.8516 24.2998 32.8516 36.9004c1.7998 8.40039 0.299805 14.8506 -4.5 19.3506s-12 6.75 -21.6006 6.75c-15.6006 0 -30.9014 -8.40039 -45.9014 -25.2002l-14.4004 13.5
c18.6006 24.001 42.001 36.001 70.2021 36.001c16.2002 0 28.3506 -4.34961 36.4512 -13.0498s10.6504 -21.1504 7.65039 -37.3506z" />
    <glyph glyph-name="uni1EC3" unicode="&#xea;&#x309;" horiz-adv-x="374" 
d="M344 253c0 -79.333 -67.667 -118.998 -203 -118.998c-24.667 0 -53.667 1.33301 -87 4c-0.666992 -5.33301 -1 -10.333 -1 -15c0 -65.333 38 -98 114 -98c38.667 0 80 7.66699 124 23l-4 -33c-42 -16 -85.667 -24 -131 -24c-43.333 0 -78 11.667 -104 35
s-39 54.666 -39 93.999c0 63.333 22.333 117.666 67 162.999c42.667 42.667 91.667 64 147 64c78 0 117 -31.333 117 -94zM309 254.002c0 41.333 -27.333 62 -82 62c-34 0 -67.667 -13.667 -101 -41c-35.333 -29.333 -58.666 -64.333 -69.999 -105
c27.333 -2 51.666 -3 72.999 -3c120 0 180 29 180 87zM257 470.002l53 -78h-37l-35 52l-57 -52h-37l85 78h28zM415.7 533.913c-4.2002 -18.6006 -16.0508 -34.5029 -35.5518 -47.7031s-30.1514 -23.4004 -31.9512 -30.6006h-27.9004
c4.2002 15.6006 15.75 29.4014 34.6504 41.4023c18.9014 12 29.8516 24.2998 32.8516 36.9004c1.7998 8.40039 0.299805 14.8506 -4.5 19.3506s-12 6.75 -21.6006 6.75c-15.6006 0 -30.9014 -8.40039 -45.9014 -25.2002l-14.4004 13.5
c18.6006 24.001 42.001 36.001 70.2021 36.001c16.2002 0 28.3506 -4.34961 36.4512 -13.0498s10.6504 -21.1504 7.65039 -37.3506z" />
    <glyph glyph-name="uni1EC4" unicode="&#xca;&#x303;" horiz-adv-x="351" 
d="M270 0h-259l101 476h259l-7 -33h-220l-38 -175h196l-7 -33h-196l-42 -202h220zM274 606l53 -78h-37l-35 52l-57 -52h-37l85 78h28zM335 696h28c-10 -41.333 -30.333 -62 -61 -62c-8.66699 0 -21.167 4.66699 -37.5 14s-27.5 14 -33.5 14c-11.333 0 -20 -10.667 -26 -32
h-26c10.667 42.667 30 64 58 64c8.66699 0 20.667 -5 36 -15s28 -15 38 -15c11.333 0 19.333 10.667 24 32z" />
    <glyph glyph-name="uni1EC5" unicode="&#xea;&#x303;" horiz-adv-x="374" 
d="M344 253c0 -79.333 -67.667 -118.998 -203 -118.998c-24.667 0 -53.667 1.33301 -87 4c-0.666992 -5.33301 -1 -10.333 -1 -15c0 -65.333 38 -98 114 -98c38.667 0 80 7.66699 124 23l-4 -33c-42 -16 -85.667 -24 -131 -24c-43.333 0 -78 11.667 -104 35
s-39 54.666 -39 93.999c0 63.333 22.333 117.666 67 162.999c42.667 42.667 91.667 64 147 64c78 0 117 -31.333 117 -94zM309 254.002c0 41.333 -27.333 62 -82 62c-34 0 -67.667 -13.667 -101 -41c-35.333 -29.333 -58.666 -64.333 -69.999 -105
c27.333 -2 51.666 -3 72.999 -3c120 0 180 29 180 87zM257 470.002l53 -78h-37l-35 52l-57 -52h-37l85 78h28zM319 559.002h28c-10 -41.333 -30.333 -62 -61 -62c-8.66699 0 -21.167 4.66699 -37.5 14s-27.5 14 -33.5 14c-11.333 0 -20 -10.667 -26 -32h-26
c10.667 42.667 30 64 58 64c8.66699 0 20.667 -5 36 -15s28 -15 38 -15c11.333 0 19.333 10.667 24 32z" />
    <glyph glyph-name="uni1EC6" unicode="&#xca;&#x323;" horiz-adv-x="351" 
d="M270 0h-259l101 476h259l-7 -33h-220l-38 -175h196l-7 -33h-196l-42 -202h220zM144 -77c-1.33301 -8 -5.33203 -14.833 -11.999 -20.5s-14.334 -8.5 -23.001 -8.5c-8 0 -14.167 2.83301 -18.5 8.5s-5.83301 12.5 -4.5 20.5c1.33301 6.66699 5.5 13 12.5 19s14.5 9 22.5 9
c8.66699 0 15 -3 19 -9s5.33301 -12.333 4 -19zM274.001 606l53 -78h-37l-35 52l-57 -52h-37l85 78h28z" />
    <glyph glyph-name="uni1EC7" unicode="&#xea;&#x323;" horiz-adv-x="374" 
d="M344 253c0 -79.333 -67.667 -118.998 -203 -118.998c-24.667 0 -53.667 1.33301 -87 4c-0.666992 -5.33301 -1 -10.333 -1 -15c0 -65.333 38 -98 114 -98c38.667 0 80 7.66699 124 23l-4 -33c-42 -16 -85.667 -24 -131 -24c-43.333 0 -78 11.667 -104 35
s-39 54.666 -39 93.999c0 63.333 22.333 117.666 67 162.999c42.667 42.667 91.667 64 147 64c78 0 117 -31.333 117 -94zM309 254.002c0 41.333 -27.333 62 -82 62c-34 0 -67.667 -13.667 -101 -41c-35.333 -29.333 -58.666 -64.333 -69.999 -105
c27.333 -2 51.666 -3 72.999 -3c120 0 180 29 180 87zM157 -76.998c-1.33301 -8 -5.33203 -14.833 -11.999 -20.5s-14.334 -8.5 -23.001 -8.5c-8 0 -14.167 2.83301 -18.5 8.5s-5.83301 12.5 -4.5 20.5c1.33301 6.66699 5.5 13 12.5 19s14.5 9 22.5 9c8.66699 0 15 -3 19 -9
s5.33301 -12.333 4 -19zM257.001 470.002l53 -78h-37l-35 52l-57 -52h-37l85 78h28z" />
    <glyph glyph-name="uni1EC8" unicode="I&#x309;" horiz-adv-x="147" 
d="M50 0h-39l101 476h39zM232 607c-4.66699 -20.667 -17.833 -38.332 -39.5 -52.999s-33.5 -26 -35.5 -34h-31c4.66699 17.333 17.5 32.666 38.5 45.999s33.167 27 36.5 41c2 9.33301 0.333008 16.5 -5 21.5s-13.333 7.5 -24 7.5c-17.333 0 -34.333 -9.33301 -51 -28l-16 15
c20.667 26.667 46.667 40 78 40c18 0 31.5 -4.83301 40.5 -14.5s11.833 -23.5 8.5 -41.5z" />
    <glyph glyph-name="uni1EC9" unicode="i&#x309;" horiz-adv-x="143" 
d="M201 471c-4.66699 -20.667 -17.833 -38.332 -39.5 -52.999s-33.5 -26 -35.5 -34h-31c4.66699 17.333 17.5 32.666 38.5 45.999s33.167 27 36.5 41c2 9.33301 0.333008 16.5 -5 21.5s-13.333 7.5 -24 7.5c-17.333 0 -34.333 -9.33301 -51 -28l-16 15
c20.667 26.667 46.667 40 78 40c18 0 31.5 -4.83301 40.5 -14.5s11.833 -23.5 8.5 -41.5zM47.001 0.00195312h-38l72 340h38z" />
    <glyph glyph-name="uni1ECA" unicode="I&#x323;" horiz-adv-x="147" 
d="M50 0h-39l101 476h39zM43 -77c-1.33301 -8 -5.33203 -14.833 -11.999 -20.5s-14.334 -8.5 -23.001 -8.5c-8 0 -14.167 2.83301 -18.5 8.5s-5.83301 12.5 -4.5 20.5c1.33301 6.66699 5.5 13 12.5 19s14.5 9 22.5 9c8.66699 0 15 -3 19 -9s5.33301 -12.333 4 -19z" />
    <glyph glyph-name="uni1ECB" unicode="i&#x323;" horiz-adv-x="143" 
d="M48 0h-39l72 340h39zM153 443c-2 -9.33301 -6.66895 -16.833 -14.002 -22.5s-15.666 -8.5 -24.999 -8.5s-16.166 2.83301 -20.499 8.5s-5.5 13.167 -3.5 22.5s6.33301 17 13 23s14.667 9 24 9s16.5 -3 21.5 -9s6.5 -13.667 4.5 -23zM41.998 -77
c-1.33301 -8 -5.33203 -14.833 -11.999 -20.5s-14.334 -8.5 -23.001 -8.5c-8 0 -14.167 2.83301 -18.5 8.5s-5.83301 12.5 -4.5 20.5c1.33301 6.66699 5.5 13 12.5 19s14.5 9 22.5 9c8.66699 0 15 -3 19 -9s5.33301 -12.333 4 -19z" />
    <glyph glyph-name="uni1ECC" unicode="O&#x323;" horiz-adv-x="486" 
d="M471 237c-15.333 -71.333 -48.499 -130.333 -99.499 -177s-109.167 -70 -174.5 -70s-113.5 23.333 -144.5 70s-38.833 105.667 -23.5 177s48.333 130.333 99 177s108.667 70 174 70s113.666 -23.333 144.999 -70s39.333 -105.667 24 -177zM432.001 237
c12.667 58.667 6.33398 108.834 -18.999 150.501s-64.666 62.5 -117.999 62.5s-101.333 -20.833 -144 -62.5s-70.334 -91.834 -83.001 -150.501s-6.33398 -108.834 18.999 -150.501s64.666 -62.5 117.999 -62.5s101.333 20.833 144 62.5s70.334 91.834 83.001 150.501z
M212.001 -77c-1.33301 -8 -5.33203 -14.833 -11.999 -20.5s-14.334 -8.5 -23.001 -8.5c-8 0 -14.167 2.83301 -18.5 8.5s-5.83301 12.5 -4.5 20.5c1.33301 6.66699 5.5 13 12.5 19s14.5 9 22.5 9c8.66699 0 15 -3 19 -9s5.33301 -12.333 4 -19z" />
    <glyph glyph-name="uni1ECD" unicode="o&#x323;" horiz-adv-x="398" 
d="M362 169c-10.667 -50 -35.334 -92.333 -74.001 -127s-83.667 -52 -135 -52s-89 17.333 -113 52s-30.667 77 -20 127s35.334 92.167 74.001 126.5s83.667 51.5 135 51.5s89 -17.167 113 -51.5s30.667 -76.5 20 -126.5zM324 169
c9.33301 41.333 4.33398 75.833 -14.999 103.5s-48.333 41.5 -87 41.5s-73.334 -13.833 -104.001 -41.5s-50.667 -62.167 -60 -103.5c-8.66699 -41.333 -3.5 -76 15.5 -104s47.833 -42 86.5 -42s73.5 14 104.5 42s50.833 62.667 59.5 104zM168.001 -77
c-1.33301 -8 -5.33203 -14.833 -11.999 -20.5s-14.334 -8.5 -23.001 -8.5c-8 0 -14.167 2.83301 -18.5 8.5s-5.83301 12.5 -4.5 20.5c1.33301 6.66699 5.5 13 12.5 19s14.5 9 22.5 9c8.66699 0 15 -3 19 -9s5.33301 -12.333 4 -19z" />
    <glyph glyph-name="uni1ECE" unicode="O&#x309;" horiz-adv-x="486" 
d="M471 237c-15.333 -71.333 -48.499 -130.333 -99.499 -177s-109.167 -70 -174.5 -70s-113.5 23.333 -144.5 70s-38.833 105.667 -23.5 177s48.333 130.333 99 177s108.667 70 174 70s113.666 -23.333 144.999 -70s39.333 -105.667 24 -177zM432.001 237
c12.667 58.667 6.33398 108.834 -18.999 150.501s-64.666 62.5 -117.999 62.5s-101.333 -20.833 -144 -62.5s-70.334 -91.834 -83.001 -150.501s-6.33398 -108.834 18.999 -150.501s64.666 -62.5 117.999 -62.5s101.333 20.833 144 62.5s70.334 91.834 83.001 150.501z
M401.001 607c-4.66699 -20.667 -17.833 -38.332 -39.5 -52.999s-33.5 -26 -35.5 -34h-31c4.66699 17.333 17.5 32.666 38.5 45.999s33.167 27 36.5 41c2 9.33301 0.333008 16.5 -5 21.5s-13.333 7.5 -24 7.5c-17.333 0 -34.333 -9.33301 -51 -28l-16 15
c20.667 26.667 46.667 40 78 40c18 0 31.5 -4.83301 40.5 -14.5s11.833 -23.5 8.5 -41.5z" />
    <glyph glyph-name="uni1ECF" unicode="o&#x309;" horiz-adv-x="398" 
d="M362 169c-10.667 -50 -35.334 -92.333 -74.001 -127s-83.667 -52 -135 -52s-89 17.333 -113 52s-30.667 77 -20 127s35.334 92.167 74.001 126.5s83.667 51.5 135 51.5s89 -17.167 113 -51.5s30.667 -76.5 20 -126.5zM324 169
c9.33301 41.333 4.33398 75.833 -14.999 103.5s-48.333 41.5 -87 41.5s-73.334 -13.833 -104.001 -41.5s-50.667 -62.167 -60 -103.5c-8.66699 -41.333 -3.5 -76 15.5 -104s47.833 -42 86.5 -42s73.5 14 104.5 42s50.833 62.667 59.5 104zM328.001 471
c-4.66699 -20.667 -17.833 -38.332 -39.5 -52.999s-33.5 -26 -35.5 -34h-31c4.66699 17.333 17.5 32.666 38.5 45.999s33.167 27 36.5 41c2 9.33301 0.333008 16.5 -5 21.5s-13.333 7.5 -24 7.5c-17.333 0 -34.333 -9.33301 -51 -28l-16 15c20.667 26.667 46.667 40 78 40
c18 0 31.5 -4.83301 40.5 -14.5s11.833 -23.5 8.5 -41.5z" />
    <glyph glyph-name="uni1ED0" unicode="&#xd4;&#x301;" horiz-adv-x="486" 
d="M471 237c-15.333 -71.333 -48.499 -130.333 -99.499 -177s-109.167 -70 -174.5 -70s-113.5 23.333 -144.5 70s-38.833 105.667 -23.5 177s48.333 130.333 99 177s108.667 70 174 70s113.666 -23.333 144.999 -70s39.333 -105.667 24 -177zM432.001 237
c12.667 58.667 6.33398 108.834 -18.999 150.501s-64.666 62.5 -117.999 62.5s-101.333 -20.833 -144 -62.5s-70.334 -91.834 -83.001 -150.501s-6.33398 -108.834 18.999 -150.501s64.666 -62.5 117.999 -62.5s101.333 20.833 144 62.5s70.334 91.834 83.001 150.501z
M342.001 606l53 -78h-37l-35 52l-57 -52h-37l85 78h28zM442.6 580.01h-27.9004l63.001 81.9023l33.3008 -9.00098z" />
    <glyph glyph-name="uni1ED1" unicode="&#xf4;&#x301;" horiz-adv-x="398" 
d="M362 169c-10.667 -50 -35.334 -92.333 -74.001 -127s-83.667 -52 -135 -52s-89 17.333 -113 52s-30.667 77 -20 127s35.334 92.167 74.001 126.5s83.667 51.5 135 51.5s89 -17.167 113 -51.5s30.667 -76.5 20 -126.5zM324 169
c9.33301 41.333 4.33398 75.833 -14.999 103.5s-48.333 41.5 -87 41.5s-73.334 -13.833 -104.001 -41.5s-50.667 -62.167 -60 -103.5c-8.66699 -41.333 -3.5 -76 15.5 -104s47.833 -42 86.5 -42s73.5 14 104.5 42s50.833 62.667 59.5 104zM269.001 470l53 -78h-37l-35 52
l-57 -52h-37l85 78h28zM361.6 446.01h-27.9004l63.001 81.9023l33.3008 -9.00098z" />
    <glyph glyph-name="uni1ED2" unicode="&#xd4;&#x300;" horiz-adv-x="486" 
d="M471 237c-15.333 -71.333 -48.499 -130.333 -99.499 -177s-109.167 -70 -174.5 -70s-113.5 23.333 -144.5 70s-38.833 105.667 -23.5 177s48.333 130.333 99 177s108.667 70 174 70s113.666 -23.333 144.999 -70s39.333 -105.667 24 -177zM432.001 237
c12.667 58.667 6.33398 108.834 -18.999 150.501s-64.666 62.5 -117.999 62.5s-101.333 -20.833 -144 -62.5s-70.334 -91.834 -83.001 -150.501s-6.33398 -108.834 18.999 -150.501s64.666 -62.5 117.999 -62.5s101.333 20.833 144 62.5s70.334 91.834 83.001 150.501z
M342.001 606l53 -78h-37l-35 52l-57 -52h-37l85 78h28zM463.802 580.01h-27.9014l-36.001 72.9014l36.9014 9.00098z" />
    <glyph glyph-name="uni1ED3" unicode="&#xf4;&#x300;" horiz-adv-x="398" 
d="M362 169c-10.667 -50 -35.334 -92.333 -74.001 -127s-83.667 -52 -135 -52s-89 17.333 -113 52s-30.667 77 -20 127s35.334 92.167 74.001 126.5s83.667 51.5 135 51.5s89 -17.167 113 -51.5s30.667 -76.5 20 -126.5zM324 169
c9.33301 41.333 4.33398 75.833 -14.999 103.5s-48.333 41.5 -87 41.5s-73.334 -13.833 -104.001 -41.5s-50.667 -62.167 -60 -103.5c-8.66699 -41.333 -3.5 -76 15.5 -104s47.833 -42 86.5 -42s73.5 14 104.5 42s50.833 62.667 59.5 104zM269.001 470l53 -78h-37l-35 52
l-57 -52h-37l85 78h28zM385.802 446.01h-27.9014l-36.001 72.9014l36.9014 9.00098z" />
    <glyph glyph-name="uni1ED4" unicode="&#xd4;&#x309;" horiz-adv-x="486" 
d="M471 237c-15.333 -71.333 -48.499 -130.333 -99.499 -177s-109.167 -70 -174.5 -70s-113.5 23.333 -144.5 70s-38.833 105.667 -23.5 177s48.333 130.333 99 177s108.667 70 174 70s113.666 -23.333 144.999 -70s39.333 -105.667 24 -177zM432.001 237
c12.667 58.667 6.33398 108.834 -18.999 150.501s-64.666 62.5 -117.999 62.5s-101.333 -20.833 -144 -62.5s-70.334 -91.834 -83.001 -150.501s-6.33398 -108.834 18.999 -150.501s64.666 -62.5 117.999 -62.5s101.333 20.833 144 62.5s70.334 91.834 83.001 150.501z
M342.001 606l53 -78h-37l-35 52l-57 -52h-37l85 78h28zM509.701 655.911c-4.2002 -18.6006 -16.0508 -34.5029 -35.5518 -47.7031s-30.1514 -23.4004 -31.9512 -30.6006h-27.9004c4.2002 15.6006 15.75 29.4014 34.6504 41.4023c18.9014 12 29.8516 24.2998 32.8516 36.9004
c1.7998 8.40039 0.299805 14.8506 -4.5 19.3506s-12 6.75 -21.6006 6.75c-15.6006 0 -30.9014 -8.40039 -45.9014 -25.2002l-14.4004 13.5c18.6006 24.001 42.001 36.001 70.2021 36.001c16.2002 0 28.3506 -4.34961 36.4512 -13.0498s10.6504 -21.1504 7.65039 -37.3506z
" />
    <glyph glyph-name="uni1ED5" unicode="&#xf4;&#x309;" horiz-adv-x="398" 
d="M362 169c-10.667 -50 -35.334 -92.333 -74.001 -127s-83.667 -52 -135 -52s-89 17.333 -113 52s-30.667 77 -20 127s35.334 92.167 74.001 126.5s83.667 51.5 135 51.5s89 -17.167 113 -51.5s30.667 -76.5 20 -126.5zM324 169
c9.33301 41.333 4.33398 75.833 -14.999 103.5s-48.333 41.5 -87 41.5s-73.334 -13.833 -104.001 -41.5s-50.667 -62.167 -60 -103.5c-8.66699 -41.333 -3.5 -76 15.5 -104s47.833 -42 86.5 -42s73.5 14 104.5 42s50.833 62.667 59.5 104zM269.001 470l53 -78h-37l-35 52
l-57 -52h-37l85 78h28zM428.701 533.911c-4.2002 -18.6006 -16.0508 -34.5029 -35.5518 -47.7031s-30.1514 -23.4004 -31.9512 -30.6006h-27.9004c4.2002 15.6006 15.75 29.4014 34.6504 41.4023c18.9014 12 29.8516 24.2998 32.8516 36.9004
c1.7998 8.40039 0.299805 14.8506 -4.5 19.3506s-12 6.75 -21.6006 6.75c-15.6006 0 -30.9014 -8.40039 -45.9014 -25.2002l-14.4004 13.5c18.6006 24.001 42.001 36.001 70.2021 36.001c16.2002 0 28.3506 -4.34961 36.4512 -13.0498s10.6504 -21.1504 7.65039 -37.3506z
" />
    <glyph glyph-name="uni1ED6" unicode="&#xd4;&#x303;" horiz-adv-x="486" 
d="M471 237c-15.333 -71.333 -48.499 -130.333 -99.499 -177s-109.167 -70 -174.5 -70s-113.5 23.333 -144.5 70s-38.833 105.667 -23.5 177s48.333 130.333 99 177s108.667 70 174 70s113.666 -23.333 144.999 -70s39.333 -105.667 24 -177zM432.001 237
c12.667 58.667 6.33398 108.834 -18.999 150.501s-64.666 62.5 -117.999 62.5s-101.333 -20.833 -144 -62.5s-70.334 -91.834 -83.001 -150.501s-6.33398 -108.834 18.999 -150.501s64.666 -62.5 117.999 -62.5s101.333 20.833 144 62.5s70.334 91.834 83.001 150.501z
M342.001 606l53 -78h-37l-35 52l-57 -52h-37l85 78h28zM402.001 696h28c-10 -41.333 -30.333 -62 -61 -62c-8.66699 0 -21.167 4.66699 -37.5 14s-27.5 14 -33.5 14c-11.333 0 -20 -10.667 -26 -32h-26c10.667 42.667 30 64 58 64c8.66699 0 20.667 -5 36 -15s28 -15 38 -15
c11.333 0 19.333 10.667 24 32z" />
    <glyph glyph-name="uni1ED7" unicode="&#xf4;&#x303;" horiz-adv-x="398" 
d="M362 169c-10.667 -50 -35.334 -92.333 -74.001 -127s-83.667 -52 -135 -52s-89 17.333 -113 52s-30.667 77 -20 127s35.334 92.167 74.001 126.5s83.667 51.5 135 51.5s89 -17.167 113 -51.5s30.667 -76.5 20 -126.5zM324 169
c9.33301 41.333 4.33398 75.833 -14.999 103.5s-48.333 41.5 -87 41.5s-73.334 -13.833 -104.001 -41.5s-50.667 -62.167 -60 -103.5c-8.66699 -41.333 -3.5 -76 15.5 -104s47.833 -42 86.5 -42s73.5 14 104.5 42s50.833 62.667 59.5 104zM269.001 470l53 -78h-37l-35 52
l-57 -52h-37l85 78h28zM331.001 559h28c-10 -41.333 -30.333 -62 -61 -62c-8.66699 0 -21.167 4.66699 -37.5 14s-27.5 14 -33.5 14c-11.333 0 -20 -10.667 -26 -32h-26c10.667 42.667 30 64 58 64c8.66699 0 20.667 -5 36 -15s28 -15 38 -15c11.333 0 19.333 10.667 24 32z
" />
    <glyph glyph-name="uni1ED8" unicode="&#xd4;&#x323;" horiz-adv-x="486" 
d="M471 237c-15.333 -71.333 -48.499 -130.333 -99.499 -177s-109.167 -70 -174.5 -70s-113.5 23.333 -144.5 70s-38.833 105.667 -23.5 177s48.333 130.333 99 177s108.667 70 174 70s113.666 -23.333 144.999 -70s39.333 -105.667 24 -177zM432.001 237
c12.667 58.667 6.33398 108.834 -18.999 150.501s-64.666 62.5 -117.999 62.5s-101.333 -20.833 -144 -62.5s-70.334 -91.834 -83.001 -150.501s-6.33398 -108.834 18.999 -150.501s64.666 -62.5 117.999 -62.5s101.333 20.833 144 62.5s70.334 91.834 83.001 150.501z
M213.001 -77c-1.33301 -8 -5.33203 -14.833 -11.999 -20.5s-14.334 -8.5 -23.001 -8.5c-8 0 -14.167 2.83301 -18.5 8.5s-5.83301 12.5 -4.5 20.5c1.33301 6.66699 5.5 13 12.5 19s14.5 9 22.5 9c8.66699 0 15 -3 19 -9s5.33301 -12.333 4 -19zM342.002 606l53 -78h-37
l-35 52l-57 -52h-37l85 78h28z" />
    <glyph glyph-name="uni1ED9" unicode="&#xf4;&#x323;" horiz-adv-x="398" 
d="M362 169c-10.667 -50 -35.334 -92.333 -74.001 -127s-83.667 -52 -135 -52s-89 17.333 -113 52s-30.667 77 -20 127s35.334 92.167 74.001 126.5s83.667 51.5 135 51.5s89 -17.167 113 -51.5s30.667 -76.5 20 -126.5zM324 169
c9.33301 41.333 4.33398 75.833 -14.999 103.5s-48.333 41.5 -87 41.5s-73.334 -13.833 -104.001 -41.5s-50.667 -62.167 -60 -103.5c-8.66699 -41.333 -3.5 -76 15.5 -104s47.833 -42 86.5 -42s73.5 14 104.5 42s50.833 62.667 59.5 104zM168.001 -77
c-1.33301 -8 -5.33203 -14.833 -11.999 -20.5s-14.334 -8.5 -23.001 -8.5c-8 0 -14.167 2.83301 -18.5 8.5s-5.83301 12.5 -4.5 20.5c1.33301 6.66699 5.5 13 12.5 19s14.5 9 22.5 9c8.66699 0 15 -3 19 -9s5.33301 -12.333 4 -19zM269.002 470l53 -78h-37l-35 52l-57 -52
h-37l85 78h28z" />
    <glyph glyph-name="uni1EDA" unicode="&#x1a0;&#x301;" horiz-adv-x="486" 
d="M471 237c-15.333 -71.333 -48.501 -130.333 -99.501 -177s-109.167 -70 -174.5 -70s-113.5 23.333 -144.5 70s-38.833 105.667 -23.5 177s48.333 130.333 99 177s108.667 70 174 70c58 0 103 -19 135 -57c34.667 30 55.334 61.333 62.001 94h32
c-2.66699 -14.667 -11 -32 -25 -52c-16 -23.333 -34.667 -43 -56 -59c28.667 -46 35.667 -103.667 21 -173zM431.999 237c12.667 58.667 6.33398 108.834 -18.999 150.501s-64.666 62.5 -117.999 62.5s-101.333 -20.833 -144 -62.5s-70.334 -91.834 -83.001 -150.501
s-6.33398 -108.834 18.999 -150.501s64.666 -62.5 117.999 -62.5s101.333 20.833 144 62.5s70.334 91.834 83.001 150.501zM292.999 526h-31l70 91l37 -10z" />
    <glyph glyph-name="uni1EDB" unicode="&#x1a1;&#x301;" horiz-adv-x="398" 
d="M362 169c-10.667 -50 -35.335 -92.334 -74.002 -127.001s-83.667 -52 -135 -52s-89 17.333 -113 52s-30.667 77 -20 127s35.334 92.167 74.001 126.5s83.667 51.5 135 51.5c44.667 0 80 -14.333 106 -43c28.667 22.667 48.334 54 59.001 94h33
c-10 -40.667 -36.333 -77.667 -79 -111c19.333 -33.333 24 -72.666 14 -117.999zM323.999 168.999c9.33301 41.333 4.33398 75.833 -14.999 103.5s-48.333 41.5 -87 41.5s-73.334 -13.833 -104.001 -41.5s-50.667 -62.167 -60 -103.5c-8.66699 -41.333 -3.5 -76 15.5 -104
s47.833 -42 86.5 -42s73.5 14 104.5 42s50.833 62.667 59.5 104zM220 389.999h-31l70 91l37 -10z" />
    <glyph glyph-name="uni1EDC" unicode="&#x1a0;&#x300;" horiz-adv-x="486" 
d="M471 237c-15.333 -71.333 -48.501 -130.333 -99.501 -177s-109.167 -70 -174.5 -70s-113.5 23.333 -144.5 70s-38.833 105.667 -23.5 177s48.333 130.333 99 177s108.667 70 174 70c58 0 103 -19 135 -57c34.667 30 55.334 61.333 62.001 94h32
c-2.66699 -14.667 -11 -32 -25 -52c-16 -23.333 -34.667 -43 -56 -59c28.667 -46 35.667 -103.667 21 -173zM431.999 237c12.667 58.667 6.33398 108.834 -18.999 150.501s-64.666 62.5 -117.999 62.5s-101.333 -20.833 -144 -62.5s-70.334 -91.834 -83.001 -150.501
s-6.33398 -108.834 18.999 -150.501s64.666 -62.5 117.999 -62.5s101.333 20.833 144 62.5s70.334 91.834 83.001 150.501zM360.999 526h-31l-40 81l41 10z" />
    <glyph glyph-name="uni1EDD" unicode="&#x1a1;&#x300;" horiz-adv-x="398" 
d="M362 169c-10.667 -50 -35.335 -92.334 -74.002 -127.001s-83.667 -52 -135 -52s-89 17.333 -113 52s-30.667 77 -20 127s35.334 92.167 74.001 126.5s83.667 51.5 135 51.5c44.667 0 80 -14.333 106 -43c28.667 22.667 48.334 54 59.001 94h33
c-10 -40.667 -36.333 -77.667 -79 -111c19.333 -33.333 24 -72.666 14 -117.999zM323.999 168.999c9.33301 41.333 4.33398 75.833 -14.999 103.5s-48.333 41.5 -87 41.5s-73.334 -13.833 -104.001 -41.5s-50.667 -62.167 -60 -103.5c-8.66699 -41.333 -3.5 -76 15.5 -104
s47.833 -42 86.5 -42s73.5 14 104.5 42s50.833 62.667 59.5 104zM288 389.999h-31l-40 81l41 10z" />
    <glyph glyph-name="uni1EDE" unicode="&#x1a0;&#x309;" horiz-adv-x="486" 
d="M471 237c-15.333 -71.333 -48.501 -130.333 -99.501 -177s-109.167 -70 -174.5 -70s-113.5 23.333 -144.5 70s-38.833 105.667 -23.5 177s48.333 130.333 99 177s108.667 70 174 70c58 0 103 -19 135 -57c34.667 30 55.334 61.333 62.001 94h32
c-2.66699 -14.667 -11 -32 -25 -52c-16 -23.333 -34.667 -43 -56 -59c28.667 -46 35.667 -103.667 21 -173zM431.999 237c12.667 58.667 6.33398 108.834 -18.999 150.501s-64.666 62.5 -117.999 62.5s-101.333 -20.833 -144 -62.5s-70.334 -91.834 -83.001 -150.501
s-6.33398 -108.834 18.999 -150.501s64.666 -62.5 117.999 -62.5s101.333 20.833 144 62.5s70.334 91.834 83.001 150.501zM400.999 607c-4.66699 -20.667 -17.833 -38.332 -39.5 -52.999s-33.5 -26 -35.5 -34h-31c4.66699 17.333 17.5 32.666 38.5 45.999
s33.167 27 36.5 41c2 9.33301 0.333008 16.5 -5 21.5s-13.333 7.5 -24 7.5c-17.333 0 -34.333 -9.33301 -51 -28l-16 15c20.667 26.667 46.667 40 78 40c18 0 31.5 -4.83301 40.5 -14.5s11.833 -23.5 8.5 -41.5z" />
    <glyph glyph-name="uni1EDF" unicode="&#x1a1;&#x309;" horiz-adv-x="398" 
d="M362 169c-10.667 -50 -35.335 -92.334 -74.002 -127.001s-83.667 -52 -135 -52s-89 17.333 -113 52s-30.667 77 -20 127s35.334 92.167 74.001 126.5s83.667 51.5 135 51.5c44.667 0 80 -14.333 106 -43c28.667 22.667 48.334 54 59.001 94h33
c-10 -40.667 -36.333 -77.667 -79 -111c19.333 -33.333 24 -72.666 14 -117.999zM323.999 168.999c9.33301 41.333 4.33398 75.833 -14.999 103.5s-48.333 41.5 -87 41.5s-73.334 -13.833 -104.001 -41.5s-50.667 -62.167 -60 -103.5c-8.66699 -41.333 -3.5 -76 15.5 -104
s47.833 -42 86.5 -42s73.5 14 104.5 42s50.833 62.667 59.5 104zM312.7 461.91c-4.2002 -18.6006 -16.0508 -34.5029 -35.5518 -47.7031s-30.1514 -23.4004 -31.9512 -30.6006h-27.9004c4.2002 15.6006 15.75 29.4014 34.6504 41.4023
c18.9014 12 29.8516 24.2998 32.8516 36.9004c1.7998 8.40039 0.299805 14.8506 -4.5 19.3506s-12 6.75 -21.6006 6.75c-15.6006 0 -30.9014 -8.40039 -45.9014 -25.2002l-14.4004 13.5c18.6006 24.001 42.001 36.001 70.2021 36.001
c16.2002 0 28.3506 -4.34961 36.4512 -13.0498s10.6504 -21.1504 7.65039 -37.3506z" />
    <glyph glyph-name="uni1EE0" unicode="&#x1a0;&#x303;" horiz-adv-x="486" 
d="M471 237c-15.333 -71.333 -48.501 -130.333 -99.501 -177s-109.167 -70 -174.5 -70s-113.5 23.333 -144.5 70s-38.833 105.667 -23.5 177s48.333 130.333 99 177s108.667 70 174 70c58 0 103 -19 135 -57c34.667 30 55.334 61.333 62.001 94h32
c-2.66699 -14.667 -11 -32 -25 -52c-16 -23.333 -34.667 -43 -56 -59c28.667 -46 35.667 -103.667 21 -173zM431.999 237c12.667 58.667 6.33398 108.834 -18.999 150.501s-64.666 62.5 -117.999 62.5s-101.333 -20.833 -144 -62.5s-70.334 -91.834 -83.001 -150.501
s-6.33398 -108.834 18.999 -150.501s64.666 -62.5 117.999 -62.5s101.333 20.833 144 62.5s70.334 91.834 83.001 150.501zM380.999 590h28c-10 -41.333 -30.333 -62 -61 -62c-8.66699 0 -21.167 4.66699 -37.5 14s-27.5 14 -33.5 14c-11.333 0 -20 -10.667 -26 -32h-26
c10.667 42.667 30 64 58 64c8.66699 0 20.667 -5 36 -15s28 -15 38 -15c11.333 0 19.333 10.667 24 32z" />
    <glyph glyph-name="uni1EE1" unicode="&#x1a1;&#x303;" horiz-adv-x="398" 
d="M362 169c-10.667 -50 -35.335 -92.334 -74.002 -127.001s-83.667 -52 -135 -52s-89 17.333 -113 52s-30.667 77 -20 127s35.334 92.167 74.001 126.5s83.667 51.5 135 51.5c44.667 0 80 -14.333 106 -43c28.667 22.667 48.334 54 59.001 94h33
c-10 -40.667 -36.333 -77.667 -79 -111c19.333 -33.333 24 -72.666 14 -117.999zM323.999 168.999c9.33301 41.333 4.33398 75.833 -14.999 103.5s-48.333 41.5 -87 41.5s-73.334 -13.833 -104.001 -41.5s-50.667 -62.167 -60 -103.5c-8.66699 -41.333 -3.5 -76 15.5 -104
s47.833 -42 86.5 -42s73.5 14 104.5 42s50.833 62.667 59.5 104zM309 453.999h28c-10 -41.333 -30.333 -62 -61 -62c-8.66699 0 -21.167 4.66699 -37.5 14s-27.5 14 -33.5 14c-11.333 0 -20 -10.667 -26 -32h-26c10.667 42.667 30 64 58 64c8.66699 0 20.667 -5 36 -15
s28 -15 38 -15c11.333 0 19.333 10.667 24 32z" />
    <glyph glyph-name="uni1EE2" unicode="&#x1a0;&#x323;" horiz-adv-x="486" 
d="M471 237c-15.333 -71.333 -48.501 -130.333 -99.501 -177s-109.167 -70 -174.5 -70s-113.5 23.333 -144.5 70s-38.833 105.667 -23.5 177s48.333 130.333 99 177s108.667 70 174 70c58 0 103 -19 135 -57c34.667 30 55.334 61.333 62.001 94h32
c-2.66699 -14.667 -11 -32 -25 -52c-16 -23.333 -34.667 -43 -56 -59c28.667 -46 35.667 -103.667 21 -173zM431.999 237c12.667 58.667 6.33398 108.834 -18.999 150.501s-64.666 62.5 -117.999 62.5s-101.333 -20.833 -144 -62.5s-70.334 -91.834 -83.001 -150.501
s-6.33398 -108.834 18.999 -150.501s64.666 -62.5 117.999 -62.5s101.333 20.833 144 62.5s70.334 91.834 83.001 150.501zM211.999 -77c-1.33301 -8 -5.33203 -14.833 -11.999 -20.5s-14.334 -8.5 -23.001 -8.5c-8 0 -14.167 2.83301 -18.5 8.5s-5.83301 12.5 -4.5 20.5
c1.33301 6.66699 5.5 13 12.5 19s14.5 9 22.5 9c8.66699 0 15 -3 19 -9s5.33301 -12.333 4 -19z" />
    <glyph glyph-name="uni1EE3" unicode="&#x1a1;&#x323;" horiz-adv-x="398" 
d="M362 169c-10.667 -50 -35.335 -92.334 -74.002 -127.001s-83.667 -52 -135 -52s-89 17.333 -113 52s-30.667 77 -20 127s35.334 92.167 74.001 126.5s83.667 51.5 135 51.5c44.667 0 80 -14.333 106 -43c28.667 22.667 48.334 54 59.001 94h33
c-10 -40.667 -36.333 -77.667 -79 -111c19.333 -33.333 24 -72.666 14 -117.999zM323.999 168.999c9.33301 41.333 4.33398 75.833 -14.999 103.5s-48.333 41.5 -87 41.5s-73.334 -13.833 -104.001 -41.5s-50.667 -62.167 -60 -103.5c-8.66699 -41.333 -3.5 -76 15.5 -104
s47.833 -42 86.5 -42s73.5 14 104.5 42s50.833 62.667 59.5 104zM168 -77.001c-1.33301 -8 -5.33203 -14.833 -11.999 -20.5s-14.334 -8.5 -23.001 -8.5c-8 0 -14.167 2.83301 -18.5 8.5s-5.83301 12.5 -4.5 20.5c1.33301 6.66699 5.5 13 12.5 19s14.5 9 22.5 9
c8.66699 0 15 -3 19 -9s5.33301 -12.333 4 -19z" />
    <glyph glyph-name="uni1EE4" unicode="U&#x323;" horiz-adv-x="466" 
d="M411 201c-29.333 -140 -103.667 -210 -223 -210s-164.333 70 -135 210l59 275h39l-59 -274c-13.333 -62.667 -10 -108 10 -136s51 -42 93 -42c42.667 0 79.667 14 111 42s53.333 73.333 66 136l59 274h39zM201.999 -77c-1.33301 -8 -5.33203 -14.833 -11.999 -20.5
s-14.334 -8.5 -23.001 -8.5c-8 0 -14.167 2.83301 -18.5 8.5s-5.83301 12.5 -4.5 20.5c1.33301 6.66699 5.5 13 12.5 19s14.5 9 22.5 9c8.66699 0 15 -3 19 -9s5.33301 -12.333 4 -19z" />
    <glyph glyph-name="uni1EE5" unicode="u&#x323;" horiz-adv-x="390" 
d="M312 1l-38.999 -8c-3.33301 22.667 -4 44.667 -2 66c-38.667 -45.333 -86 -68 -142 -68c-81.333 0 -111 52.667 -89 158l26 121c5.33301 28 4.33301 50.667 -3 68l39 8c7.33301 -22.667 9 -45 5 -67l-26 -123c-18.667 -87.333 2.66602 -131 63.999 -131
c28.667 0 56.667 9.33301 84 28c30 21.333 48.333 48.333 55 81l44 206h39l-55 -257c-5.33301 -24.667 -5.33301 -52 0 -82zM164.001 -77c-1.33301 -8 -5.33203 -14.833 -11.999 -20.5s-14.334 -8.5 -23.001 -8.5c-8 0 -14.167 2.83301 -18.5 8.5s-5.83301 12.5 -4.5 20.5
c1.33301 6.66699 5.5 13 12.5 19s14.5 9 22.5 9c8.66699 0 15 -3 19 -9s5.33301 -12.333 4 -19z" />
    <glyph glyph-name="uni1EE6" unicode="U&#x309;" horiz-adv-x="466" 
d="M411 201c-29.333 -140 -103.667 -210 -223 -210s-164.333 70 -135 210l59 275h39l-59 -274c-13.333 -62.667 -10 -108 10 -136s51 -42 93 -42c42.667 0 79.667 14 111 42s53.333 73.333 66 136l59 274h39zM390.999 607c-4.66699 -20.667 -17.833 -38.332 -39.5 -52.999
s-33.5 -26 -35.5 -34h-31c4.66699 17.333 17.5 32.666 38.5 45.999s33.167 27 36.5 41c2 9.33301 0.333008 16.5 -5 21.5s-13.333 7.5 -24 7.5c-17.333 0 -34.333 -9.33301 -51 -28l-16 15c20.667 26.667 46.667 40 78 40c18 0 31.5 -4.83301 40.5 -14.5
s11.833 -23.5 8.5 -41.5z" />
    <glyph glyph-name="uni1EE7" unicode="u&#x309;" horiz-adv-x="390" 
d="M312 1l-38.999 -8c-3.33301 22.667 -4 44.667 -2 66c-38.667 -45.333 -86 -68 -142 -68c-81.333 0 -111 52.667 -89 158l26 121c5.33301 28 4.33301 50.667 -3 68l39 8c7.33301 -22.667 9 -45 5 -67l-26 -123c-18.667 -87.333 2.66602 -131 63.999 -131
c28.667 0 56.667 9.33301 84 28c30 21.333 48.333 48.333 55 81l44 206h39l-55 -257c-5.33301 -24.667 -5.33301 -52 0 -82zM308.701 461.911c-4.2002 -18.6006 -16.0508 -34.5029 -35.5518 -47.7031s-30.1514 -23.4004 -31.9512 -30.6006h-27.9004
c4.2002 15.6006 15.75 29.4014 34.6504 41.4023c18.9014 12 29.8516 24.2998 32.8516 36.9004c1.7998 8.40039 0.299805 14.8506 -4.5 19.3506s-12 6.75 -21.6006 6.75c-15.6006 0 -30.9014 -8.40039 -45.9014 -25.2002l-14.4004 13.5
c18.6006 24.001 42.001 36.001 70.2021 36.001c16.2002 0 28.3506 -4.34961 36.4512 -13.0498s10.6504 -21.1504 7.65039 -37.3506z" />
    <glyph glyph-name="uni1EE8" unicode="&#x1af;&#x301;" horiz-adv-x="466" 
d="M411 201c-29.333 -140 -103.667 -210 -223 -210s-164.333 70 -135 210l59 275h39l-59 -274c-13.333 -62.667 -10 -108 10 -136s51 -42 93 -42c42.667 0 79.667 14 111 42s53.333 73.333 66 136l59 274h39l-10 -44c36 26 58.333 55.667 67 89h32
c-16 -47.333 -51 -87 -105 -119zM305.999 526h-31l70 91l37 -10z" />
    <glyph glyph-name="uni1EE9" unicode="&#x1b0;&#x301;" horiz-adv-x="373" 
d="M312 83c-5.33301 -24.667 -5.33203 -52 0.000976562 -82l-39 -8c-3.33301 22.667 -4 44.667 -2 66c-38.667 -45.333 -86 -68 -142 -68c-81.333 0 -111 52.667 -89 158l26 121c5.33301 28 4.33301 50.667 -3 68l39 8c7.33301 -22.667 9 -45 5 -67l-26 -123
c-18.667 -87.333 2.66602 -131 63.999 -131c28.667 0 56.667 9.33301 84 28c30 21.333 48.333 48.333 55 81l44 206h39l-9 -41c32 25.333 53.667 58.333 65 99h32c-16 -54.667 -50.333 -97 -103 -127zM229.001 390h-31l70 91l37 -10z" />
    <glyph glyph-name="uni1EEA" unicode="&#x1af;&#x300;" horiz-adv-x="466" 
d="M411 201c-29.333 -140 -103.667 -210 -223 -210s-164.333 70 -135 210l59 275h39l-59 -274c-13.333 -62.667 -10 -108 10 -136s51 -42 93 -42c42.667 0 79.667 14 111 42s53.333 73.333 66 136l59 274h39l-10 -44c36 26 58.333 55.667 67 89h32
c-16 -47.333 -51 -87 -105 -119zM336.999 526h-31l-40 81l41 10z" />
    <glyph glyph-name="uni1EEB" unicode="&#x1b0;&#x300;" horiz-adv-x="373" 
d="M312 83c-5.33301 -24.667 -5.33203 -52 0.000976562 -82l-39 -8c-3.33301 22.667 -4 44.667 -2 66c-38.667 -45.333 -86 -68 -142 -68c-81.333 0 -111 52.667 -89 158l26 121c5.33301 28 4.33301 50.667 -3 68l39 8c7.33301 -22.667 9 -45 5 -67l-26 -123
c-18.667 -87.333 2.66602 -131 63.999 -131c28.667 0 56.667 9.33301 84 28c30 21.333 48.333 48.333 55 81l44 206h39l-9 -41c32 25.333 53.667 58.333 65 99h32c-16 -54.667 -50.333 -97 -103 -127zM256.001 390h-31l-40 81l41 10z" />
    <glyph glyph-name="uni1EEC" unicode="&#x1af;&#x309;" horiz-adv-x="466" 
d="M411 201c-29.333 -140 -103.667 -210 -223 -210s-164.333 70 -135 210l59 275h39l-59 -274c-13.333 -62.667 -10 -108 10 -136s51 -42 93 -42c42.667 0 79.667 14 111 42s53.333 73.333 66 136l59 274h39l-10 -44c36 26 58.333 55.667 67 89h32
c-16 -47.333 -51 -87 -105 -119zM384.999 607c-4.66699 -20.667 -17.833 -38.332 -39.5 -52.999s-33.5 -26 -35.5 -34h-31c4.66699 17.333 17.5 32.666 38.5 45.999s33.167 27 36.5 41c2 9.33301 0.333008 16.5 -5 21.5s-13.333 7.5 -24 7.5
c-17.333 0 -34.333 -9.33301 -51 -28l-16 15c20.667 26.667 46.667 40 78 40c18 0 31.5 -4.83301 40.5 -14.5s11.833 -23.5 8.5 -41.5z" />
    <glyph glyph-name="uni1EED" unicode="&#x1b0;&#x309;" horiz-adv-x="373" 
d="M312 83c-5.33301 -24.667 -5.33203 -52 0.000976562 -82l-39 -8c-3.33301 22.667 -4 44.667 -2 66c-38.667 -45.333 -86 -68 -142 -68c-81.333 0 -111 52.667 -89 158l26 121c5.33301 28 4.33301 50.667 -3 68l39 8c7.33301 -22.667 9 -45 5 -67l-26 -123
c-18.667 -87.333 2.66602 -131 63.999 -131c28.667 0 56.667 9.33301 84 28c30 21.333 48.333 48.333 55 81l44 206h39l-9 -41c32 25.333 53.667 58.333 65 99h32c-16 -54.667 -50.333 -97 -103 -127zM309.701 461.911
c-4.2002 -18.6006 -16.0508 -34.5029 -35.5518 -47.7031s-30.1514 -23.4004 -31.9512 -30.6006h-27.9004c4.2002 15.6006 15.75 29.4014 34.6504 41.4023c18.9014 12 29.8516 24.2998 32.8516 36.9004c1.7998 8.40039 0.299805 14.8506 -4.5 19.3506s-12 6.75 -21.6006 6.75
c-15.6006 0 -30.9014 -8.40039 -45.9014 -25.2002l-14.4004 13.5c18.6006 24.001 42.001 36.001 70.2021 36.001c16.2002 0 28.3506 -4.34961 36.4512 -13.0498s10.6504 -21.1504 7.65039 -37.3506z" />
    <glyph glyph-name="uni1EEE" unicode="&#x1af;&#x303;" horiz-adv-x="466" 
d="M411 201c-29.333 -140 -103.667 -210 -223 -210s-164.333 70 -135 210l59 275h39l-59 -274c-13.333 -62.667 -10 -108 10 -136s51 -42 93 -42c42.667 0 79.667 14 111 42s53.333 73.333 66 136l59 274h39l-10 -44c36 26 58.333 55.667 67 89h32
c-16 -47.333 -51 -87 -105 -119zM375.999 590h28c-10 -41.333 -30.333 -62 -61 -62c-8.66699 0 -21.167 4.66699 -37.5 14s-27.5 14 -33.5 14c-11.333 0 -20 -10.667 -26 -32h-26c10.667 42.667 30 64 58 64c8.66699 0 20.667 -5 36 -15s28 -15 38 -15
c11.333 0 19.333 10.667 24 32z" />
    <glyph glyph-name="uni1EEF" unicode="&#x1b0;&#x303;" horiz-adv-x="373" 
d="M312 83c-5.33301 -24.667 -5.33203 -52 0.000976562 -82l-39 -8c-3.33301 22.667 -4 44.667 -2 66c-38.667 -45.333 -86 -68 -142 -68c-81.333 0 -111 52.667 -89 158l26 121c5.33301 28 4.33301 50.667 -3 68l39 8c7.33301 -22.667 9 -45 5 -67l-26 -123
c-18.667 -87.333 2.66602 -131 63.999 -131c28.667 0 56.667 9.33301 84 28c30 21.333 48.333 48.333 55 81l44 206h39l-9 -41c32 25.333 53.667 58.333 65 99h32c-16 -54.667 -50.333 -97 -103 -127zM311.001 454h28c-10 -41.333 -30.333 -62 -61 -62
c-8.66699 0 -21.167 4.66699 -37.5 14s-27.5 14 -33.5 14c-11.333 0 -20 -10.667 -26 -32h-26c10.667 42.667 30 64 58 64c8.66699 0 20.667 -5 36 -15s28 -15 38 -15c11.333 0 19.333 10.667 24 32z" />
    <glyph glyph-name="uni1EF0" unicode="&#x1af;&#x323;" horiz-adv-x="466" 
d="M411 201c-29.333 -140 -103.667 -210 -223 -210s-164.333 70 -135 210l59 275h39l-59 -274c-13.333 -62.667 -10 -108 10 -136s51 -42 93 -42c42.667 0 79.667 14 111 42s53.333 73.333 66 136l59 274h39l-10 -44c36 26 58.333 55.667 67 89h32
c-16 -47.333 -51 -87 -105 -119zM201.999 -77c-1.33301 -8 -5.33203 -14.833 -11.999 -20.5s-14.334 -8.5 -23.001 -8.5c-8 0 -14.167 2.83301 -18.5 8.5s-5.83301 12.5 -4.5 20.5c1.33301 6.66699 5.5 13 12.5 19s14.5 9 22.5 9c8.66699 0 15 -3 19 -9
s5.33301 -12.333 4 -19z" />
    <glyph glyph-name="uni1EF1" unicode="&#x1b0;&#x323;" horiz-adv-x="373" 
d="M312 83c-5.33301 -24.667 -5.33203 -52 0.000976562 -82l-39 -8c-3.33301 22.667 -4 44.667 -2 66c-38.667 -45.333 -86 -68 -142 -68c-81.333 0 -111 52.667 -89 158l26 121c5.33301 28 4.33301 50.667 -3 68l39 8c7.33301 -22.667 9 -45 5 -67l-26 -123
c-18.667 -87.333 2.66602 -131 63.999 -131c28.667 0 56.667 9.33301 84 28c30 21.333 48.333 48.333 55 81l44 206h39l-9 -41c32 25.333 53.667 58.333 65 99h32c-16 -54.667 -50.333 -97 -103 -127zM155.001 -77c-1.33301 -8 -5.33203 -14.833 -11.999 -20.5
s-14.334 -8.5 -23.001 -8.5c-8 0 -14.167 2.83301 -18.5 8.5s-5.83301 12.5 -4.5 20.5c1.33301 6.66699 5.5 13 12.5 19s14.5 9 22.5 9c8.66699 0 15 -3 19 -9s5.33301 -12.333 4 -19z" />
    <glyph glyph-name="Ygrave" unicode="Y&#x300;" horiz-adv-x="366" 
d="M424 476l-221 -266l-44 -210h-38l44 209l-107 267h45l88 -233l188 233h45zM283 526h-31l-40 81l41 10z" />
    <glyph glyph-name="ygrave" unicode="y&#x300;" horiz-adv-x="337" 
d="M141 0c-58.667 -88.667 -122 -140.667 -190 -156l-2 31c58.667 12.667 111 58 157 136c0 2 -0.333008 6 -1 12l-73 317h42l66 -288l180 288h43zM233 390h-31l-40 81l41 10z" />
    <glyph glyph-name="uni1EF4" unicode="Y&#x323;" horiz-adv-x="366" 
d="M424 476l-221 -266l-44 -210h-38l44 209l-107 267h45l88 -233l188 233h45zM152 -77c-1.33301 -8 -5.33203 -14.833 -11.999 -20.5s-14.334 -8.5 -23.001 -8.5c-8 0 -14.167 2.83301 -18.5 8.5s-5.83301 12.5 -4.5 20.5c1.33301 6.66699 5.5 13 12.5 19s14.5 9 22.5 9
c8.66699 0 15 -3 19 -9s5.33301 -12.333 4 -19z" />
    <glyph glyph-name="uni1EF5" unicode="y&#x323;" horiz-adv-x="337" 
d="M141 0c-58.667 -88.667 -122 -140.667 -190 -156l-2 31c58.667 12.667 111 58 157 136c0 2 -0.333008 6 -1 12l-73 317h42l66 -288l180 288h43zM206 -77c-1.33301 -8 -5.33203 -14.833 -11.999 -20.5s-14.334 -8.5 -23.001 -8.5c-8 0 -14.167 2.83301 -18.5 8.5
s-5.83301 12.5 -4.5 20.5c1.33301 6.66699 5.5 13 12.5 19s14.5 9 22.5 9c8.66699 0 15 -3 19 -9s5.33301 -12.333 4 -19z" />
    <glyph glyph-name="uni1EF6" unicode="Y&#x309;" horiz-adv-x="366" 
d="M424 476l-221 -266l-44 -210h-38l44 209l-107 267h45l88 -233l188 233h45zM341 607c-4.66699 -20.667 -17.833 -38.332 -39.5 -52.999s-33.5 -26 -35.5 -34h-31c4.66699 17.333 17.5 32.666 38.5 45.999s33.167 27 36.5 41c2 9.33301 0.333008 16.5 -5 21.5
s-13.333 7.5 -24 7.5c-17.333 0 -34.333 -9.33301 -51 -28l-16 15c20.667 26.667 46.667 40 78 40c18 0 31.5 -4.83301 40.5 -14.5s11.833 -23.5 8.5 -41.5z" />
    <glyph glyph-name="uni1EF7" unicode="y&#x309;" horiz-adv-x="337" 
d="M141 0c-58.667 -88.667 -122 -140.667 -190 -156l-2 31c58.667 12.667 111 58 157 136c0 2 -0.333008 6 -1 12l-73 317h42l66 -288l180 288h43zM281.7 461.911c-4.2002 -18.6006 -16.0508 -34.5029 -35.5518 -47.7031s-30.1514 -23.4004 -31.9512 -30.6006h-27.9004
c4.2002 15.6006 15.75 29.4014 34.6504 41.4023c18.9014 12 29.8516 24.2998 32.8516 36.9004c1.7998 8.40039 0.299805 14.8506 -4.5 19.3506s-12 6.75 -21.6006 6.75c-15.6006 0 -30.9014 -8.40039 -45.9014 -25.2002l-14.4004 13.5
c18.6006 24.001 42.001 36.001 70.2021 36.001c16.2002 0 28.3506 -4.34961 36.4512 -13.0498s10.6504 -21.1504 7.65039 -37.3506z" />
    <glyph glyph-name="uni1EF8" unicode="Y&#x303;" horiz-adv-x="366" 
d="M424 476l-221 -266l-44 -210h-38l44 209l-107 267h45l88 -233l188 233h45zM321 590h28c-10 -41.333 -30.333 -62 -61 -62c-8.66699 0 -21.167 4.66699 -37.5 14s-27.5 14 -33.5 14c-11.333 0 -20 -10.667 -26 -32h-26c10.667 42.667 30 64 58 64
c8.66699 0 20.667 -5 36 -15s28 -15 38 -15c11.333 0 19.333 10.667 24 32z" />
    <glyph glyph-name="uni1EF9" unicode="y&#x303;" horiz-adv-x="337" 
d="M141 0c-58.667 -88.667 -122 -140.667 -190 -156l-2 31c58.667 12.667 111 58 157 136c0 2 -0.333008 6 -1 12l-73 317h42l66 -288l180 288h43zM279 454h28c-10 -41.333 -30.333 -62 -61 -62c-8.66699 0 -21.167 4.66699 -37.5 14s-27.5 14 -33.5 14
c-11.333 0 -20 -10.667 -26 -32h-26c10.667 42.667 30 64 58 64c8.66699 0 20.667 -5 36 -15s28 -15 38 -15c11.333 0 19.333 10.667 24 32z" />
    <glyph glyph-name="uni0E4F.liga" unicode="&#xe4f;&#x22;" horiz-adv-x="443" 
d="M277 163c4 17.333 1.16699 32.333 -8.5 45s-23.5 19 -41.5 19s-34.5 -6.33301 -49.5 -19s-24.5 -27.667 -28.5 -45c-4 -18 -1 -33.167 9 -45.5s24 -18.5 42 -18.5s34.333 6.16699 49 18.5s24 27.5 28 45.5zM312 163c-6 -27.333 -20.667 -50.833 -44 -70.5
s-48.666 -29.5 -75.999 -29.5s-48.666 9.83301 -63.999 29.5s-20 43.167 -14 70.5s20.667 50.666 44 69.999s48.666 29 75.999 29s48.666 -9.66699 63.999 -29s20 -42.666 14 -69.999zM347 163c8 37.333 1.83203 69.001 -18.501 95.001s-49.166 39 -86.499 39
s-71.833 -13 -103.5 -39s-51.5 -57.667 -59.5 -95c-8 -38 -2 -70 18 -96s49 -39 87 -39c37.333 0 71.833 13.167 103.5 39.5s51.5 58.166 59.5 95.499zM381.999 163.001c-10 -47.333 -35 -87.333 -75 -120s-83.333 -49 -130 -49c-47.333 0 -83.833 16.333 -109.5 49
s-33.5 72.667 -23.5 120c10 46.667 34.833 86.5 74.5 119.5s83.167 49.5 130.5 49.5c46 0 82.167 -16.667 108.5 -50s34.5 -73 24.5 -119zM315.999 385.001h-27l25 161h47zM228.999 385.001h-27l25 161h47z" />
    <glyph glyph-name="uni0E24.liga" unicode="&#xe24;&#xe32;" horiz-adv-x="575" 
d="M244 -162c-8 -31.333 -23.9971 -55.002 -47.9971 -71.002l-28 18c22.667 17.333 37 39.333 43 66l87 410c7.33301 34 3 60.333 -13 79s-40.333 28 -73 28c-22.667 0 -45.834 -6.5 -69.501 -19.5s-41.5 -29.5 -53.5 -49.5c40 -3.33301 63.333 -17.666 70 -42.999
c-16 -3.33301 -31.5 -12.166 -46.5 -26.499s-24.5 -29.833 -28.5 -46.5l-13 -65c11.333 4.66699 21.666 7 30.999 7c18.667 0 33.167 -6.5 43.5 -19.5s13.5 -28.833 9.5 -47.5s-13.833 -34.334 -29.5 -47.001s-32.834 -19 -51.501 -19s-33 6.33301 -43 19
s-13 28.334 -9 47.001l26 124c8 36 30.667 62.333 68 79c-16.667 7.33301 -42 11 -76 11c13.333 36.667 37.333 67.167 72 91.5s71 36.5 109 36.5c42.667 0 74.5 -12 95.5 -36s27.167 -57 18.5 -99zM123.003 56.998c2 9.33301 0.332031 17.333 -5.00098 24
s-12.666 10 -21.999 10s-17.833 -3.33301 -25.5 -10s-12.5 -14.667 -14.5 -24s-0.5 -17.166 4.5 -23.499s12.167 -9.5 21.5 -9.5s18 3.16699 26 9.5s13 14.166 15 23.499zM441.002 -162.002c-8 -31.333 -23.999 -54.999 -47.999 -70.999l-28 18
c22.667 17.333 37 39.333 43 66l95 448c4 20 0 36.5 -12 49.5s-31 19.5 -57 19.5c-23.333 0 -43.5 -7.83301 -60.5 -23.5s-28.167 -32.5 -33.5 -50.5h-37c6.66699 28 23 52.667 49 74s56 32 90 32c38.667 0 66.167 -9.33301 82.5 -28s21.166 -43.334 14.499 -74.001z" />
    <glyph glyph-name="uni0E26.liga" unicode="&#xe26;&#xe32;" horiz-adv-x="621" 
d="M487 -162c-8 -31.333 -23.999 -54.999 -47.999 -70.999l-28 18c22.667 17.333 37 39.333 43 66l95 448c4 20 0 36.5 -12 49.5s-31 19.5 -57 19.5c-23.333 0 -43.5 -7.83301 -60.5 -23.5s-28.167 -32.5 -33.5 -50.5h-37c6.66699 28 23 52.667 49 74s56 32 90 32
c38.667 0 66.167 -9.33301 82.5 -28s21.166 -43.334 14.499 -74.001zM291.001 -161.999c-8 -31.333 -23.998 -55 -47.998 -71l-28 18c22.667 17.333 37 39.333 43 66l87 409c6.66699 32.667 2 58.834 -14 78.501s-40 29.5 -72 29.5c-22.667 0 -46 -6.5 -70 -19.5
s-42 -29.5 -54 -49.5c34.667 -3.33301 58.667 -18 72 -44c-38.667 -12 -62 -36.333 -70 -73c-5.33301 -26 -8 -52.667 -8 -80c0 -12 -1.66699 -26 -5 -42c-4 -19.333 -13.833 -35.5 -29.5 -48.5s-32.5 -19.5 -50.5 -19.5s-31.833 6.33301 -41.5 19s-12.5 28 -8.5 46
c3.33301 18 12.666 33.5 27.999 46.5s32 19.5 50 19.5c7.33301 0 15 -1.66699 23 -5c2 30.667 4.66699 54 8 70c6.66699 30.667 25.334 54.667 56.001 72c-16.667 8 -33.667 12 -51 12c-8.66699 0 -15 -0.333008 -19 -1c11.333 37.333 34.166 68.166 68.499 92.499
s70.833 36.5 109.5 36.5c42.667 0 74.667 -12.167 96 -36.5s27.666 -57.5 18.999 -99.5zM92.0029 57.001c2 9.33301 0.332031 17.333 -5.00098 24s-12.666 10 -21.999 10s-17.833 -3.33301 -25.5 -10s-12.5 -14.667 -14.5 -24s-0.5 -17.166 4.5 -23.499
s12.167 -9.5 21.5 -9.5s18 3.16699 26 9.5s13 14.166 15 23.499z" />
    <glyph glyph-name="fi" unicode="fi" horiz-adv-x="347" 
d="M252 0l-39 0.000976562l65 309h-157l-64 -305c-23.333 -106.667 -75.333 -160 -156 -160c-25.333 0 -43 5.33301 -53 16l17 28c12.667 -7.33301 28 -11 46 -11c53.333 0 89 42.333 107 127l64 305h-50l7 31h50l3 17c10 47.333 30 85.166 60 113.499s67.667 42.5 113 42.5
c32 0 58.333 -9 79 -27l-24 -30c-21.333 16 -44.333 24 -69 24c-62 0 -102 -41 -120 -123l-3 -17h196z" />
    <glyph glyph-name="fl" unicode="fl" horiz-adv-x="404" 
d="M348 27l-10.998 -34c-83.333 4 -112.666 63.333 -87.999 178l63 299c-11.333 6.66699 -26.666 10 -45.999 10c-20.667 0 -38.834 -3.5 -54.501 -10.5s-28.834 -16.167 -39.501 -27.5s-19.334 -24.666 -26.001 -39.999s-11.667 -31 -15 -47l-3 -15h98l-7 -31h-98l-64 -305
c-23.333 -106.667 -75.333 -160 -156 -160c-25.333 0 -43 5.33301 -53 16l17 28c12.667 -7.33301 28 -11 46 -11c53.333 0 89 42.333 107 127l64 305h-50l7 31h50l2 10c11.333 54 34.666 94.667 69.999 122s75.333 41 120 41c26 0 51 -6.66699 75 -20l-65 -307
c-10 -48.667 -13 -84 -9 -106c5.33301 -34.667 27.333 -52.334 66 -53.001z" />
    <glyph glyph-name="PSK" unicode="PSK&#x2e;Design&#x28;c&#x29;" horiz-adv-x="954" 
d="M212 520c0 18.667 -14.667 28 -44 28h-38v-57h38c29.333 0 44 9.66699 44 29zM271 519c0 -48.667 -33.333 -73 -100 -73h-41v-80h-58v225h110c59.333 0 89 -24 89 -72zM779 366l-82 114v-114h-60v225h60v-96l82 96h70l-89 -100l96 -125h-77zM916 666
c-3.33301 -17.333 -13.333 -26 -30 -26c-20.667 0 -31 12 -31 36s10.333 36 31 36c18 0 27.667 -8 29 -24h-16c-2 6.66699 -6.33301 10 -13 10c-8.66699 0 -13 -7 -13 -21c0 -16 4.66699 -24 14 -24c7.33301 0 11.333 4.33301 12 13h17zM237 120
c0 17.333 -8.33301 26 -25 26c-18 0 -27 -8.33301 -27 -25s9 -25 27 -25c16.667 0 25 8 25 24zM261 121c0 -28 -17 -42 -51 -42c-32 0 -48 14 -48 42c0 27.333 16.667 41 50 41c32.667 0 49 -13.667 49 -41zM325 135c0 6.66699 -5.66699 10 -17 10h-15v-21h15
c11.333 0 17 3.66699 17 11zM348 135c0 -18 -12.667 -27 -38 -27h-17v-25h-21v79h41c23.333 0 35 -9 35 -27zM404 83h-23v28l-36 51h26l24 -34c2 2.66699 9.33301 14 22 34h23l-36 -52v-27zM196 17l-7 17l-8 -17h15zM215 0h-13l-4 9h-20l-4 -9h-12l20 43h15zM689 0h-34v43
h34v-9h-23v-8h21v-8h-21v-9h23v-9zM774 43l-17 -43h-12l-18 43h12l12 -32l12 32h11zM847 21c0 8.66699 -4.33301 13 -13 13h-8v-24h8c8.66699 0 13 3.66699 13 11zM858 21c0 -14 -8 -21 -24 -21h-20v43h20c16 0 24 -7.33301 24 -22zM249 0h-32v43h10v-34h22v-9zM332 30
c0 3.33301 -2.66699 5 -8 5h-6v-9h6c5.33301 0 8 1.33301 8 4zM345 32c0 -5.33301 -2.66699 -9.00098 -8 -11.001c4 -1.33301 7.33301 -8.33301 10 -21h-13c0 2.66699 -0.333008 5.33398 -1 8.00098c-2 6 -5 9 -9 9h-6v-17h-11v43h21c11.333 0 17 -3.66699 17 -11z
M361 42.999v-43h-9v43h9zM412 2.99902c-6 -2.66699 -12.334 -4 -19.001 -4c-17.333 0 -26 7.33301 -26 22c0 15.333 8.33301 23 25 23c12.667 0 19.334 -5.33301 20.001 -16h-11c-0.666992 4.66699 -3.66699 7 -9 7c-8.66699 0 -13 -4.33301 -13 -13
c0 -9.33301 4.66699 -14 14 -14c3.33301 0 6 0.333008 8 1v7h-9v8h20v-21zM461.999 -0.000976562h-11v18h-22v-18h-11v43h11v-17h22v17h11v-43zM505.999 33.999h-14v-34h-12v34h-15v9h41v-9zM564.999 82.999h-25v79h25v-79zM667.999 85.999c-12 -3.33301 -25.667 -5 -41 -5
c-34 0 -51 13.667 -51 41s16.333 41 49 41c26.667 0 41 -9 43 -27h-26c-1.33301 7.33301 -7.33301 11 -18 11c-16 0 -24 -8 -24 -24c0 -17.333 9 -26 27 -26l16 2v14h-19v13h44v-40zM767.999 82.999h-23v32h-40v-32h-24v79h24v-31h40v31h23v-79zM863.999 143.999h-33v-61
h-23v61h-31v18h87v-18zM505.999 136.999c0 5.33301 -6 8 -18 8h-15v-19h15c12 0 18 3.66699 18 11zM530.999 82.999h-21.999l-5 20c-0.666992 6.66699 -6.33398 10 -17.001 10h-14v-30h-23v79h45c22.667 0 34 -7 34 -21c0 -8.66699 -5.66699 -15 -17 -19
c10 -2 15 -8.33301 15 -19zM650 12.999c0 -9.33301 -6.66699 -14 -20 -14c-12 0 -18 5.33301 -18 16h11c0 -4.66699 2.66699 -7 8 -7c4.66699 0 7 1.33301 7 4c0 0.666992 -4.16699 2.5 -12.5 5.5s-12.5 7.16699 -12.5 12.5c0 9.33301 6 14 18 14s18 -4.66699 18 -14h-11
c0 4 -2.33301 6 -7 6s-7 -1.66699 -7 -5c0 -2.66699 4.33301 -5 13 -7s13 -5.66699 13 -11zM809 -0.000976562h-33v43h33v-9h-21v-8h20v-8h-20v-9h21v-9zM608 8.99902v-9h-34v43h33v-9h-22v-8h21v-8h-21v-9h23zM156 108.999c-2 -20 -16.333 -30 -43 -30
c-31.333 0 -47 14.333 -47 43c0 28 16.333 42 49 42c24.667 0 38.334 -10 41.001 -30h-26c-0.666992 8.66699 -6.33398 13 -17.001 13c-15.333 0 -23 -8.33301 -23 -25s7.33301 -25 22 -25c11.333 0 17.333 4 18 12h26zM867 198.999h-809v25h809v-25zM562 405.999
c0 -52.667 -19.332 -91.3291 -57.999 -115.996c-30.667 -20 -70 -30 -118 -30c-40.667 0 -72.5 8.66699 -95.5 26s-34.5 41.666 -34.5 72.999c0 10.667 1.33301 21 4 31h38c-0.666992 -4.66699 -1 -10.334 -1 -17.001c0 -52.667 33 -79 99 -79c29.333 0 55.666 7 78.999 21
c30 18 45 43.667 45 77c0 25.333 -17.333 44.666 -52 57.999l-95 32c-34.667 14.667 -52 36 -52 64c0 45.333 17.333 80 52 104c30.667 20.667 70.334 31 119.001 31c33.333 0 59.833 -7 79.5 -21s29.5 -33.667 29.5 -59c0 -10 -1.66699 -21 -5 -33h-36
c1.33301 9.33301 2 15.666 2 18.999c0 40 -22 60 -66 60c-40 0 -71.833 -7.66699 -95.5 -23s-35.5 -36 -35.5 -62c0 -17.333 6 -30.333 18 -39s37.167 -18.5 75.5 -29.5s65.166 -23 80.499 -36s23 -30.167 23 -51.5zM947.001 675.004c0 -17.333 -5.66699 -31.333 -17 -42
s-25.666 -16 -42.999 -16c-16.667 0 -30.5 5.33301 -41.5 16s-16.5 24.667 -16.5 42s5.5 31.5 16.5 42.5s24.833 16.5 41.5 16.5c17.333 0 31.666 -5.5 42.999 -16.5s17 -25.167 17 -42.5zM938.001 674.004c0 14 -5 25.833 -15 35.5s-22 14.5 -36 14.5
c-13.333 0 -24.666 -4.83301 -33.999 -14.5s-14 -21.5 -14 -35.5s4.66699 -25.667 14 -35s20.666 -14 33.999 -14c14 0 26 4.66699 36 14s15 21 15 35zM557.001 30.0039c0 3.33301 -2.33301 5 -7 5h-7v-9h7c4.66699 0 7 1.33301 7 4zM569.001 32.0039
c0 -5.33301 -2.66699 -9.00098 -8 -11.001c4 -1.33301 7.33301 -8.33301 10 -21h-12c0 2.66699 -0.333008 5.33398 -1 8.00098c-2 6 -4.66699 9 -8 9h-7v-17h-12v43h22c10.667 0 16 -3.66699 16 -11zM702.001 26.0029h7c4.66699 0 7 1.33301 7 4c0 3.33301 -2.33301 5 -7 5
h-7v-9zM730.001 0.00292969l-12 -0.000976562c0 2.66699 -0.333008 5.33398 -1 8.00098c-2 6 -4.66699 9 -8 9h-7v-17h-10v43h21c10 0 15 -3.66699 15 -11c0 -5.33301 -2.66699 -9 -8 -11c4 -1.33301 7.33301 -8.33301 10 -21zM284.001 0.00195312h-32v43h10v-34h22v-9z" />
    <glyph glyph-name=".notdef" horiz-adv-x="692" 
d="M642 0h-592v809h592v-809zM612 28v753h-532v-753h532z" />
    <glyph glyph-name="space" unicode=" " horiz-adv-x="216" 
 />
    <glyph glyph-name="exclam" unicode="!" horiz-adv-x="147" 
d="M70 120h-32l68 355h47zM69 28c-2 -9.33301 -7.16602 -17.333 -15.499 -24s-17.166 -10 -26.499 -10s-16.5 3.33301 -21.5 10s-6.83301 14.667 -5.5 24c2 9.33301 7.16699 17.5 15.5 24.5s17.166 10.5 26.499 10.5s16.666 -3.5 21.999 -10.5s7 -15.167 5 -24.5z" />
    <glyph glyph-name="quotedbl" unicode="&#x22;" horiz-adv-x="208" 
d="M189 338h-27l25 161h47zM102 338h-27l25 161h47z" />
    <glyph glyph-name="numbersign" unicode="#" horiz-adv-x="403" 
d="M349 149h-72l-50 -149h-35l50 149h-128l-49 -149h-35l49 149h-64l7 31h68l39 119h-68l7 32h72l49 144h33l-48 -144h129l47 144h35l-48 -144h65l-7 -32h-69l-39 -119h69zM253 180l39 119h-129l-38 -119h128z" />
    <glyph glyph-name="dollar" unicode="$" horiz-adv-x="361" 
d="M293 133c-6 -26.667 -20.3389 -50.668 -43.0059 -72.001c-25.333 -23.333 -56.666 -38.333 -93.999 -45l-16 -74h-35l16 74c-42.667 0 -76.667 11.667 -102 35l25 31c22 -22.667 53 -34 93 -34c30 0 55.833 7.83301 77.5 23.5s34.834 35.5 39.501 59.5
c8.66699 38.667 -13.666 70.334 -66.999 95.001c-73.333 33.333 -104.666 74.666 -93.999 123.999c6 28.667 20.833 53 44.5 73s52.167 32.333 85.5 37l16 76h34l-16 -76c32.667 -2 61.334 -11.667 86.001 -29l-25 -32c-18.667 19.333 -46.667 29 -84 29
c-29.333 0 -53.666 -8.33301 -72.999 -25c-16 -13.333 -26 -29.333 -30 -48c-4 -20 -0.5 -36.5 10.5 -49.5s32.167 -27.167 63.5 -42.5c36 -17.333 60.667 -34.333 74 -51c16 -21.333 20.667 -47.666 14 -78.999z" />
    <glyph glyph-name="percent" unicode="%" horiz-adv-x="585" 
d="M511 476l-393 -485h-34l393 485h34zM275 334c-20 -94.667 -65.666 -142 -136.999 -142s-97 47.333 -77 142c20.667 94.667 66.667 142 138 142s96.666 -47.333 75.999 -142zM239.001 334c16 73.333 0.333984 110 -46.999 110s-79 -36.667 -95 -110
c-15.333 -73.333 0.666992 -110 48 -110s78.666 36.667 93.999 110zM536.002 139c-20 -94.667 -65.667 -142 -137 -142s-97 47.333 -77 142s65.667 142 137 142s97 -47.333 77 -142zM500.002 139c15.333 73.333 -0.666992 110 -48 110s-78.666 -36.667 -93.999 -110
s0.666992 -110 48 -110s78.666 36.667 93.999 110z" />
    <glyph glyph-name="ampersand" unicode="&#x26;" horiz-adv-x="423" 
d="M424 256c-34 -84.667 -68.666 -143.333 -103.999 -176c19.333 -25.333 41.666 -52 66.999 -80h-50l-45 53c-58 -41.333 -116 -62 -174 -62c-40 0 -71.167 13.167 -93.5 39.5s-29.5 58.833 -21.5 97.5c13.333 63.333 57.333 111.666 132 144.999
c-20.667 38 -28 72 -22 102c6.66699 32 23.167 59.667 49.5 83s57.5 35 93.5 35c29.333 0 51.5 -9.16699 66.5 -27.5s19.167 -41.833 12.5 -70.5c-11.333 -53.333 -61.333 -98.333 -150 -135c29.333 -42.667 68 -95.667 116 -159c29.333 30.667 58 82.334 86 155.001h37z
M300.001 391.001c4 19.333 2.00098 35.6689 -5.99902 49.002c-9.33301 15.333 -25.333 23 -48 23c-23.333 0 -43.833 -8.33301 -61.5 -25s-28.834 -36.334 -33.501 -59.001c-5.33301 -26 2 -57.333 22 -94c76.667 33.333 119 68.666 127 105.999zM274.002 77.0039
c-48 60.667 -89.6689 117.666 -125.002 170.999c-61.333 -29.333 -97 -67.666 -107 -114.999c-7.33301 -32.667 -2.16602 -59.167 15.501 -79.5s42.834 -30.5 75.501 -30.5c50 0 97 18 141 54z" />
    <glyph glyph-name="quotesingle" unicode="'" horiz-adv-x="120" 
d="M102 338h-27l25 161h46z" />
    <glyph glyph-name="parenleft" unicode="(" horiz-adv-x="190" 
d="M113 -58l-37.999 -0.000976562c-56 80.667 -72.333 178 -49 292c23.333 108 81.333 207.333 174 298h40c-93.333 -85.333 -152 -184.666 -176 -297.999c-22.667 -106 -6.33398 -203.333 48.999 -292z" />
    <glyph glyph-name="parenright" unicode=")" horiz-adv-x="190" 
d="M176 237c-23.333 -110.667 -81.333 -209 -174 -295h-37c93.333 92.667 151 191 173 295c22 105.333 6 203.666 -48 294.999h38c56 -83.333 72 -181.666 48 -294.999z" />
    <glyph glyph-name="asterisk" unicode="*" horiz-adv-x="285" 
d="M299 356l-101 9l46 -86l-38 -21l-32 99l-73 -99l-28 21l82 86l-105 -9l8 38l102 -7l-46 85l43 22l28 -92l67 92l33 -22l-82 -85l104 7z" />
    <glyph glyph-name="plus" unicode="+" horiz-adv-x="411" 
d="M365 165h-150l-35 -165h-35l35 165h-150l7 33h150l33 159h35l-33 -159h150z" />
    <glyph glyph-name="comma" unicode="," horiz-adv-x="162" 
d="M85 27c-8.66699 -36 -26.332 -67.667 -52.999 -95c-18 -19.333 -36 -33 -54 -41l-10 15c38.667 23.333 63.667 52.333 75 87c-10.667 0 -19 3.66699 -25 11s-8 16 -6 26s7.5 18.833 16.5 26.5s18.5 11.5 28.5 11.5c10.667 0 18.667 -4 24 -12
s6.66602 -17.667 3.99902 -29z" />
    <glyph glyph-name="hyphen" unicode="-" horiz-adv-x="216" 
d="M179 165h-174l14 33h174z" />
    <glyph glyph-name="hyphen" unicode="&#xad;" horiz-adv-x="216" 
d="M179 165h-174l14 33h174z" />
    <glyph glyph-name="period" unicode="." horiz-adv-x="162" 
d="M77 28c-2 -9.33301 -7.16699 -17.333 -15.5 -24s-17.166 -10 -26.499 -10s-16.666 3.33301 -21.999 10s-7 14.667 -5 24s7.16699 17.5 15.5 24.5s17.166 10.5 26.499 10.5s16.666 -3.5 21.999 -10.5s7 -15.167 5 -24.5z" />
    <glyph glyph-name="slash" unicode="/" horiz-adv-x="270" 
d="M339 493l-368 -522h-38l365 522h41z" />
    <glyph glyph-name="zero" unicode="0" horiz-adv-x="362" 
d="M335 227c-12 -55.333 -33.333 -105.667 -64 -151c-40 -58 -85.333 -87 -136 -87c-51.333 0 -84.333 29 -99 87c-12 44.667 -12 95 0 151c14 67.333 37.667 124.333 71 171c38.667 54 82.667 81 132 81s82 -27 98 -81c12.667 -46.667 12 -103.667 -2 -171zM295 227.999
c12 58 14.001 107 6.00098 147c-10 46.667 -33 70 -69 70c-36.667 0 -70 -23.333 -100 -70c-24.667 -39.333 -43.334 -88.333 -56.001 -147c-10 -48 -11.333 -91.333 -4 -130c9.33301 -50 32.666 -75 69.999 -75c36.667 0 70.334 25 101.001 75c24.667 38.667 42 82 52 130z
" />
    <glyph glyph-name="one" unicode="1" horiz-adv-x="362" 
d="M244 0h-190.001l7 36h75l81 381l-89 -65l-16 25l136 101c14.667 0 19.334 -12.667 14.001 -38l-86 -404h75z" />
    <glyph glyph-name="two" unicode="2" horiz-adv-x="362" 
d="M300 39l-15.998 -39h-301c6.66699 16.667 15.334 35.667 26.001 57l114.5 94c41.667 33.333 89.5 75.666 143.5 126.999c27.333 28.667 43.666 56 48.999 82s1.16602 46 -12.501 60s-33.834 21 -60.501 21c-60 0 -100.333 -30 -121 -90l-34 10
c12.667 38.667 34.334 68.334 65.001 89.001c28 18.667 61 28 99 28c37.333 0 65.666 -11.5 84.999 -34.5s25.333 -51.833 18 -86.5c-10.667 -50.667 -64 -114.334 -160 -191.001c-70 -57.333 -120 -99.666 -150 -126.999h255z" />
    <glyph glyph-name="three" unicode="3" horiz-adv-x="362" 
d="M319 161c-10.667 -50.667 -36.6709 -91.667 -78.0039 -123s-89.666 -47.666 -144.999 -48.999c-44 -1.33301 -77 11 -99 37l23 31c20.667 -18.667 51 -28 91 -28c38.667 0 74.334 13 107.001 39s52.667 56.333 60 91c6 26 2.83301 47.667 -9.5 65s-30.833 26 -55.5 26
c-28.667 0 -52.667 -7.66699 -72 -23l-12 32l88 59c44.667 32 69 57 73 75c6.66699 32.667 -12.666 49 -57.999 49c-50 0 -92.333 -25 -127 -75l-25 15c16.667 29.333 39.834 52.666 69.501 69.999s60.834 26 93.501 26c28 0 50.5 -7.5 67.5 -22.5s22.5 -35.5 16.5 -61.5
c-6.66699 -30.667 -41.667 -66.667 -105 -108h6c35.333 0 61.166 -11.833 77.499 -35.5s20.833 -53.5 13.5 -89.5z" />
    <glyph glyph-name="four" unicode="4" horiz-adv-x="362" 
d="M222 148l61 289.001c-50.667 -22.667 -97 -62.334 -139 -119.001c-40 -54 -67 -110.667 -81 -170h159zM320 111.001l-65.999 -0.000976562l-23 -111h-40l23 111h-202c22.667 99.333 63.167 183.333 121.5 252s125.166 110.334 200.499 125.001l-72 -340h71z" />
    <glyph glyph-name="five" unicode="5" horiz-adv-x="362" 
d="M309 164c-10.667 -51.333 -36.668 -92.833 -78.001 -124.5s-89.333 -47.5 -144 -47.5c-46 0 -79 12.333 -99 37l22 31c8 -6 17 -11.667 27 -17c16.667 -8.66699 38.667 -13 66 -13c36 0 70.333 11.667 103 35s53.334 56 62.001 98c8 36 1.66699 63 -19 81
c-16.667 16 -41 24 -73 24c-28 0 -52.667 -11 -74 -33l-21 -2l66 242h213l-15 -38h-168l-39 -141c19.333 6.66699 39 10 59 10c38.667 0 69 -12 91 -36c23.333 -26.667 30.333 -62 21 -106z" />
    <glyph glyph-name="six" unicode="6" horiz-adv-x="362" 
d="M309 145c-8.66699 -43.333 -28.333 -79.666 -59 -108.999s-67 -44 -109 -44c-47.333 0 -81 18 -101 54c-17.333 32 -20.666 72.333 -9.99902 121c16 76.667 54.167 145.167 114.5 205.5s128.5 97.5 204.5 111.5l-3 -29c-47.333 -12.667 -93 -36.334 -137 -71.001
c-49.333 -38.667 -87.333 -84.667 -114 -138c4.66699 10 16.667 20.667 36 32c24 13.333 50 20 78 20c39.333 0 68.166 -15 86.499 -45s22.833 -66 13.5 -108zM269.001 145c7.33301 33.333 4.49902 61.666 -8.50098 84.999s-35.167 35 -66.5 35
c-28.667 0 -55.5 -11.667 -80.5 -35s-41.167 -51.666 -48.5 -84.999c-6.66699 -32.667 -2.5 -60.667 12.5 -84s36.833 -35 65.5 -35c32 0 59.333 11.667 82 35s37.334 51.333 44.001 84z" />
    <glyph glyph-name="seven" unicode="7" horiz-adv-x="362" 
d="M130 0l-42.001 0.000976562c21.333 100.667 61.666 197 120.999 289c14 21.333 36.333 51.166 67 89.499s46.334 57.833 47.001 58.5h-241l23 38h281l-16 -40c-57.333 -58.667 -106.666 -122.167 -147.999 -190.5s-72 -149.833 -92 -244.5z" />
    <glyph glyph-name="eight" unicode="8" horiz-adv-x="362" 
d="M271 125c5.33301 26 1.50098 50.833 -11.499 74.5s-37.167 36.5 -72.5 38.5c-36 -2 -65.5 -14.833 -88.5 -38.5s-37.167 -48.5 -42.5 -74.5c-6 -30 -0.833008 -53.833 15.5 -71.5s40.166 -26.5 71.499 -26.5c30.667 0 58.167 8.83301 82.5 26.5s39.5 41.5 45.5 71.5z
M306.001 361c5.33301 23.333 1.16797 42.666 -12.499 57.999s-34.5 23 -62.5 23c-28.667 0 -52.834 -7.66699 -72.501 -23s-32.167 -34.666 -37.5 -57.999c-8.66699 -41.333 16 -69.666 74 -84.999c65.333 15.333 102.333 43.666 111 84.999zM312.003 128
c-9.33301 -42.667 -29.8281 -76 -61.4951 -100s-70.167 -36 -115.5 -36c-44.667 0 -77.834 12 -99.501 36s-27.834 57.333 -18.501 100c6.66699 32.667 22 60.834 46 84.501s51.333 38.5 82 44.5c-23.333 7.33301 -41 20.5 -53 39.5s-15.667 39.5 -11 61.5
c7.33301 35.333 25.666 64.333 54.999 87s63.666 34 102.999 34c38.667 0 68 -11.333 88 -34s26.333 -51.667 19 -87c-4.66699 -22 -17.334 -42.5 -38.001 -61.5s-44 -32.167 -70 -39.5c28 -6 49 -20.833 63 -44.5s17.667 -51.834 11 -84.501z" />
    <glyph glyph-name="nine" unicode="9" horiz-adv-x="362" 
d="M343 305c-16 -76.667 -54.165 -145.167 -114.498 -205.5s-128.5 -97.5 -204.5 -111.5l3 29c47.333 12.667 93 36.334 137 71.001c50 38.667 88.333 84.667 115 138c-5.33301 -10 -17.333 -20.667 -36 -32c-24.667 -13.333 -51 -20 -79 -20c-39.333 0 -68 15 -86 45
s-22.667 66 -14 108c9.33301 43.333 29.333 79.666 60 108.999s67 44 109 44c47.333 0 80.666 -18 99.999 -54c17.333 -32 20.666 -72.333 9.99902 -121zM308.002 327c6.66699 32.667 2.50098 60.667 -12.499 84s-36.833 35 -65.5 35c-32 0 -59.333 -11.667 -82 -35
s-37.334 -51.333 -44.001 -84c-7.33301 -33.333 -4.5 -61.666 8.5 -84.999s35.167 -35 66.5 -35c28.667 0 55.5 11.667 80.5 35s41.167 51.666 48.5 84.999z" />
    <glyph glyph-name="colon" unicode=":" horiz-adv-x="162" 
d="M77 28c-2 -9.33301 -7.16699 -17.333 -15.5 -24s-17.166 -10 -26.499 -10s-16.666 3.33301 -21.999 10s-7 14.667 -5 24s7.16699 17.5 15.5 24.5s17.166 10.5 26.499 10.5s16.666 -3.5 21.999 -10.5s7 -15.167 5 -24.5zM132 283c-2 -9.33301 -7.33301 -17.333 -16 -24
s-17.667 -10 -27 -10s-16.5 3.33301 -21.5 10s-6.5 14.667 -4.5 24s7 17.5 15 24.5s16.667 10.5 26 10.5s16.833 -3.5 22.5 -10.5s7.5 -15.167 5.5 -24.5z" />
    <glyph glyph-name="semicolon" unicode=";" horiz-adv-x="162" 
d="M85 27c-8.66699 -36 -26.332 -67.667 -52.999 -95c-18 -19.333 -36 -33 -54 -41l-10 15c38.667 23.333 63.667 52.333 75 87c-10.667 0 -19 3.66699 -25 11s-8 16 -6 26s7.5 18.833 16.5 26.5s18.5 11.5 28.5 11.5c10.667 0 18.667 -4 24 -12
s6.66602 -17.667 3.99902 -29zM132.002 283c-2 -9.33301 -7.33301 -17.333 -16 -24s-17.667 -10 -27 -10s-16.5 3.33301 -21.5 10s-6.5 14.667 -4.5 24s7 17.5 15 24.5s16.667 10.5 26 10.5s16.833 -3.5 22.5 -10.5s7.5 -15.167 5.5 -24.5z" />
    <glyph glyph-name="less" unicode="&#x3c;" horiz-adv-x="411" 
d="M330 36l-8 -38l-285 176l6 27l360 176l-8 -37l-315 -153z" />
    <glyph glyph-name="equal" unicode="=" horiz-adv-x="411" 
d="M369 265l-7 -33h-301l7 33h301zM341 135l-7 -33h-301l7 33h301z" />
    <glyph glyph-name="greater" unicode="&#x3e;" horiz-adv-x="411" 
d="M365 201l-6 -27l-359 -176l8 38l314 152l-249 152l8 37z" />
    <glyph glyph-name="question" unicode="?" horiz-adv-x="283" 
d="M121 123l-34.001 -0.000976562c-1.33301 10 -0.666016 21.667 2.00098 35c7.33301 35.333 33.5 73.333 78.5 114s70.5 75.334 76.5 104.001c10.667 48 -11.333 72 -66 72c-31.333 0 -60 -8.66699 -86 -26l-8 30c36 20.667 72 31 108 31c38 0 64.667 -11 80 -33
c14 -19.333 18 -43.333 12 -72c-7.33301 -35.333 -37 -75.333 -89 -120c-40 -34.667 -63.667 -69 -71 -103c-2 -12 -3 -22.667 -3 -32zM115.999 27.999c-2 -9.33301 -7.16699 -17.333 -15.5 -24s-17.166 -10 -26.499 -10s-16.666 3.33301 -21.999 10s-7 14.667 -5 24
s7.16699 17.5 15.5 24.5s17.166 10.5 26.499 10.5s16.666 -3.5 21.999 -10.5s7 -15.167 5 -24.5z" />
    <glyph glyph-name="at" unicode="@" horiz-adv-x="536" 
d="M504 176c-10 -45.333 -32.3301 -83.9971 -66.9971 -115.997s-68.667 -49 -102 -51l-31 -2v45c-34 -34 -73 -51 -117 -51c-8 0 -14.333 0.333008 -19 1c-20.667 3.33301 -36.834 12.666 -48.501 27.999s-15.5 33 -11.5 53c16 74.667 90.667 112 224 112l1 5
c12 56.667 -9 85 -63 85c-29.333 0 -56 -8 -80 -24l-6 25c30 19.333 61.333 29 94 29c76 0 105 -42.333 87 -127l-22 -107c-3.33301 -14.667 -5 -28.334 -5 -41.001c26 1.33301 52.5 15 79.5 41s44.167 56.667 51.5 92c12 55.333 4.5 101.166 -22.5 137.499
s-70.167 54.5 -129.5 54.5c-62.667 0 -119 -20.667 -169 -62c-53.333 -44 -87.333 -100.667 -102 -170c-12.667 -57.333 -4.66699 -104.833 24 -142.5s70 -56.5 124 -56.5c46 0 87.333 10 124 30l8 -29c-44.667 -21.333 -91.667 -32 -141 -32
c-62.667 0 -111.334 21.333 -146.001 64s-45.334 97 -32.001 163c15.333 72.667 51.666 134 108.999 184c60.667 53.333 131.334 80 212.001 80c66.667 0 116 -20.667 148 -62s41.333 -93.333 28 -156zM313.003 105.003l13 61c-109.333 -1.33301 -169.333 -27 -180 -77
c-8 -40 8.33301 -60 49 -60c48 0 85.667 21 113 63c2 2.66699 3.66699 7 5 13z" />
    <glyph glyph-name="A" unicode="A" horiz-adv-x="400" 
d="M357 0h-43l-23 153h-205l-86 -153h-43l282 483h40zM286 186l-36 254l-145 -254h181z" />
    <glyph glyph-name="B" unicode="B" horiz-adv-x="378" 
d="M331 133c-20 -92.667 -96.998 -138.999 -230.998 -138.999c-29.333 0 -59 3.33301 -89 10l99 465c35.333 8.66699 69.666 13 102.999 13c115.333 0 164.333 -40 147 -120c-4.66699 -24 -16.334 -45.833 -35.001 -65.5s-41 -33.834 -67 -42.501
c23.333 -6 43 -19.5 59 -40.5s20.667 -47.833 14 -80.5zM321.002 361.001c12.667 58.667 -25.665 88 -114.998 88c-20.667 0 -41.667 -2.33301 -63 -7l-37 -174h81c35.333 0 65.666 9.33301 90.999 28c23.333 17.333 37.666 39 42.999 65zM293.003 132.001
c7.33301 35.333 -1.00098 61.499 -25.001 78.499s-57 25.5 -99 25.5h-69l-44 -204c17.333 -4 37 -6 59 -6c42.667 0 79.334 7.66699 110.001 23c37.333 18.667 60 46.334 68 83.001z" />
    <glyph glyph-name="C" unicode="C" horiz-adv-x="406" 
d="M334 50l5 -31.999c-38.667 -16.667 -83.667 -25 -135 -25c-64.667 0 -113.5 23.167 -146.5 69.5s-42.167 105.166 -27.5 176.499c15.333 71.333 49.333 129.833 102 175.5s111.334 68.5 176.001 68.5c51.333 0 93 -8.33301 125 -25l-19 -32
c-32.667 15.333 -69.667 23 -111 23c-51.333 0 -99 -19 -143 -57c-46.667 -40 -76.667 -91.333 -90 -154s-5.33301 -114 24 -154c28 -38 67.667 -57 119 -57c41.333 0 81.666 7.66699 120.999 23z" />
    <glyph glyph-name="D" unicode="D" horiz-adv-x="431" 
d="M411 248c-35.333 -168 -128.332 -252 -278.999 -252c-20 0 -60 3 -120 9l98 464c63.333 8 111.666 12 144.999 12c60.667 0 105.667 -20.333 135 -61c29.333 -42.667 36.333 -100 21 -172zM372.001 248c13.333 63.333 7.33203 113 -18.001 149
c-23.333 33.333 -59.666 50 -108.999 50c-20.667 0 -54.667 -2.66699 -102 -8l-86 -403c32.667 -4 64 -6 94 -6c54 0 100.667 19.167 140 57.5s66.333 91.833 81 160.5z" />
    <glyph glyph-name="E" unicode="E" horiz-adv-x="351" 
d="M270 0h-259l101 476h259l-7 -33h-220l-38 -175h196l-7 -33h-196l-42 -202h220z" />
    <glyph glyph-name="F" unicode="F" horiz-adv-x="351" 
d="M313 229h-215l-48 -229h-39l101 476h269l-7 -33h-230l-39 -181h215z" />
    <glyph glyph-name="G" unicode="G" horiz-adv-x="425" 
d="M390 238l-47.9971 -228.001c-4.66699 4 -11.334 6 -20.001 6l-61.5 -10.5c-41 -7 -68.167 -10.5 -81.5 -10.5c-60.667 0 -104.5 22.167 -131.5 66.5s-32.833 103.5 -17.5 177.5c15.333 70.667 46.666 128 93.999 172c49.333 46.667 108 70 176 70
c48.667 0 89.667 -8 123 -24l-19 -32c-36.667 15.333 -74.334 23 -113.001 23c-50 0 -96 -19.667 -138 -59s-69.667 -89.666 -83 -150.999c-14 -65.333 -10.5 -116.833 10.5 -154.5s58.167 -56.5 111.5 -56.5c42 0 82.333 8.33301 121 25l32 154h-121l7 32h159z" />
    <glyph glyph-name="H" unicode="H" horiz-adv-x="441" 
d="M344 0h-39l50 237h-255l-50 -237h-39l101 476h39l-44 -206h255l44 206h39z" />
    <glyph glyph-name="I" unicode="I" horiz-adv-x="147" 
d="M50 0h-39l101 476h39z" />
    <glyph glyph-name="J" unicode="J" horiz-adv-x="264" 
d="M200 156c-23.333 -110 -81.6689 -164.999 -175.002 -164.999c-25.333 0 -47.666 5 -66.999 15l16 31c14 -8 33.333 -12 58 -12c34.667 0 62.334 10.167 83.001 30.5s36.667 57.166 48 110.499l66 310h39z" />
    <glyph glyph-name="K" unicode="K" horiz-adv-x="376" 
d="M348 9l-38 -14l-157 253l-62 -51l-41 -197h-39l101 476h39l-49 -229l287 235l37 -11l-240 -198z" />
    <glyph glyph-name="L" unicode="L" horiz-adv-x="353" 
d="M284 0h-273l101 476h39l-94 -443h234z" />
    <glyph glyph-name="M" unicode="M" horiz-adv-x="548" 
d="M465 0h-37l59 420l-243 -420h-26l-65 420l-119 -420h-37l134 476h46l64 -427l246 427h46z" />
    <glyph glyph-name="N" unicode="N" horiz-adv-x="441" 
d="M344 0h-41l-163 421l-89 -421h-40l101 476h45l161 -415l89 415h38z" />
    <glyph glyph-name="O" unicode="O" horiz-adv-x="486" 
d="M471 237c-15.333 -71.333 -48.499 -130.333 -99.499 -177s-109.167 -70 -174.5 -70s-113.5 23.333 -144.5 70s-38.833 105.667 -23.5 177s48.333 130.333 99 177s108.667 70 174 70s113.666 -23.333 144.999 -70s39.333 -105.667 24 -177zM432.001 237
c12.667 58.667 6.33398 108.834 -18.999 150.501s-64.666 62.5 -117.999 62.5s-101.333 -20.833 -144 -62.5s-70.334 -91.834 -83.001 -150.501s-6.33398 -108.834 18.999 -150.501s64.666 -62.5 117.999 -62.5s101.333 20.833 144 62.5s70.334 91.834 83.001 150.501z" />
    <glyph glyph-name="P" unicode="P" horiz-adv-x="378" 
d="M375 344c-10.667 -50 -39.001 -88.668 -85.001 -116.001c-39.333 -23.333 -85 -34.666 -137 -33.999c-21.333 0 -41.666 2 -60.999 6l-42 -200h-39l100 471c41.333 6.66699 80.333 10 117 10c48 0 86 -11 114 -33c31.333 -25.333 42.333 -60 33 -104zM336.999 340.999
c15.333 70.667 -23.666 106 -116.999 106c-33.333 0 -59 -1.66699 -77 -5l-44 -208c17.333 -4.66699 40.333 -7 69 -7c97.333 5.33301 153.666 43.333 168.999 114z" />
    <glyph glyph-name="Q" unicode="Q" horiz-adv-x="487" 
d="M471 237c-12 -57.333 -36.667 -107.666 -74 -150.999c-39.333 -45.333 -85.666 -74.333 -138.999 -87c36 -16.667 79.333 -26.334 130 -29.001l-22 -37c-62.667 15.333 -119 34.333 -169 57c-65.333 0 -113.5 23.333 -144.5 70s-38.833 105.667 -23.5 177
s48.333 130.333 99 177s108.667 70 174 70s113.666 -23.333 144.999 -70s39.333 -105.667 24 -177zM432 237c12.667 58.667 6.33398 108.834 -18.999 150.501s-64.666 62.5 -117.999 62.5s-101.333 -20.833 -144 -62.5s-70.334 -91.834 -83.001 -150.501
s-6.33398 -108.834 18.999 -150.501s64.666 -62.5 117.999 -62.5s101.333 20.833 144 62.5s70.334 91.834 83.001 150.501z" />
    <glyph glyph-name="R" unicode="R" horiz-adv-x="379" 
d="M315 0l-37.998 0.000976562c12.667 144.667 -17 217 -89 217h-92l-46 -217h-39l99 470c39.333 7.33301 79.333 11 120 11c51.333 -0.666992 89.666 -10.667 114.999 -30c30 -22.667 40.667 -55.334 32 -98.001c-12.667 -59.333 -52.334 -100.333 -119.001 -123
c31.333 -19.333 50.333 -55.333 57 -108c3.33301 -27.333 3.33301 -68 0 -122zM338.002 348.001c14.667 66 -23.666 99 -114.999 99c-36.667 0 -63.334 -2.33301 -80.001 -7l-41 -192h89c39.333 0 72 8.83301 98 26.5s42.333 42.167 49 73.5z" />
    <glyph glyph-name="S" unicode="S" horiz-adv-x="352" 
d="M303 124c-8 -36 -27.334 -66.001 -58.001 -90.001c-35.333 -28.667 -79.333 -43 -132 -43c-52 0 -93 12 -123 36l22 34c28 -24.667 65.333 -37 112 -37c37.333 0 68.5 8.83301 93.5 26.5s40.5 41.167 46.5 70.5c6 26.667 2.5 48.167 -10.5 64.5s-37.167 30.5 -72.5 42.5
c-82.667 28.667 -117.667 73.334 -105 134.001c8 35.333 28.167 64.666 60.5 87.999s70.5 35 114.5 35c44.667 0 79 -8.33301 103 -25c-8 -11.333 -15.667 -21.666 -23 -30.999c-25.333 15.333 -54.666 23 -87.999 23c-37.333 0 -68.333 -9.66699 -93 -29
c-19.333 -16 -31 -34.667 -35 -56c-10 -44 18 -78 84 -102c42.667 -16 72 -33.333 88 -52c18.667 -22 24 -51.667 16 -89z" />
    <glyph glyph-name="T" unicode="T" horiz-adv-x="379" 
d="M435 443h-175l-94 -443h-38l94 443h-176l7 33h389z" />
    <glyph glyph-name="U" unicode="U" horiz-adv-x="466" 
d="M411 201c-29.333 -140 -103.667 -210 -223 -210s-164.333 70 -135 210l59 275h39l-59 -274c-13.333 -62.667 -10 -108 10 -136s51 -42 93 -42c42.667 0 79.667 14 111 42s53.333 73.333 66 136l59 274h39z" />
    <glyph glyph-name="V" unicode="V" horiz-adv-x="390" 
d="M448 476l-275 -476h-42l-73 476h44l59 -431l243 431h44z" />
    <glyph glyph-name="W" unicode="W" horiz-adv-x="588" 
d="M646 476l-245 -476h-42l-17 432l-199 -432h-42l-43 476h44l29 -431l199 431h44l15 -431l213 431h44z" />
    <glyph glyph-name="X" unicode="X" horiz-adv-x="418" 
d="M358 0h-46l-101 215l-191 -215h-46l220 244l-112 232h47l93 -208l183 208h47l-212 -232z" />
    <glyph glyph-name="Y" unicode="Y" horiz-adv-x="366" 
d="M424 476l-221 -266l-44 -210h-38l44 209l-107 267h45l88 -233l188 233h45z" />
    <glyph glyph-name="Z" unicode="Z" horiz-adv-x="424" 
d="M372 33l-15 -33h-378l6 26l411 417h-303l13 33h347l-6 -27l-410 -416h335z" />
    <glyph glyph-name="bracketleft" unicode="[" horiz-adv-x="196" 
d="M131 -48l-6 -30h-132l123 584h133l-6 -30h-98l-112 -524h98z" />
    <glyph glyph-name="backslash" unicode="\" horiz-adv-x="262" 
d="M230 -28h-40l-140 511h39z" />
    <glyph glyph-name="bracketright" unicode="]" horiz-adv-x="196" 
d="M85 -78h-133l6 30h97l112 524h-98l6 30h134z" />
    <glyph glyph-name="asciicircum" unicode="^" horiz-adv-x="412" 
d="M282 480l75 -321h-37l-65 283l-185 -283h-37l213 321h36z" />
    <glyph glyph-name="underscore" unicode="_" horiz-adv-x="352" 
d="M276 -152l-6 -31h-351l6 31h351z" />
    <glyph glyph-name="grave" unicode="`" horiz-adv-x="204" 
d="M187 390h-31l-40 81l41 10z" />
    <glyph glyph-name="a" unicode="a" horiz-adv-x="398" 
d="M320 69c-6 -26.667 -4.99902 -49.333 3.00098 -68l-39 -8c-7.33301 24 -9 47 -5 69c-36.667 -48 -83.667 -72 -141 -72c-38.667 0 -68.667 11.167 -90 33.5s-32 52.166 -32 89.499c0 58.667 19 111.334 57 158.001c40 50 88.667 75 146 75
c59.333 0.666992 109.666 -16 150.999 -50zM296.001 143.001l31 136.001c-34 23.333 -68.333 35 -103 35c-48.667 -0.666992 -90 -22.334 -124 -65.001c-30.667 -40 -46 -83.667 -46 -131c0 -29.333 8.5 -52.833 25.5 -70.5s40.833 -26.5 71.5 -26.5
c34 0 64.833 12.167 92.5 36.5s45.167 52.833 52.5 85.5z" />
    <glyph glyph-name="b" unicode="b" horiz-adv-x="401" 
d="M366 174c-11.333 -54.667 -34.8311 -98.833 -70.498 -132.5s-77.834 -50.5 -126.501 -50.5c-45.333 0 -79.166 11 -101.499 33s-33.5 50.333 -33.5 85c0 11.333 1.33301 22.333 4 33l78 363h39l-49 -230c39.333 48 87.333 72 144 72c47.333 0 81.166 -16.333 101.499 -49
s25.166 -74 14.499 -124zM328.002 173.001c9.33301 42 6.16699 76.333 -9.5 103s-42.834 40 -81.501 40c-32 0 -62 -11 -90 -33c-31.333 -23.333 -50.666 -53 -57.999 -89l-14 -65c-6.66699 -32 -0.666992 -57.5 18 -76.5s44.667 -28.5 78 -28.5
c84 0 136.333 49.667 157 149z" />
    <glyph glyph-name="c" unicode="c" horiz-adv-x="331" 
d="M264 47l7.99902 -32c-32 -16 -68.667 -24 -110 -24c-56 0 -96.667 16.167 -122 48.5s-32.333 75.5 -21 129.5c12 54 37.333 97.167 76 129.5s86 48.5 142 48.5c41.333 0 74.666 -8 99.999 -24l-21 -32c-21.333 16 -50.666 24 -87.999 24
c-40.667 0 -76.834 -13 -108.501 -39s-52.5 -61.667 -62.5 -107c-9.33301 -45.333 -3.66602 -81 17.001 -107s51.334 -39 92.001 -39c37.333 0 70 8 98 24z" />
    <glyph glyph-name="d" unicode="d" horiz-adv-x="401" 
d="M323 83c-5.33301 -24.667 -5.33008 -52.001 0.00292969 -82.001l-39 -8c-3.33301 22.667 -4 44.667 -2 66c-40 -45.333 -86.667 -68 -140 -68c-48.667 0 -83.834 16.833 -105.501 50.5s-26.834 77.834 -15.501 132.501c10.667 50 33.167 91.333 67.5 124
s75.166 49 122.499 49c56.667 0 94.667 -24 114 -72l49 230h39zM295.003 135.999l13.001 57c7.33301 36.667 0.666016 66.667 -20.001 90c-18.667 22 -44 33 -76 33c-38.667 0 -71.5 -13.333 -98.5 -40s-45.167 -61 -54.5 -103c-20.667 -99.333 11 -149 95 -149
c33.333 0 63.5 10.667 90.5 32s43.833 48 50.5 80z" />
    <glyph glyph-name="e" unicode="e" horiz-adv-x="374" 
d="M344 253c0 -79.333 -67.667 -118.998 -203 -118.998c-24.667 0 -53.667 1.33301 -87 4c-0.666992 -5.33301 -1 -10.333 -1 -15c0 -65.333 38 -98 114 -98c38.667 0 80 7.66699 124 23l-4 -33c-42 -16 -85.667 -24 -131 -24c-43.333 0 -78 11.667 -104 35
s-39 54.666 -39 93.999c0 63.333 22.333 117.666 67 162.999c42.667 42.667 91.667 64 147 64c78 0 117 -31.333 117 -94zM309 254.002c0 41.333 -27.333 62 -82 62c-34 0 -67.667 -13.667 -101 -41c-35.333 -29.333 -58.666 -64.333 -69.999 -105
c27.333 -2 51.666 -3 72.999 -3c120 0 180 29 180 87z" />
    <glyph glyph-name="f" unicode="f" horiz-adv-x="206" 
d="M221 309h-98.001l-64 -305c-23.333 -106.667 -75.333 -160 -156 -160c-25.333 0 -43 5.33301 -53 16l17 28c12.667 -7.33301 28 -11 46 -11c53.333 0 89 42.333 107 127l64 305h-57l7 31h58l3 13c22.667 106.667 74.334 160 155.001 160c25.333 0 43 -5.33301 53 -16
l-17 -28c-12.667 7.33301 -28 11 -46 11c-53.333 0 -89 -42.333 -107 -127l-3 -13h98z" />
    <glyph glyph-name="g" unicode="g" horiz-adv-x="311" 
d="M280 228c-8 -37.333 -25.8369 -67 -53.5039 -89s-58.5 -33 -92.5 -33c-20.667 0 -37.667 3.66699 -51 11c-6 -10 -10 -19.667 -12 -29c-3.33301 -17.333 20.334 -33.666 71.001 -48.999c60 -18 85 -50.667 75 -98c-6 -28.667 -21.333 -52.167 -46 -70.5
s-57 -27.5 -97 -27.5c-35.333 0 -65.333 9 -90 27l20 32c24.667 -16.667 51.334 -25 80.001 -25c24.667 0 46.334 5.66699 65.001 17s29.667 26 33 44c7.33301 32 -13.667 56.667 -63 74c-30 10 -50 19 -60 27c-18 12.667 -25 29 -21 49c2.66699 12 9.33398 28 20.001 48
c-18.667 26.667 -25 55 -19 85c8 36 25.667 65 53 87s56.333 33 87 33h133l-7 -32l-48 5c22 -26.667 29.667 -55.334 23 -86.001zM244.996 223c4.66699 22 1.66895 41.334 -8.99805 58.001c-11.333 20 -30.666 30 -57.999 30c-26.667 0 -49.334 -8.83301 -68.001 -26.5
s-30.334 -38.5 -35.001 -62.5c-6 -26.667 -1.66699 -48 13 -64c13.333 -14.667 30.666 -22 51.999 -22c24 0 46 7.66699 66 23s33 36.666 39 63.999z" />
    <glyph glyph-name="h" unicode="h" horiz-adv-x="390" 
d="M312 1l-39.0039 -8c-7.33301 22.667 -8.66602 45 -3.99902 67l28 133c16.667 81.333 -9 122 -77 122c-27.333 0 -54.166 -11.5 -80.499 -34.5s-42.5 -47.833 -48.5 -74.5l-43 -206h-39l107 505h39l-48 -226c36.667 45.333 79.334 68 128.001 68
c88.667 0 122.334 -51.333 101.001 -154l-27 -124c-5.33301 -28 -4.33301 -50.667 3 -68z" />
    <glyph glyph-name="i" unicode="i" horiz-adv-x="143" 
d="M48 0h-39l72 340h39zM153 443c-2 -9.33301 -6.66895 -16.833 -14.002 -22.5s-15.666 -8.5 -24.999 -8.5s-16.166 2.83301 -20.499 8.5s-5.5 13.167 -3.5 22.5s6.33301 17 13 23s14.667 9 24 9s16.5 -3 21.5 -9s6.5 -13.667 4.5 -23z" />
    <glyph glyph-name="j" unicode="j" horiz-adv-x="155" 
d="M61 7c-22.667 -101.333 -80.334 -153 -173.001 -155l3 31c46.667 4 80.334 20 101.001 48c13.333 19.333 24 48.333 32 87l69 322h39zM165 443c-2 -9.33301 -6.66895 -16.833 -14.002 -22.5s-15.666 -8.5 -24.999 -8.5s-16.166 2.83301 -20.499 8.5
s-5.5 13.167 -3.5 22.5s6.33301 17 13 23s14.667 9 24 9s16.5 -3 21.5 -9s6.5 -13.667 4.5 -23z" />
    <glyph glyph-name="k" unicode="k" horiz-adv-x="316" 
d="M284 1l-42 -11l-122 187l-42 -34l-30 -143h-39l107 505h39l-68 -318l203 158l38 -8l-175 -138z" />
    <glyph glyph-name="l" unicode="l" horiz-adv-x="200" 
d="M144 27l-11.001 -33.999c-83.333 4 -112.666 63.333 -87.999 178l71 334h39l-68 -319c-10 -48.667 -13 -84 -9 -106c5.33301 -34.667 27.333 -52.334 66 -53.001z" />
    <glyph glyph-name="m" unicode="m" horiz-adv-x="601" 
d="M520 69c-5.33301 -28 -4.33203 -50.668 3.00098 -68.001l-39 -8c-7.33301 22.667 -8.66602 45 -3.99902 67l26 128c8.66699 38.667 7.5 69.5 -3.5 92.5s-31.5 34.5 -61.5 34.5c-26 0 -51 -10.167 -75 -30.5s-38.667 -43.166 -44 -68.499l-45 -216h-39l43 206
c15.333 72.667 -5.66699 109 -63 109c-26.667 0 -53 -11.5 -79 -34.5s-42 -47.833 -48 -74.5l-43 -206h-39l57 270c5.33301 28 4.33301 50.667 -3 68l39 8c7.33301 -22.667 8.66602 -45 3.99902 -67c35.333 45.333 78 68 128 68c46 0 75 -25.333 87 -76
c37.333 50.667 83.333 76 138 76c37.333 0 63.666 -14.167 78.999 -42.5s18 -66.833 8 -115.5z" />
    <glyph glyph-name="n" unicode="n" horiz-adv-x="390" 
d="M310 69c-5.33301 -28 -4.33496 -50.667 2.99805 -68l-39 -8c-7.33301 22.667 -8.66602 45 -3.99902 67l27 133c16.667 81.333 -9 122 -77 122c-27.333 0 -54.166 -11.5 -80.499 -34.5s-42.5 -47.833 -48.5 -74.5l-43 -206h-39l57 270c5.33301 28 4.33301 50.667 -3 68
l39 8c7.33301 -22.667 8.66602 -45 3.99902 -67c35.333 45.333 78.333 68 129 68c88.667 0 122.334 -51.333 101.001 -154z" />
    <glyph glyph-name="o" unicode="o" horiz-adv-x="398" 
d="M362 169c-10.667 -50 -35.334 -92.333 -74.001 -127s-83.667 -52 -135 -52s-89 17.333 -113 52s-30.667 77 -20 127s35.334 92.167 74.001 126.5s83.667 51.5 135 51.5s89 -17.167 113 -51.5s30.667 -76.5 20 -126.5zM324 169
c9.33301 41.333 4.33398 75.833 -14.999 103.5s-48.333 41.5 -87 41.5s-73.334 -13.833 -104.001 -41.5s-50.667 -62.167 -60 -103.5c-8.66699 -41.333 -3.5 -76 15.5 -104s47.833 -42 86.5 -42s73.5 14 104.5 42s50.833 62.667 59.5 104z" />
    <glyph glyph-name="p" unicode="p" horiz-adv-x="401" 
d="M328 165c9.33301 46.667 5.99805 83.167 -10.002 109.5s-44.667 39.5 -86 39.5c-33.333 0 -63.5 -10.667 -90.5 -32s-44.167 -48 -51.5 -80l-12 -57c-7.33301 -36.667 -0.666016 -66.667 20.001 -90c18.667 -22 44 -33 76 -33c38.667 0 72.334 13.667 101.001 41
c26 26 43.667 60 53 102zM363.998 164c-10.667 -50 -32.667 -90.666 -66 -121.999c-34.667 -34 -75.667 -51 -123 -51c-56.667 0 -94.667 24 -114 72l-49 -230h-38l92 436c5.33301 28 4.33301 50.667 -3 68l39 8c7.33301 -22.667 7.66602 -45 0.999023 -67
c40.667 46 87.667 69 141 69c48.667 0 83.834 -16.833 105.501 -50.5s26.5 -77.834 14.5 -132.501z" />
    <glyph glyph-name="q" unicode="q" horiz-adv-x="401" 
d="M373 296l-100.999 -464h-39l49 230c-38.667 -48 -86.667 -72 -144 -72c-38.667 0 -68.667 11.167 -90 33.5s-32 52.166 -32 89.499c0 58.667 19 111.334 57 158.001c40 50 88.667 75 146 75c61.333 0.666992 112.666 -16 153.999 -50zM299.001 143l31 136.001
c-34 23.333 -69.333 35 -106 35c-48.667 -0.666992 -90 -22.334 -124 -65.001c-30.667 -40 -46 -83.667 -46 -131c0 -29.333 8.5 -52.833 25.5 -70.5s40.833 -26.5 71.5 -26.5c34 0 65.333 12.167 94 36.5s46.667 52.833 54 85.5z" />
    <glyph glyph-name="r" unicode="r" horiz-adv-x="217" 
d="M231 312c-2 0.666992 -6 1 -12 1c-51.333 0 -92 -32 -122 -96c-4 -7.33301 -7.66699 -18.666 -11 -33.999l-38 -183h-39l56 270c5.33301 28 4.33301 50.667 -3 68l39 8c7.33301 -22.667 7 -47.334 -1 -74.001c32 50 71.667 75 119 75c6 0 12.333 -0.666992 19 -2z" />
    <glyph glyph-name="s" unicode="s" horiz-adv-x="282" 
d="M224 90c-6.66699 -28.667 -22.666 -52.334 -47.999 -71.001s-57.333 -28 -96 -28c-33.333 0 -63.333 9 -90 27l21 32c28.667 -17.333 55 -26 79 -26c56 0 88.333 21 97 63c6.66699 32.667 -14.333 57 -63 73c-57.333 18.667 -81.333 49.334 -72 92.001
c5.33301 26 19.833 48.333 43.5 67s53.167 28 88.5 28s61.666 -7.66699 78.999 -23l-22 -32c-16.667 16 -40 24 -70 24c-21.333 0 -39.333 -5.66699 -54 -17s-23.667 -25.333 -27 -42c-5.33301 -26.667 16 -49 64 -67c56 -20.667 79.333 -54 70 -100z" />
    <glyph glyph-name="t" unicode="t" horiz-adv-x="238" 
d="M173 31l-2.00195 -31c-14.667 -6 -33 -9 -55 -9c-29.333 0 -49.333 11.333 -60 34c-9.33301 20 -10.666 45 -3.99902 75l44 209h-68l7 31h68l21 101l43 18l-25 -119h109l-7 -31h-109l-44 -208c-10.667 -50.667 1 -76 35 -76c20.667 0 36.334 2 47.001 6z" />
    <glyph glyph-name="u" unicode="u" horiz-adv-x="390" 
d="M312 1l-38.999 -8c-3.33301 22.667 -4 44.667 -2 66c-38.667 -45.333 -86 -68 -142 -68c-81.333 0 -111 52.667 -89 158l26 121c5.33301 28 4.33301 50.667 -3 68l39 8c7.33301 -22.667 9 -45 5 -67l-26 -123c-18.667 -87.333 2.66602 -131 63.999 -131
c28.667 0 56.667 9.33301 84 28c30 21.333 48.333 48.333 55 81l44 206h39l-55 -257c-5.33301 -24.667 -5.33301 -52 0 -82z" />
    <glyph glyph-name="v" unicode="v" horiz-adv-x="341" 
d="M367 340l-225 -340h-35l-75 340h40l62 -298l193 298h40z" />
    <glyph glyph-name="w" unicode="w" horiz-adv-x="507" 
d="M536 340l-194 -340h-34l-35 300l-166 -300h-36l-39 340h41l27 -294l165 294h37l33 -294l162 294h39z" />
    <glyph glyph-name="x" unicode="x" horiz-adv-x="318" 
d="M275 0h-46l-83 147l-144 -147h-45l174 173l-93 167h44l78 -138l137 138h43l-166 -166z" />
    <glyph glyph-name="y" unicode="y" horiz-adv-x="337" 
d="M141 0c-58.667 -88.667 -122 -140.667 -190 -156l-2 31c58.667 12.667 111 58 157 136c0 2 -0.333008 6 -1 12l-73 317h42l66 -288l180 288h43z" />
    <glyph glyph-name="z" unicode="z" horiz-adv-x="321" 
d="M258 0h-286l6 24l299 284h-228l13 32h271l-7 -27l-299 -281h245z" />
    <glyph glyph-name="braceleft" unicode="{" horiz-adv-x="208" 
d="M127 -47l-7 -29.9961h-11c-72 0 -101.333 31.667 -88 95c2.66699 12.667 9.16699 32.167 19.5 58.5s16.833 46.166 19.5 59.499c7.33301 33.333 -9.66699 50.666 -51 51.999l7 30c41.333 1.33301 65.666 18.666 72.999 51.999c2.66699 13.333 4.5 33.166 5.5 59.499
s2.83301 45.833 5.5 58.5c13.333 63.333 56 95 128 95h11l-6 -30h-15c-46 0 -74 -23 -84 -69c-4.66699 -67.333 -7.66699 -104.333 -9 -111c-7.33301 -34 -25.666 -57.333 -54.999 -70c24 -12.667 32.333 -36 25 -70c-1.33301 -6.66699 -14 -43.667 -38 -111
c-9.33301 -46 9 -69 55 -69h15z" />
    <glyph glyph-name="bar" unicode="|" horiz-adv-x="153" 
d="M162 528l-149 -702h-32l148 702h33z" />
    <glyph glyph-name="braceright" unicode="}" horiz-adv-x="208" 
d="M-31 -77l7.00195 29.9961h15c45.333 0 72.666 23 81.999 69c5.33301 67.333 8.66602 104.333 9.99902 111c7.33301 34 25.666 57.333 54.999 70c-24 12.667 -32.333 36 -25 70c1.33301 6.66699 13.666 43.667 36.999 111c10 46 -8 69 -54 69h-15l6 30h11
c72 0 101.333 -31.667 88 -95c-2.66699 -12.667 -9.16699 -32.167 -19.5 -58.5s-16.833 -46.166 -19.5 -59.499c-7.33301 -33.333 9.66699 -50.666 51 -51.999l-7 -30c-41.333 -1.33301 -65.666 -18.666 -72.999 -51.999c-2.66699 -13.333 -4.5 -33.166 -5.5 -59.499
s-2.83301 -45.833 -5.5 -58.5c-13.333 -63.333 -55.666 -95 -126.999 -95h-11z" />
    <glyph glyph-name="asciitilde" unicode="~" horiz-adv-x="416" 
d="M398 249l-1.00098 -5.99902c-6.66699 -30.667 -20 -54.334 -40 -71.001c-16.667 -14 -35.667 -21 -57 -21c-26 0 -58.667 10.833 -98 32.5s-70.666 32.5 -93.999 32.5c-31.333 0 -52 -21.667 -62 -65h-31l1 8c6 28 18.5 50 37.5 66s39.5 24 61.5 24
c25.333 0 58 -10.5 98 -31.5s72 -31.5 96 -31.5c28.667 0 48 21 58 63h31z" />
    <glyph glyph-name="Zcaron" horiz-adv-x="424" 
d="M372 33l-15 -33h-378l6 26l411 417h-303l13 33h347l-6 -27l-410 -416h335zM293 520h-28l-52 78h37l35 -52l57 52h37z" />
    <glyph glyph-name="Zcaron" unicode="&#x17d;" horiz-adv-x="424" 
d="M372 33l-15 -33h-378l6 26l411 417h-303l13 33h347l-6 -27l-410 -416h335zM293 520h-28l-52 78h37l35 -52l57 52h37z" />
    <glyph glyph-name="zcaron" horiz-adv-x="321" 
d="M258 0h-286l6 24l299 284h-228l13 32h271l-7 -27l-299 -281h245zM212 384h-28l-52 78h37l35 -52l57 52h37z" />
    <glyph glyph-name="zcaron" unicode="&#x17e;" horiz-adv-x="321" 
d="M258 0h-286l6 24l299 284h-228l13 32h271l-7 -27l-299 -281h245zM212 384h-28l-52 78h37l35 -52l57 52h37z" />
    <glyph glyph-name="nonbreakingspace" unicode="&#xa0;" horiz-adv-x="216" 
 />
    <glyph glyph-name="exclamdown" unicode="&#xa1;" horiz-adv-x="151" 
d="M29 -140h-54l83 348h35zM133 304c-2 -10 -7.5 -18.667 -16.5 -26s-18.5 -11 -28.5 -11s-17.833 3.66699 -23.5 11s-7.5 16 -5.5 26s7.5 18.667 16.5 26s18.5 11 28.5 11s17.833 -3.66699 23.5 -11s7.5 -16 5.5 -26z" />
    <glyph glyph-name="cent" unicode="&#xa2;" horiz-adv-x="411" 
d="M345 48c-36 -17.333 -81.668 -25.999 -137.001 -25.999h-5l-17 -81h-33l18 83c-49.333 7.33301 -86.333 27.666 -111 60.999c-28 36.667 -35 87.667 -21 153c12 55.333 36.333 101.333 73 138c40.667 40 90.334 65 149.001 75l20 91h33l-19 -87
c4.66699 0.666992 11.667 1 21 1c40 0 76 -6.33301 108 -19l-15 -36c-26.667 15.333 -59 23 -97 23c-61.333 0 -112.5 -16.167 -153.5 -48.5s-67.833 -78.833 -80.5 -139.5c-12.667 -57.333 -6.33398 -101 18.999 -131c26.667 -32 70.334 -48 131.001 -48
c42 0 79 6.66699 111 20z" />
    <glyph glyph-name="sterling" unicode="&#xa3;" horiz-adv-x="411" 
d="M310 0l-295.998 0.00195312l5 25c64 34.667 101.667 79 113 133c3.33301 15.333 5.66602 34.666 6.99902 57.999h-79l7 31h76c1.33301 32 4.33301 59 9 81c18.667 88.667 70.667 133 156 133c27.333 0 53.666 -6.66699 78.999 -20l-18 -29c-24.667 10.667 -48 16 -70 16
c-60.667 0 -98 -33.667 -112 -101c-5.33301 -24.667 -8 -51.334 -8 -80.001h113l-7 -31h-109c0 -15.333 -2 -32.333 -6 -51c-12 -56 -39.333 -100 -82 -132h229z" />
    <glyph glyph-name="currency" unicode="&#xa4;" horiz-adv-x="411" 
d="M391 225c-9.33301 -44 -29.667 -81 -61 -111l31 -41l-35 -30l-33 42c-36.667 -28 -77.667 -42 -123 -42c-43.333 0 -78 14 -104 42l-49 -42l-22 30l47 41c-19.333 32 -24.666 69 -15.999 111c9.33301 42.667 30.666 80.667 63.999 114l-31 40l36 31l31 -42
c40 27.333 80.333 41 121 41c42.667 0 78 -13.667 106 -41l52 42l21 -31l-48 -40c18.667 -29.333 23 -67.333 13 -114zM350.999 225c8.66699 40 2.33594 74.833 -18.9971 104.5s-52 44.5 -92 44.5c-38.667 0 -75.334 -14.667 -110.001 -44s-56.334 -64.333 -65.001 -105
s-1.83398 -75.167 20.499 -103.5s52.833 -42.5 91.5 -42.5c40 0 77 14.5 111 43.5s55 63.167 63 102.5z" />
    <glyph glyph-name="yen" unicode="&#xa5;" horiz-adv-x="411" 
d="M322 95h-121l-16 -76h-37l16 76h-120l6 29h120l12 57h-120l6 29h120l-100 249h46l80 -211l170 211h47l-206 -248h121l-6 -30h-121l-12 -57h121z" />
    <glyph glyph-name="brokenbar" unicode="&#xa6;" horiz-adv-x="153" 
d="M98 227h-33l52 248h33zM23 -123h-32l52 249h33z" />
    <glyph glyph-name="section" unicode="&#xa7;" horiz-adv-x="374" 
d="M271 65c-6.66699 -32 -24.001 -57.3359 -52.001 -76.0029s-60 -28 -96 -28c-42 0 -74 11 -96 33l22 28c18 -20.667 45.667 -31 83 -31c27.333 0 50.5 6.33301 69.5 19s30.5 29.334 34.5 50.001c6 28.667 -7.33301 51.334 -40 68.001l-94 41
c-32.667 18.667 -45.334 45.334 -38.001 80.001c6.66699 29.333 27.334 56 62.001 80c-12 15.333 -15.667 33.333 -11 54c6 28.667 22 51.834 48 69.501s56.667 26.5 92 26.5s66 -8.66699 92 -26l-23 -29c-20 17.333 -46.667 26 -80 26
c-22.667 0 -42.667 -5.83301 -60 -17.5s-28 -26.167 -32 -43.5c-4 -18 2.66699 -33 20 -45c10.667 -8 32 -18 64 -30c66 -24 94 -58.333 84 -103c-6 -30.667 -26 -59.334 -60 -86.001c12.667 -16 16.334 -36 11.001 -60zM281.999 205.997
c3.33301 13.333 -0.666992 26.833 -12 40.5s-27.333 24.5 -48 32.5c-37.333 13.333 -62.666 24.666 -75.999 33.999c-26.667 -19.333 -42.334 -40 -47.001 -62c-4 -18.667 4 -35 24 -49c12.667 -8.66699 34.667 -19 66 -31c28.667 -11.333 46.667 -20.333 54 -27
c22 20.667 35 41.334 39 62.001z" />
    <glyph glyph-name="dieresis" unicode="&#xa8;" horiz-adv-x="212" 
d="M150 422c-2 -8.66699 -6.5 -15.834 -13.5 -21.501s-14.833 -8.5 -23.5 -8.5s-15.334 2.83301 -20.001 8.5s-6 12.834 -4 21.501s6.5 16 13.5 22s14.833 9 23.5 9s15.334 -3 20.001 -9s6 -13.333 4 -22zM274 422c-2 -8.66699 -6.5 -15.834 -13.5 -21.501
s-14.833 -8.5 -23.5 -8.5s-15.334 2.83301 -20.001 8.5s-6 12.834 -4 21.501s6.5 16 13.5 22s14.833 9 23.5 9s15.334 -3 20.001 -9s6 -13.333 4 -22z" />
    <glyph glyph-name="copyright" unicode="&#xa9;" horiz-adv-x="536" 
d="M385 117c-25.333 -19.333 -60.333 -29 -105 -29c-43.333 0 -78 14 -104 42s-39 62.333 -39 103c0 46.667 13.667 83.5 41 110.5s63 40.5 107 40.5c42 0 73.667 -8 95 -24l-12 -30c-25.333 14.667 -53 22 -83 22c-72 -4 -108 -42 -108 -114
c0 -72.667 36.333 -111 109 -115c34 0 62.667 8.33301 86 25zM526 240c0 -66.667 -23.833 -123.834 -71.5 -171.501s-104.834 -71.5 -171.501 -71.5s-123.834 23.833 -171.501 71.5s-71.5 104.834 -71.5 171.501s23.833 123.834 71.5 171.501s104.834 71.5 171.501 71.5
s123.834 -23.833 171.501 -71.5s71.5 -104.834 71.5 -171.501zM490 240c0 57.333 -20.167 106.166 -60.5 146.499s-89.166 60.5 -146.499 60.5s-106.166 -20.167 -146.499 -60.5s-60.5 -89.166 -60.5 -146.499s20.167 -106.166 60.5 -146.499s89.166 -60.5 146.499 -60.5
s106.166 20.167 146.499 60.5s60.5 89.166 60.5 146.499z" />
    <glyph glyph-name="ordfeminine" unicode="&#xaa;" horiz-adv-x="272" 
d="M274 443l-33 -149.001c-1.33301 -6 -2 -12.667 -2 -20c0 -10.667 1.66699 -19 5 -25l-34 -8c-2.66699 7.33301 -4 15.333 -4 24c0 6.66699 0.333008 12.334 1 17.001c-28.667 -27.333 -59 -41 -91 -41c-26 0 -46.5 7.66699 -61.5 23s-22.5 35.333 -22.5 60
c0 39.333 13 74.833 39 106.5s58.667 47.5 98 47.5c41.333 0 76.333 -11.667 105 -35zM216 342.999l20 89c-20.667 13.333 -42 20 -64 20c-30 0 -55 -13.167 -75 -39.5s-30 -54.833 -30 -85.5c0 -40 19.333 -60 58 -60c20 0 39 7.66699 57 23s29.333 33 34 53z" />
    <glyph glyph-name="guillemotleft" unicode="&#xab;" horiz-adv-x="298" 
d="M200 48l-84 129l138 132h42l-138 -132l84 -129h-42zM89 48l-84 129l138 132h42l-138 -132l84 -129h-42z" />
    <glyph glyph-name="logicalnot" unicode="&#xac;" horiz-adv-x="420" 
d="M407 91h-39v148h-325v33h364v-181z" />
    <glyph glyph-name="registered" unicode="&#xae;" horiz-adv-x="536" 
d="M394 99h-39c-12 78.667 -33.667 118 -65 118h-61v-118h-40v282c24 4.66699 51.667 7.33398 83 8.00098c35.333 0 62.833 -7.5 82.5 -22.5s29.5 -35.5 29.5 -61.5c0 -34.667 -13.667 -59.334 -41 -74.001c26 -23.333 43 -67.333 51 -132zM345 300c0 36 -23 54 -69 54
c-18 0 -33.667 -1 -47 -3v-97h54c18.667 0 33.667 4 45 12s17 19.333 17 34zM526 240c0 -66.667 -23.833 -123.834 -71.5 -171.501s-104.834 -71.5 -171.501 -71.5s-123.834 23.833 -171.501 71.5s-71.5 104.834 -71.5 171.501s23.833 123.834 71.5 171.501
s104.834 71.5 171.501 71.5s123.834 -23.833 171.501 -71.5s71.5 -104.834 71.5 -171.501zM490 240c0 57.333 -20.167 106.166 -60.5 146.499s-89.166 60.5 -146.499 60.5s-106.166 -20.167 -146.499 -60.5s-60.5 -89.166 -60.5 -146.499s20.167 -106.166 60.5 -146.499
s89.166 -60.5 146.499 -60.5s106.166 20.167 146.499 60.5s60.5 89.166 60.5 146.499z" />
    <glyph glyph-name="macron" unicode="&#xaf;" horiz-adv-x="352" 
d="M427 559l-6 -31h-352l6 31h352z" />
    <glyph glyph-name="degree" unicode="&#xb0;" horiz-adv-x="212" 
d="M232 397c-5.33301 -23.333 -18.166 -43.333 -38.499 -60s-42.166 -25 -65.499 -25s-41.666 8.33301 -54.999 25s-17.333 36.667 -12 60c4.66699 23.333 17.167 43.5 37.5 60.5s42.166 25.5 65.499 25.5s41.666 -8.5 54.999 -25.5s17.666 -37.167 12.999 -60.5zM202 397
c3.33301 15.333 0.669922 28.666 -7.99707 39.999s-20.667 17 -36 17s-29.5 -5.66699 -42.5 -17s-21.167 -24.666 -24.5 -39.999s-0.833008 -28.5 7.5 -39.5s20.166 -16.5 35.499 -16.5s29.666 5.5 42.999 16.5s21.666 24.167 24.999 39.5z" />
    <glyph glyph-name="plusminus" unicode="&#xb1;" horiz-adv-x="411" 
d="M372 201h-150l-28 -133h-35l28 133h-150l7 32h150l26 124h35l-26 -124h150zM330 0h-335l6 32h335z" />
    <glyph glyph-name="twosuperior" unicode="&#xb2;" horiz-adv-x="254" 
d="M215 227l-10.999 -31.001h-181c7.33301 27.333 37.666 62.333 90.999 105c22 16.667 43.333 34 64 52s33 36 37 54c6 28.667 -5.33301 43 -34 43c-32 0 -53.667 -18.333 -65 -55l-32 6c8 25.333 21.167 45 39.5 59s38.833 21 61.5 21c23.333 0 41 -6.66699 53 -20
s15.667 -31.333 11 -54c-6 -27.333 -31 -59.666 -75 -96.999l-98 -83h139z" />
    <glyph glyph-name="threesuperior" unicode="&#xb3;" horiz-adv-x="254" 
d="M235 298c-6.66699 -30.667 -22.0039 -55.165 -46.0039 -73.498s-52.333 -27.833 -85 -28.5c-29.333 -0.666992 -51.666 6 -66.999 20l22 32c12.667 -12.667 29 -19 49 -19c24.667 0 45.334 6.33301 62.001 19s27.334 29 32.001 49c6 29.333 -5 44 -33 44
c-18.667 0 -34.334 -4.66699 -47.001 -14l-9 25c38.667 23.333 60.334 36.666 65.001 39.999c18 12.667 28.333 25 31 37c2.66699 13.333 -7 20 -29 20c-27.333 0 -49.666 -14.667 -66.999 -44l-26 15c26.667 41.333 61 62 103 62s59.333 -17.333 52 -52
c-2.66699 -12 -10 -24.333 -22 -37s-24 -21.334 -36 -26.001c43.333 -2.66699 60.333 -25.667 51 -69z" />
    <glyph glyph-name="acute" unicode="&#xb4;" horiz-adv-x="212" 
d="M154 528h-31l69 91h50z" />
    <glyph glyph-name="mu" unicode="&#xb5;" horiz-adv-x="406" 
d="M325 83c-4.66699 -24.667 -4.33301 -51.999 1 -81.999l-39 -8c-3.33301 22.667 -3.66602 46 -0.999023 70c-48 -48 -95.667 -72 -143 -72c-38.667 0 -66.334 17 -83.001 51l-38 -182h-37l101 480h38l-41 -194c-17.333 -80.667 8 -121 76 -121
c29.333 0 58.333 11.167 87 33.5s46 47.166 52 74.499l44 207h38z" />
    <glyph glyph-name="paragraph" unicode="&#xb6;" horiz-adv-x="374" 
d="M264 -63h-34l108 506h-48l-108 -506h-35l52 243h-4c-40 0 -72.333 11.667 -97 35c-28 26.667 -37.333 62 -28 106c21.333 102.667 98 154 230 154c35.333 0 61 -1.66699 77 -5z" />
    <glyph glyph-name="periodcentered" unicode="&#xb7;" horiz-adv-x="162" 
d="M110 181c-2 -9.33301 -7.16895 -17.333 -15.502 -24s-17.166 -10 -26.499 -10s-16.666 3.33301 -21.999 10s-7 14.667 -5 24s7 17.5 15 24.5s16.667 10.5 26 10.5s16.833 -3.5 22.5 -10.5s7.5 -15.167 5.5 -24.5z" />
    <glyph glyph-name="cedilla" unicode="&#xb8;" horiz-adv-x="212" 
d="M92 -81c-8 -38.667 -35.333 -58 -82 -58c-15.333 0 -30 4.33301 -44 13l14 22c12.667 -6.66699 24.667 -10 36 -10c25.333 0 40 9.33301 44 28c4 16.667 -14.667 26.667 -56 30l51 60h32l-35 -38c32 -8 45.333 -23.667 40 -47z" />
    <glyph glyph-name="onesuperior" unicode="&#xb9;" horiz-adv-x="254" 
d="M193 201l-122 -0.000976562l5 24h44l44 205l-45 -33l-14 24l84 63c14 -1.33301 19 -10.666 15 -27.999l-49 -231h43z" />
    <glyph glyph-name="ordmasculine" unicode="&#xba;" horiz-adv-x="285" 
d="M297 360c-6.66699 -33.333 -24.998 -62 -54.998 -86s-61.333 -36 -94 -36c-33.333 0 -59.333 12 -78 36s-24.667 52.667 -18 86c7.33301 32.667 25.666 61.334 54.999 86.001s60.666 37 93.999 37c32.667 0 58.667 -12.333 78 -37s25.333 -53.334 18 -86.001z
M262.002 360c5.33301 24 1.16797 44.667 -12.499 62s-32.5 26 -56.5 26s-46.333 -8.66699 -67 -26s-33.667 -38 -39 -62c-4.66699 -24 -0.333984 -44.5 12.999 -61.5s32 -25.5 56 -25.5s46.5 8.5 67.5 25.5s33.833 37.5 38.5 61.5z" />
    <glyph glyph-name="guillemotright" unicode="&#xbb;" horiz-adv-x="294" 
d="M28 48h-41l137 129l-82 132h42l82 -132zM139 48h-42l138 129l-82 132h42l82 -132z" />
    <glyph glyph-name="onequarter" unicode="&#xbc;" horiz-adv-x="536" 
d="M101 -9h-33l385 476h33zM161 186l-122 -0.000976562l5 24h44l43 201l-45 -33l-14 24l84 63c14 -1.33301 19 -10.666 15 -27.999l-48 -227h43zM400 94.999l31 147.999c-22 -16 -44 -40 -66 -72c-20.667 -29.333 -34 -54.666 -40 -75.999h75zM470 61.998l-42 -0.000976562
l-13 -62h-35l13 62h-112c10 44.667 32.333 90.334 67 137.001c41.333 56.667 84 85.667 128 87l-41 -191h44z" />
    <glyph glyph-name="onehalf" unicode="&#xbd;" horiz-adv-x="536" 
d="M101 -9h-33l385 476h33zM161 186l-122 -0.000976562l5 24h44l43 201l-45 -33l-14 24l84 63c14 -1.33301 19 -10.666 15 -27.999l-48 -227h43zM463 -0.000976562l-181 -0.000976562c6.66699 27.333 37 62.333 91 105l63.5 52c21 18 33.167 36 36.5 54
c6 28.667 -5.33301 43 -34 43c-32 0 -53.333 -18.333 -64 -55l-33 6c8 25.333 21.167 45 39.5 59s38.833 21 61.5 21c24 0 42.167 -6.5 54.5 -19.5s15.833 -31.167 10.5 -54.5c-5.33301 -27.333 -30 -59.666 -74 -96.999l-96 -83h135z" />
    <glyph glyph-name="threequarters" unicode="&#xbe;" horiz-adv-x="536" 
d="M101 -9h-33l385 476h33zM232 286c-6 -30.667 -21 -55.165 -45 -73.498s-52.333 -27.833 -85 -28.5c-30 -0.666992 -52.333 6 -67 20l22 32c12.667 -12.667 29 -19 49 -19c24.667 0 45.334 6.33301 62.001 19s27 29 31 49c6 29.333 -5 44 -33 44
c-18.667 0 -34.334 -4.66699 -47.001 -14l-8 25c38 23.333 59.333 36.666 64 39.999c18 12.667 28.333 25 31 37c2.66699 13.333 -7 20 -29 20c-30 0 -52.333 -14.667 -67 -44l-26 15c26.667 41.333 61 62 103 62s59.333 -17.333 52 -52c-2 -12 -9.16699 -24.333 -21.5 -37
s-24.5 -21.334 -36.5 -26.001c42.667 -6.66699 59.667 -29.667 51 -69zM400 95.002l31 147.999c-22 -16 -44 -40 -66 -72c-20.667 -29.333 -34 -54.666 -40 -75.999h75zM470 62.001l-42 -0.000976562l-13 -62h-35l13 62h-112c10 44.667 32.333 90.334 67 137.001
c41.333 56.667 84 85.667 128 87l-41 -191h44z" />
    <glyph glyph-name="questiondown" unicode="&#xbf;" horiz-adv-x="289" 
d="M181 -122c-36.667 -20.667 -72.999 -30.999 -108.999 -30.999c-38 0 -64.333 11 -79 33c-14 19.333 -18 43.333 -12 72c8 35.333 37.333 75.333 88 120c40 34.667 63.667 69 71 103c2.66699 12 3.66699 22.667 3 32h34c1.33301 -10 0.666016 -21.667 -2.00098 -35
c-7.33301 -35.333 -33.5 -73.333 -78.5 -114s-70.5 -75.334 -76.5 -104.001c-10.667 -48 11.333 -72 66 -72c31.333 0 60 8.66699 86 26zM219.001 304.001c-2 -10 -7.5 -18.667 -16.5 -26s-18.5 -11 -28.5 -11s-17.833 3.66699 -23.5 11s-7.5 16 -5.5 26s7.5 18.667 16.5 26
s18.5 11 28.5 11s17.833 -3.66699 23.5 -11s7.5 -16 5.5 -26z" />
    <glyph glyph-name="Acircumflex" unicode="&#xc2;" horiz-adv-x="400" 
d="M357 0h-43l-23 153h-205l-86 -153h-43l282 483h40zM286 186l-36 254l-145 -254h181zM299 606l53 -78h-37l-35 52l-57 -52h-37l85 78h28z" />
    <glyph glyph-name="Adieresis" unicode="&#xc4;" horiz-adv-x="400" 
d="M357 0h-43l-23 153h-205l-86 -153h-43l282 483h40zM286 186l-36 254l-145 -254h181zM243 558c-2 -8.66699 -6.5 -15.834 -13.5 -21.501s-14.833 -8.5 -23.5 -8.5s-15.334 2.83301 -20.001 8.5s-6 12.834 -4 21.501s6.5 16 13.5 22s14.833 9 23.5 9s15.334 -3 20.001 -9
s6 -13.333 4 -22zM367 558c-2 -8.66699 -6.5 -15.834 -13.5 -21.501s-14.833 -8.5 -23.5 -8.5s-15.334 2.83301 -20.001 8.5s-6 12.834 -4 21.501s6.5 16 13.5 22s14.833 9 23.5 9s15.334 -3 20.001 -9s6 -13.333 4 -22z" />
    <glyph glyph-name="Aring" unicode="&#xc5;" horiz-adv-x="400" 
d="M357 0h-43l-23 153h-205l-86 -153h-43l282 483h40zM286 186l-36 254l-145 -254h181zM352 576c-4 -19.333 -14.666 -36.166 -31.999 -50.499s-36.333 -21.5 -57 -21.5c-19.333 0 -34.666 7.16699 -45.999 21.5s-15 31.166 -11 50.499
c4.66699 20.667 15.667 38.334 33 53.001s35.666 22 54.999 22c20.667 0 36.667 -7.33301 48 -22s14.666 -32.334 9.99902 -53.001zM323.001 575c2.66699 12.667 0.669922 23.167 -5.99707 31.5s-16.334 12.5 -29.001 12.5c-12 0 -22.833 -4.16699 -32.5 -12.5
s-15.834 -18.833 -18.501 -31.5c-2.66699 -11.333 -0.833984 -21 5.49902 -29s15.5 -12 27.5 -12c12.667 0 24 4 34 12s16.333 17.667 19 29z" />
    <glyph glyph-name="AE" unicode="&#xc6;" horiz-adv-x="582" 
d="M501 0h-214l13 196h-164l-145 -196h-41l356 476h284l-7 -33h-228l-14 -176h193l-7 -33h-188l-12 -201h181zM302 228l20 220l-163 -220h143z" />
    <glyph glyph-name="Ccedilla" unicode="&#xc7;" horiz-adv-x="406" 
d="M334 50l5 -31.999c-38.667 -16.667 -83.667 -25 -135 -25c-64.667 0 -113.5 23.167 -146.5 69.5s-42.167 105.166 -27.5 176.499c15.333 71.333 49.333 129.833 102 175.5s111.334 68.5 176.001 68.5c51.333 0 93 -8.33301 125 -25l-19 -32
c-32.667 15.333 -69.667 23 -111 23c-51.333 0 -99 -19 -143 -57c-46.667 -40 -76.667 -91.333 -90 -154s-5.33301 -114 24 -154c28 -38 67.667 -57 119 -57c41.333 0 81.666 7.66699 120.999 23zM201 -80.999c-8 -38.667 -35.333 -58 -82 -58c-15.333 0 -30 4.33301 -44 13
l14 22c12.667 -6.66699 24.667 -10 36 -10c25.333 0 40 9.33301 44 28c4 16.667 -14.667 26.667 -56 30l51 60h32l-35 -38c32 -8 45.333 -23.667 40 -47z" />
    <glyph glyph-name="Ecircumflex" unicode="&#xca;" horiz-adv-x="351" 
d="M270 0h-259l101 476h259l-7 -33h-220l-38 -175h196l-7 -33h-196l-42 -202h220zM274 606l53 -78h-37l-35 52l-57 -52h-37l85 78h28z" />
    <glyph glyph-name="Edieresis" unicode="&#xcb;" horiz-adv-x="351" 
d="M270 0h-259l101 476h259l-7 -33h-220l-38 -175h196l-7 -33h-196l-42 -202h220zM219 558c-2 -8.66699 -6.5 -15.834 -13.5 -21.501s-14.833 -8.5 -23.5 -8.5s-15.334 2.83301 -20.001 8.5s-6 12.834 -4 21.501s6.5 16 13.5 22s14.833 9 23.5 9s15.334 -3 20.001 -9
s6 -13.333 4 -22zM343 558c-2 -8.66699 -6.5 -15.834 -13.5 -21.501s-14.833 -8.5 -23.5 -8.5s-15.334 2.83301 -20.001 8.5s-6 12.834 -4 21.501s6.5 16 13.5 22s14.833 9 23.5 9s15.334 -3 20.001 -9s6 -13.333 4 -22z" />
    <glyph glyph-name="Icircumflex" unicode="&#xce;" horiz-adv-x="147" 
d="M50 0h-39l101 476h39zM174 606l53 -78h-37l-35 52l-57 -52h-37l85 78h28z" />
    <glyph glyph-name="Idieresis" unicode="&#xcf;" horiz-adv-x="147" 
d="M50 0h-39l101 476h39zM118 558c-2 -8.66699 -6.5 -15.834 -13.5 -21.501s-14.833 -8.5 -23.5 -8.5s-15.334 2.83301 -20.001 8.5s-6 12.834 -4 21.501s6.5 16 13.5 22s14.833 9 23.5 9s15.334 -3 20.001 -9s6 -13.333 4 -22zM242 558
c-2 -8.66699 -6.5 -15.834 -13.5 -21.501s-14.833 -8.5 -23.5 -8.5s-15.334 2.83301 -20.001 8.5s-6 12.834 -4 21.501s6.5 16 13.5 22s14.833 9 23.5 9s15.334 -3 20.001 -9s6 -13.333 4 -22z" />
    <glyph glyph-name="Eth" unicode="&#xd0;" horiz-adv-x="431" 
d="M411 248c-35.333 -168 -128.332 -252 -278.999 -252c-20 0 -60 3 -120 9l44 208h-49l7 33h49l47 223c63.333 8 111.666 12 144.999 12c60.667 0 105.667 -20.333 135 -61c29.333 -42.667 36.333 -100 21 -172zM372.001 248c13.333 63.333 7.33203 113 -18.001 149
c-23.333 33.333 -59.666 50 -108.999 50c-20.667 0 -54.667 -2.66699 -102 -8l-41 -193h168l-7 -33h-168l-38 -177c32.667 -4 64 -6 94 -6c54 0 100.667 19.167 140 57.5s66.333 91.833 81 160.5z" />
    <glyph glyph-name="Ntilde" unicode="&#xd1;" horiz-adv-x="441" 
d="M344 0h-41l-163 421l-89 -421h-40l101 476h45l161 -415l89 415h38zM359 590h28c-10 -41.333 -30.333 -62 -61 -62c-8.66699 0 -21.167 4.66699 -37.5 14s-27.5 14 -33.5 14c-11.333 0 -20 -10.667 -26 -32h-26c10.667 42.667 30 64 58 64c8.66699 0 20.667 -5 36 -15
s28 -15 38 -15c11.333 0 19.333 10.667 24 32z" />
    <glyph glyph-name="Ocircumflex" unicode="&#xd4;" horiz-adv-x="486" 
d="M471 237c-15.333 -71.333 -48.499 -130.333 -99.499 -177s-109.167 -70 -174.5 -70s-113.5 23.333 -144.5 70s-38.833 105.667 -23.5 177s48.333 130.333 99 177s108.667 70 174 70s113.666 -23.333 144.999 -70s39.333 -105.667 24 -177zM432.001 237
c12.667 58.667 6.33398 108.834 -18.999 150.501s-64.666 62.5 -117.999 62.5s-101.333 -20.833 -144 -62.5s-70.334 -91.834 -83.001 -150.501s-6.33398 -108.834 18.999 -150.501s64.666 -62.5 117.999 -62.5s101.333 20.833 144 62.5s70.334 91.834 83.001 150.501z
M342.001 606l53 -78h-37l-35 52l-57 -52h-37l85 78h28z" />
    <glyph glyph-name="Odieresis" unicode="&#xd6;" horiz-adv-x="486" 
d="M471 237c-15.333 -71.333 -48.499 -130.333 -99.499 -177s-109.167 -70 -174.5 -70s-113.5 23.333 -144.5 70s-38.833 105.667 -23.5 177s48.333 130.333 99 177s108.667 70 174 70s113.666 -23.333 144.999 -70s39.333 -105.667 24 -177zM432.001 237
c12.667 58.667 6.33398 108.834 -18.999 150.501s-64.666 62.5 -117.999 62.5s-101.333 -20.833 -144 -62.5s-70.334 -91.834 -83.001 -150.501s-6.33398 -108.834 18.999 -150.501s64.666 -62.5 117.999 -62.5s101.333 20.833 144 62.5s70.334 91.834 83.001 150.501z
M286.001 558c-2 -8.66699 -6.5 -15.834 -13.5 -21.501s-14.833 -8.5 -23.5 -8.5s-15.334 2.83301 -20.001 8.5s-6 12.834 -4 21.501s6.5 16 13.5 22s14.833 9 23.5 9s15.334 -3 20.001 -9s6 -13.333 4 -22zM410.001 558c-2 -8.66699 -6.5 -15.834 -13.5 -21.501
s-14.833 -8.5 -23.5 -8.5s-15.334 2.83301 -20.001 8.5s-6 12.834 -4 21.501s6.5 16 13.5 22s14.833 9 23.5 9s15.334 -3 20.001 -9s6 -13.333 4 -22z" />
    <glyph glyph-name="multiply" unicode="&#xd7;" horiz-adv-x="411" 
d="M296 11l-103 138l-161 -138l-21 24l161 139l-102 139l31 24l103 -138l161 138l21 -24l-162 -139l103 -139z" />
    <glyph glyph-name="Oslash" unicode="&#xd8;" horiz-adv-x="486" 
d="M471 237c-15.333 -71.333 -48.5 -130.333 -99.5 -177s-109.167 -70 -174.5 -70c-34 0 -63.333 6 -88 18l-26 -37h-38l38 54c-11.333 10 -21.666 21.667 -30.999 35c-30.667 46.667 -38.334 105.667 -23.001 177s48.333 130.333 99 177s108.667 70 174 70
c34 0 63.667 -6.66699 89 -20l20 29h41l-34 -47c10.667 -9.33301 20 -20 28 -32c32 -46.667 40.333 -105.667 25 -177zM368 432c-20.667 12 -44.998 18.001 -72.998 18.001c-53.333 0 -101.333 -20.833 -144 -62.5s-70.334 -91.834 -83.001 -150.501
s-6.33398 -109 18.999 -151c6 -10 12.667 -18.667 20 -26zM432.002 237.001c12.667 58.667 6.33105 108.666 -19.002 149.999c-5.33301 9.33301 -11.666 17.333 -18.999 24l-262 -370c20.667 -11.333 45 -17 73 -17c53.333 0 101.333 20.833 144 62.5
s70.334 91.834 83.001 150.501z" />
    <glyph glyph-name="Ucircumflex" unicode="&#xdb;" horiz-adv-x="466" 
d="M411 201c-29.333 -140 -103.667 -210 -223 -210s-164.333 70 -135 210l59 275h39l-59 -274c-13.333 -62.667 -10 -108 10 -136s51 -42 93 -42c42.667 0 79.667 14 111 42s53.333 73.333 66 136l59 274h39zM331.999 606l53 -78h-37l-35 52l-57 -52h-37l85 78h28z" />
    <glyph glyph-name="Udieresis" unicode="&#xdc;" horiz-adv-x="466" 
d="M411 201c-29.333 -140 -103.667 -210 -223 -210s-164.333 70 -135 210l59 275h39l-59 -274c-13.333 -62.667 -10 -108 10 -136s51 -42 93 -42c42.667 0 79.667 14 111 42s53.333 73.333 66 136l59 274h39zM275.999 558c-2 -8.66699 -6.5 -15.834 -13.5 -21.501
s-14.833 -8.5 -23.5 -8.5s-15.334 2.83301 -20.001 8.5s-6 12.834 -4 21.501s6.5 16 13.5 22s14.833 9 23.5 9s15.334 -3 20.001 -9s6 -13.333 4 -22zM399.999 558c-2 -8.66699 -6.5 -15.834 -13.5 -21.501s-14.833 -8.5 -23.5 -8.5s-15.334 2.83301 -20.001 8.5
s-6 12.834 -4 21.501s6.5 16 13.5 22s14.833 9 23.5 9s15.334 -3 20.001 -9s6 -13.333 4 -22z" />
    <glyph glyph-name="Thorn" unicode="&#xde;" horiz-adv-x="380" 
d="M363 262c-10.667 -50 -35.499 -87.833 -74.499 -113.5s-87.5 -38.5 -145.5 -38.5c-16.667 0 -37.667 2.66699 -63 8l-25 -118h-38l101 476h38l-20 -94c29.333 7.33301 57.333 11 84 11c44.667 0 81 -10.667 109 -32c31.333 -24.667 42.666 -57.667 33.999 -99z
M325.001 257c7.33301 35.333 -0.667969 62.333 -24.001 81c-20 15.333 -49.333 23 -88 23c-24.667 0 -53 -4.66699 -85 -14l-41 -194c22.667 -7.33301 44.334 -11 65.001 -11c48 0 87 10.167 117 30.5s48.667 48.5 56 84.5z" />
    <glyph glyph-name="germandbls" unicode="&#xdf;" horiz-adv-x="392" 
d="M334 102c-6.66699 -32.667 -22.3311 -59.0039 -46.998 -79.0039c-26 -21.333 -58.333 -32 -97 -32c-32.667 0 -59.667 6.66699 -81 20l19 33c22.667 -13.333 46 -20 70 -20c26.667 0 48.667 6.83301 66 20.5s28.333 30.834 33 51.501
c4.66699 22.667 -6.83301 48.834 -34.5 78.501s-38.834 57.167 -33.501 82.5c4 18 19.667 37.833 47 59.5s42.333 39.167 45 52.5c11.333 54.667 -12 82 -70 82c-66.667 0 -111.334 -54.667 -134.001 -164l-73 -341c-7.33301 -36 -21.333 -67.333 -42 -94l-33 10
c18 26 30 54 36 84l76 358c26 122 87.667 183 185 183c33.333 0 59 -10.5 77 -31.5s23 -49.167 15 -84.5c-5.33301 -26.667 -21 -49 -47 -67s-40.667 -34.667 -44 -50c-2 -11.333 6 -26.666 24 -45.999s28.333 -32.333 31 -39c12.667 -23.333 16.667 -45.666 12 -66.999z
" />
    <glyph glyph-name="acircumflex" unicode="&#xe2;" horiz-adv-x="398" 
d="M320 69c-6 -26.667 -4.99902 -49.333 3.00098 -68l-39 -8c-7.33301 24 -9 47 -5 69c-36.667 -48 -83.667 -72 -141 -72c-38.667 0 -68.667 11.167 -90 33.5s-32 52.166 -32 89.499c0 58.667 19 111.334 57 158.001c40 50 88.667 75 146 75
c59.333 0.666992 109.666 -16 150.999 -50zM296.001 143.001l31 136.001c-34 23.333 -68.333 35 -103 35c-48.667 -0.666992 -90 -22.334 -124 -65.001c-30.667 -40 -46 -83.667 -46 -131c0 -29.333 8.5 -52.833 25.5 -70.5s40.833 -26.5 71.5 -26.5
c34 0 64.833 12.167 92.5 36.5s45.167 52.833 52.5 85.5zM297.001 470.002l53 -78h-37l-35 52l-57 -52h-37l85 78h28z" />
    <glyph glyph-name="adieresis" unicode="&#xe4;" horiz-adv-x="398" 
d="M320 69c-6 -26.667 -4.99902 -49.333 3.00098 -68l-39 -8c-7.33301 24 -9 47 -5 69c-36.667 -48 -83.667 -72 -141 -72c-38.667 0 -68.667 11.167 -90 33.5s-32 52.166 -32 89.499c0 58.667 19 111.334 57 158.001c40 50 88.667 75 146 75
c59.333 0.666992 109.666 -16 150.999 -50zM296.001 143.001l31 136.001c-34 23.333 -68.333 35 -103 35c-48.667 -0.666992 -90 -22.334 -124 -65.001c-30.667 -40 -46 -83.667 -46 -131c0 -29.333 8.5 -52.833 25.5 -70.5s40.833 -26.5 71.5 -26.5
c34 0 64.833 12.167 92.5 36.5s45.167 52.833 52.5 85.5zM244.001 422.002c-2 -8.66699 -6.5 -15.834 -13.5 -21.501s-14.833 -8.5 -23.5 -8.5s-15.334 2.83301 -20.001 8.5s-6 12.834 -4 21.501s6.5 16 13.5 22s14.833 9 23.5 9s15.334 -3 20.001 -9s6 -13.333 4 -22z
M368.001 422.002c-2 -8.66699 -6.5 -15.834 -13.5 -21.501s-14.833 -8.5 -23.5 -8.5s-15.334 2.83301 -20.001 8.5s-6 12.834 -4 21.501s6.5 16 13.5 22s14.833 9 23.5 9s15.334 -3 20.001 -9s6 -13.333 4 -22z" />
    <glyph glyph-name="aring" unicode="&#xe5;" horiz-adv-x="398" 
d="M320 69c-6 -26.667 -4.99902 -49.333 3.00098 -68l-39 -8c-7.33301 24 -9 47 -5 69c-36.667 -48 -83.667 -72 -141 -72c-38.667 0 -68.667 11.167 -90 33.5s-32 52.166 -32 89.499c0 58.667 19 111.334 57 158.001c40 50 88.667 75 146 75
c59.333 0.666992 109.666 -16 150.999 -50zM296.001 143.001l31 136.001c-34 23.333 -68.333 35 -103 35c-48.667 -0.666992 -90 -22.334 -124 -65.001c-30.667 -40 -46 -83.667 -46 -131c0 -29.333 8.5 -52.833 25.5 -70.5s40.833 -26.5 71.5 -26.5
c34 0 64.833 12.167 92.5 36.5s45.167 52.833 52.5 85.5zM361.001 440.002c-4 -19.333 -14.666 -36.166 -31.999 -50.499s-36.333 -21.5 -57 -21.5c-19.333 0 -34.666 7.16699 -45.999 21.5s-15 31.166 -11 50.499c4.66699 20.667 15.667 38.334 33 53.001
s35.666 22 54.999 22c20.667 0 36.667 -7.33301 48 -22s14.666 -32.334 9.99902 -53.001zM332.002 439.002c2.66699 12.667 0.669922 23.167 -5.99707 31.5s-16.334 12.5 -29.001 12.5c-12 0 -22.833 -4.16699 -32.5 -12.5s-15.834 -18.833 -18.501 -31.5
c-2.66699 -11.333 -0.833984 -21 5.49902 -29s15.5 -12 27.5 -12c12.667 0 24 4 34 12s16.333 17.667 19 29z" />
    <glyph glyph-name="ae" unicode="&#xe6;" horiz-adv-x="608" 
d="M517 48l-3.99805 -33c-42 -16 -85.667 -24 -131 -24c-68.667 0 -113.334 29 -134.001 87c-30.667 -58 -83.667 -87 -159 -87c-29.333 0 -52.833 8.33301 -70.5 25s-23.5 39.667 -17.5 69c18 84.667 100.667 127 248 127h6l1 6c4.66699 22 3.66699 41.333 -3 58
c-9.33301 26.667 -32.333 40 -69 40c-23.333 0 -61 -7.66699 -113 -23l2 36c40 12 80 18 120 18c61.333 0 95.666 -25.333 102.999 -76c42.667 50.667 95 76 157 76c95.333 0 131.333 -59.667 108 -179h-278c-8 -45.333 -1.83301 -80.5 18.5 -105.5s50.833 -37.5 91.5 -37.5
c40 0 81.333 7.66699 124 23zM240.002 143l7.00098 35c-124 0 -192 -28.667 -204 -86c-4.66699 -22 -1.5 -38.833 9.5 -50.5s26.5 -17.5 46.5 -17.5c29.333 0 55.666 7.66699 78.999 23c32 20.667 52.667 52.667 62 96zM292.003 199l239.001 0.000976562
c5.33301 27.333 2.66602 51.666 -8.00098 72.999c-13.333 29.333 -40.333 44 -81 44c-36.667 0 -69.667 -13.333 -99 -40c-23.333 -21.333 -40.333 -47 -51 -77z" />
    <glyph glyph-name="ccedilla" unicode="&#xe7;" horiz-adv-x="331" 
d="M264 47l7.99902 -32c-32 -16 -68.667 -24 -110 -24c-56 0 -96.667 16.167 -122 48.5s-32.333 75.5 -21 129.5c12 54 37.333 97.167 76 129.5s86 48.5 142 48.5c41.333 0 74.666 -8 99.999 -24l-21 -32c-21.333 16 -50.666 24 -87.999 24
c-40.667 0 -76.834 -13 -108.501 -39s-52.5 -61.667 -62.5 -107c-9.33301 -45.333 -3.66602 -81 17.001 -107s51.334 -39 92.001 -39c37.333 0 70 8 98 24zM163.802 -72.9023c-7.2002 -34.8008 -31.8008 -52.2012 -73.8018 -52.2012
c-13.7998 0 -27 3.90039 -39.6006 11.7002l12.6006 19.8008c11.3994 -6 22.1992 -9 32.3994 -9c22.8008 0 36.001 8.40039 39.6016 25.2002c3.59961 15.001 -13.2012 24.001 -50.4023 27.001l45.9014 54.001h28.8008l-31.501 -34.2002
c28.8008 -7.2002 40.8018 -21.3008 36.002 -42.3018z" />
    <glyph glyph-name="ecircumflex" unicode="&#xea;" horiz-adv-x="374" 
d="M344 253c0 -79.333 -67.667 -118.998 -203 -118.998c-24.667 0 -53.667 1.33301 -87 4c-0.666992 -5.33301 -1 -10.333 -1 -15c0 -65.333 38 -98 114 -98c38.667 0 80 7.66699 124 23l-4 -33c-42 -16 -85.667 -24 -131 -24c-43.333 0 -78 11.667 -104 35
s-39 54.666 -39 93.999c0 63.333 22.333 117.666 67 162.999c42.667 42.667 91.667 64 147 64c78 0 117 -31.333 117 -94zM309 254.002c0 41.333 -27.333 62 -82 62c-34 0 -67.667 -13.667 -101 -41c-35.333 -29.333 -58.666 -64.333 -69.999 -105
c27.333 -2 51.666 -3 72.999 -3c120 0 180 29 180 87zM257 470.002l53 -78h-37l-35 52l-57 -52h-37l85 78h28z" />
    <glyph glyph-name="edieresis" unicode="&#xeb;" horiz-adv-x="374" 
d="M344 253c0 -79.333 -67.667 -118.998 -203 -118.998c-24.667 0 -53.667 1.33301 -87 4c-0.666992 -5.33301 -1 -10.333 -1 -15c0 -65.333 38 -98 114 -98c38.667 0 80 7.66699 124 23l-4 -33c-42 -16 -85.667 -24 -131 -24c-43.333 0 -78 11.667 -104 35
s-39 54.666 -39 93.999c0 63.333 22.333 117.666 67 162.999c42.667 42.667 91.667 64 147 64c78 0 117 -31.333 117 -94zM309 254.002c0 41.333 -27.333 62 -82 62c-34 0 -67.667 -13.667 -101 -41c-35.333 -29.333 -58.666 -64.333 -69.999 -105
c27.333 -2 51.666 -3 72.999 -3c120 0 180 29 180 87zM201 422.002c-2 -8.66699 -6.5 -15.834 -13.5 -21.501s-14.833 -8.5 -23.5 -8.5s-15.334 2.83301 -20.001 8.5s-6 12.834 -4 21.501s6.5 16 13.5 22s14.833 9 23.5 9s15.334 -3 20.001 -9s6 -13.333 4 -22zM325 422.002
c-2 -8.66699 -6.5 -15.834 -13.5 -21.501s-14.833 -8.5 -23.5 -8.5s-15.334 2.83301 -20.001 8.5s-6 12.834 -4 21.501s6.5 16 13.5 22s14.833 9 23.5 9s15.334 -3 20.001 -9s6 -13.333 4 -22z" />
    <glyph glyph-name="icircumflex" unicode="&#xee;" horiz-adv-x="143" 
d="M47 0h-38l72 340h38zM143 470l53 -78h-37l-35 52l-57 -52h-37l85 78h28z" />
    <glyph glyph-name="idieresis" unicode="&#xef;" horiz-adv-x="143" 
d="M47 0h-38l72 340h38zM87 422c-2 -8.66699 -6.5 -15.834 -13.5 -21.501s-14.833 -8.5 -23.5 -8.5s-15.334 2.83301 -20.001 8.5s-6 12.834 -4 21.501s6.5 16 13.5 22s14.833 9 23.5 9s15.334 -3 20.001 -9s6 -13.333 4 -22zM211 422
c-2 -8.66699 -6.5 -15.834 -13.5 -21.501s-14.833 -8.5 -23.5 -8.5s-15.334 2.83301 -20.001 8.5s-6 12.834 -4 21.501s6.5 16 13.5 22s14.833 9 23.5 9s15.334 -3 20.001 -9s6 -13.333 4 -22z" />
    <glyph glyph-name="eth" unicode="&#xf0;" horiz-adv-x="362" 
d="M313 163c-10 -48.667 -30.668 -88.999 -62.001 -120.999c-34.667 -36 -75.667 -54 -123 -54c-42 0 -72 14.667 -90 44s-22.667 65.666 -14 108.999c9.33301 42 29.5 78 60.5 108s66.167 45 105.5 45c28 0 51.333 -6.66699 70 -20c12.667 -10.667 19.667 -20.667 21 -30
c-4 52 -22.333 97.333 -55 136l-98 -55l-12 27l89 50c-25.333 22.667 -54 39 -86 49l10 29c45.333 -9.33301 83 -28.333 113 -57l86 49l11 -27l-76 -44c8.66699 -10 16.334 -21 23.001 -33c34.667 -60 43.667 -128.333 27 -205zM267.999 141.001
c7.33301 33.333 3.5 61.666 -11.5 84.999s-36.833 35 -65.5 35c-31.333 0 -58.5 -11.667 -81.5 -35s-38.167 -51.666 -45.5 -84.999c-6.66699 -32.667 -3.66699 -60.667 9 -84s35 -35 67 -35c28.667 0 55.5 11.667 80.5 35s40.833 51.333 47.5 84z" />
    <glyph glyph-name="ntilde" unicode="&#xf1;" horiz-adv-x="390" 
d="M310 69c-5.33301 -28 -4.33496 -50.667 2.99805 -68l-39 -8c-7.33301 22.667 -8.66602 45 -3.99902 67l27 133c16.667 81.333 -9 122 -77 122c-27.333 0 -54.166 -11.5 -80.499 -34.5s-42.5 -47.833 -48.5 -74.5l-43 -206h-39l57 270c5.33301 28 4.33301 50.667 -3 68
l39 8c7.33301 -22.667 8.66602 -45 3.99902 -67c35.333 45.333 78.333 68 129 68c88.667 0 122.334 -51.333 101.001 -154zM303.998 454h28c-10 -41.333 -30.333 -62 -61 -62c-8.66699 0 -21.167 4.66699 -37.5 14s-27.5 14 -33.5 14c-11.333 0 -20 -10.667 -26 -32h-26
c10.667 42.667 30 64 58 64c8.66699 0 20.667 -5 36 -15s28 -15 38 -15c11.333 0 19.333 10.667 24 32z" />
    <glyph glyph-name="ocircumflex" unicode="&#xf4;" horiz-adv-x="398" 
d="M362 169c-10.667 -50 -35.334 -92.333 -74.001 -127s-83.667 -52 -135 -52s-89 17.333 -113 52s-30.667 77 -20 127s35.334 92.167 74.001 126.5s83.667 51.5 135 51.5s89 -17.167 113 -51.5s30.667 -76.5 20 -126.5zM324 169
c9.33301 41.333 4.33398 75.833 -14.999 103.5s-48.333 41.5 -87 41.5s-73.334 -13.833 -104.001 -41.5s-50.667 -62.167 -60 -103.5c-8.66699 -41.333 -3.5 -76 15.5 -104s47.833 -42 86.5 -42s73.5 14 104.5 42s50.833 62.667 59.5 104zM269.001 470l53 -78h-37l-35 52
l-57 -52h-37l85 78h28z" />
    <glyph glyph-name="odieresis" unicode="&#xf6;" horiz-adv-x="398" 
d="M362 169c-10.667 -50 -35.334 -92.333 -74.001 -127s-83.667 -52 -135 -52s-89 17.333 -113 52s-30.667 77 -20 127s35.334 92.167 74.001 126.5s83.667 51.5 135 51.5s89 -17.167 113 -51.5s30.667 -76.5 20 -126.5zM324 169
c9.33301 41.333 4.33398 75.833 -14.999 103.5s-48.333 41.5 -87 41.5s-73.334 -13.833 -104.001 -41.5s-50.667 -62.167 -60 -103.5c-8.66699 -41.333 -3.5 -76 15.5 -104s47.833 -42 86.5 -42s73.5 14 104.5 42s50.833 62.667 59.5 104zM213.001 422
c-2 -8.66699 -6.5 -15.834 -13.5 -21.501s-14.833 -8.5 -23.5 -8.5s-15.334 2.83301 -20.001 8.5s-6 12.834 -4 21.501s6.5 16 13.5 22s14.833 9 23.5 9s15.334 -3 20.001 -9s6 -13.333 4 -22zM337.001 422c-2 -8.66699 -6.5 -15.834 -13.5 -21.501s-14.833 -8.5 -23.5 -8.5
s-15.334 2.83301 -20.001 8.5s-6 12.834 -4 21.501s6.5 16 13.5 22s14.833 9 23.5 9s15.334 -3 20.001 -9s6 -13.333 4 -22z" />
    <glyph glyph-name="divide" unicode="&#xf7;" horiz-adv-x="411" 
d="M260 302c-2 -9.33301 -6.83203 -17.5 -14.499 -24.5s-16.167 -10.5 -25.5 -10.5c-10 0 -17.167 3.5 -21.5 10.5s-5.5 15.167 -3.5 24.5c2.66699 9.33301 7.66699 17.333 15 24s15.666 10 24.999 10s16.333 -3.33301 21 -10s6 -14.667 4 -24zM207.001 59
c-2 -9.33301 -6.66699 -17.333 -14 -24s-15.666 -10 -24.999 -10c-10 0 -17.167 3.33301 -21.5 10s-5.5 14.667 -3.5 24s6.66699 17.5 14 24.5s16 10.5 26 10.5c9.33301 0 16.166 -3.5 20.499 -10.5s5.5 -15.167 3.5 -24.5zM365.001 165h-335l7 33h335z" />
    <glyph glyph-name="oslash" unicode="&#xf8;" horiz-adv-x="398" 
d="M362 169c-10.667 -50 -35.335 -92.333 -74.002 -127s-83.667 -52 -135 -52c-29.333 0 -55.666 6.66699 -78.999 20l-33 -39h-40l49 59c-32 34 -42 80.333 -30 139c10.667 50 35.334 92.167 74.001 126.5s83.667 51.5 135 51.5c24 0 47.333 -5 70 -15l42 51h43l-58 -69
c37.333 -34 49.333 -82.333 36 -145zM323.999 169c10.667 47.333 3 85.333 -23 114l-202 -243c16.667 -11.333 37 -17 61 -17c38.667 0 73.5 14 104.5 42s50.833 62.667 59.5 104zM74.999 61l200.001 241c-15.333 8 -33 12 -53 12c-38.667 0 -73.334 -13.833 -104.001 -41.5
s-50.667 -62.167 -60 -103.5c-8.66699 -43.333 -3 -79.333 17 -108z" />
    <glyph glyph-name="ucircumflex" unicode="&#xfb;" horiz-adv-x="390" 
d="M312 1l-38.999 -8c-3.33301 22.667 -4 44.667 -2 66c-38.667 -45.333 -86 -68 -142 -68c-81.333 0 -111 52.667 -89 158l26 121c5.33301 28 4.33301 50.667 -3 68l39 8c7.33301 -22.667 9 -45 5 -67l-26 -123c-18.667 -87.333 2.66602 -131 63.999 -131
c28.667 0 56.667 9.33301 84 28c30 21.333 48.333 48.333 55 81l44 206h39l-55 -257c-5.33301 -24.667 -5.33301 -52 0 -82zM265.001 470l53 -78h-37l-35 52l-57 -52h-37l85 78h28z" />
    <glyph glyph-name="udieresis" unicode="&#xfc;" horiz-adv-x="390" 
d="M312 1l-38.999 -8c-3.33301 22.667 -4 44.667 -2 66c-38.667 -45.333 -86 -68 -142 -68c-81.333 0 -111 52.667 -89 158l26 121c5.33301 28 4.33301 50.667 -3 68l39 8c7.33301 -22.667 9 -45 5 -67l-26 -123c-18.667 -87.333 2.66602 -131 63.999 -131
c28.667 0 56.667 9.33301 84 28c30 21.333 48.333 48.333 55 81l44 206h39l-55 -257c-5.33301 -24.667 -5.33301 -52 0 -82zM209.001 422c-2 -8.66699 -6.5 -15.834 -13.5 -21.501s-14.833 -8.5 -23.5 -8.5s-15.334 2.83301 -20.001 8.5s-6 12.834 -4 21.501s6.5 16 13.5 22
s14.833 9 23.5 9s15.334 -3 20.001 -9s6 -13.333 4 -22zM333.001 422c-2 -8.66699 -6.5 -15.834 -13.5 -21.501s-14.833 -8.5 -23.5 -8.5s-15.334 2.83301 -20.001 8.5s-6 12.834 -4 21.501s6.5 16 13.5 22s14.833 9 23.5 9s15.334 -3 20.001 -9s6 -13.333 4 -22z" />
    <glyph glyph-name="thorn" unicode="&#xfe;" horiz-adv-x="432" 
d="M395 176c-12.667 -58 -39.667 -104 -81 -138c-38.667 -31.333 -82.667 -47 -132 -47c-54.667 0 -93 20.667 -115 62l-41 -193h-37l128 610h38l-40 -192c43.333 46 94.333 69 153 69c48 0 84 -17 108 -51c22.667 -32 29 -72 19 -120zM358 175
c8.66699 40.667 3.66699 74.332 -15 100.999s-48 40 -88 40c-60.667 0 -108 -27.667 -142 -83c-8 -13.333 -13.333 -26.666 -16 -39.999l-13 -59c-1.33301 -6.66699 -1.66602 -16.667 -0.999023 -30c4.66699 -22.667 16.667 -41.667 36 -57s43.666 -23 72.999 -23
c39.333 0 74.333 13.333 105 40s51 63.667 61 111z" />
    <glyph glyph-name="ydieresis" unicode="&#xff;" horiz-adv-x="337" 
d="M141 0c-58.667 -88.667 -122 -140.667 -190 -156l-2 31c58.667 12.667 111 58 157 136c0 2 -0.333008 6 -1 12l-73 317h42l66 -288l180 288h43zM183 422c-2 -8.66699 -6.5 -15.834 -13.5 -21.501s-14.833 -8.5 -23.5 -8.5s-15.334 2.83301 -20.001 8.5
s-6 12.834 -4 21.501s6.5 16 13.5 22s14.833 9 23.5 9s15.334 -3 20.001 -9s6 -13.333 4 -22zM307 422c-2 -8.66699 -6.5 -15.834 -13.5 -21.501s-14.833 -8.5 -23.5 -8.5s-15.334 2.83301 -20.001 8.5s-6 12.834 -4 21.501s6.5 16 13.5 22s14.833 9 23.5 9
s15.334 -3 20.001 -9s6 -13.333 4 -22z" />
    <glyph glyph-name="Abreve" unicode="&#x102;" horiz-adv-x="400" 
d="M357 0h-43l-23 153h-205l-86 -153h-43l282 483h40zM286 186l-36 254l-145 -254h181zM371 589c-7.33301 -18 -18.668 -32.667 -34.001 -44c-20.667 -16 -44 -24 -70 -24s-46.333 8 -61 24c-9.33301 11.333 -14 26 -14 44h35c0.666992 -7.33301 3 -13.666 7 -18.999
c8 -12 21.333 -18 40 -18s34.334 6 47.001 18c6 5.33301 11.333 11.666 16 18.999h34z" />
    <glyph glyph-name="abreve" unicode="&#x103;" horiz-adv-x="401" 
d="M320 69c-6 -26.667 -4.99902 -49.333 3.00098 -68l-39 -8c-7.33301 24 -9 47 -5 69c-36.667 -48 -83.667 -72 -141 -72c-38.667 0 -68.667 11.167 -90 33.5s-32 52.166 -32 89.499c0 58.667 19 111.334 57 158.001c40 50 88.667 75 146 75
c59.333 0.666992 109.666 -16 150.999 -50zM296.001 143.001l31 136.001c-34 23.333 -68.333 35 -103 35c-48.667 -0.666992 -90 -22.334 -124 -65.001c-30.667 -40 -46 -83.667 -46 -131c0 -29.333 8.5 -52.833 25.5 -70.5s40.833 -26.5 71.5 -26.5
c34 0 64.833 12.167 92.5 36.5s45.167 52.833 52.5 85.5zM356.001 453.002c-7.33301 -18 -18.668 -32.667 -34.001 -44c-20.667 -16 -44 -24 -70 -24s-46.333 8 -61 24c-9.33301 11.333 -14 26 -14 44h35c0.666992 -7.33301 3 -13.666 7 -18.999c8 -12 21.333 -18 40 -18
s34.334 6 47.001 18c6 5.33301 11.333 11.666 16 18.999h34z" />
    <glyph glyph-name="Cacute" unicode="&#x106;" horiz-adv-x="406" 
d="M334 50l5 -31.999c-38.667 -16.667 -83.667 -25 -135 -25c-64.667 0 -113.5 23.167 -146.5 69.5s-42.167 105.166 -27.5 176.499c15.333 71.333 49.333 129.833 102 175.5s111.334 68.5 176.001 68.5c51.333 0 93 -8.33301 125 -25l-19 -32
c-32.667 15.333 -69.667 23 -111 23c-51.333 0 -99 -19 -143 -57c-46.667 -40 -76.667 -91.333 -90 -154s-5.33301 -114 24 -154c28 -38 67.667 -57 119 -57c41.333 0 81.666 7.66699 120.999 23zM257 526.001h-31l70 91l37 -10z" />
    <glyph glyph-name="cacute" unicode="&#x107;" horiz-adv-x="331" 
d="M264 47l7.99902 -32c-32 -16 -68.667 -24 -110 -24c-56 0 -96.667 16.167 -122 48.5s-32.333 75.5 -21 129.5c12 54 37.333 97.167 76 129.5s86 48.5 142 48.5c41.333 0 74.666 -8 99.999 -24l-21 -32c-21.333 16 -50.666 24 -87.999 24
c-40.667 0 -76.834 -13 -108.501 -39s-52.5 -61.667 -62.5 -107c-9.33301 -45.333 -3.66602 -81 17.001 -107s51.334 -39 92.001 -39c37.333 0 70 8 98 24zM190.999 390h-31l70 91l37 -10z" />
    <glyph glyph-name="Ccaron" unicode="&#x10c;" horiz-adv-x="406" 
d="M334 50l5 -31.999c-38.667 -16.667 -83.667 -25 -135 -25c-64.667 0 -113.5 23.167 -146.5 69.5s-42.167 105.166 -27.5 176.499c15.333 71.333 49.333 129.833 102 175.5s111.334 68.5 176.001 68.5c51.333 0 93 -8.33301 125 -25l-19 -32
c-32.667 15.333 -69.667 23 -111 23c-51.333 0 -99 -19 -143 -57c-46.667 -40 -76.667 -91.333 -90 -154s-5.33301 -114 24 -154c28 -38 67.667 -57 119 -57c41.333 0 81.666 7.66699 120.999 23zM316 520.001h-28l-52 78h37l35 -52l57 52h37z" />
    <glyph glyph-name="ccaron" unicode="&#x10d;" horiz-adv-x="331" 
d="M264 47l7.99902 -32c-32 -16 -68.667 -24 -110 -24c-56 0 -96.667 16.167 -122 48.5s-32.333 75.5 -21 129.5c12 54 37.333 97.167 76 129.5s86 48.5 142 48.5c41.333 0 74.666 -8 99.999 -24l-21 -32c-21.333 16 -50.666 24 -87.999 24
c-40.667 0 -76.834 -13 -108.501 -39s-52.5 -61.667 -62.5 -107c-9.33301 -45.333 -3.66602 -81 17.001 -107s51.334 -39 92.001 -39c37.333 0 70 8 98 24zM250.999 384h-28l-52 78h37l35 -52l57 52h37z" />
    <glyph glyph-name="Dcroat" unicode="&#x110;" horiz-adv-x="431" 
d="M411 248c-16.667 -80 -43.333 -140 -80 -180c-43.333 -48 -104.666 -72 -183.999 -72c-30 0 -75 3 -135 9l46 220h-48l7 33h48l45 211c63.333 8 116.666 12 159.999 12c60 0 102.5 -20.5 127.5 -61.5s29.5 -98.167 13.5 -171.5zM372.001 248
c14 64 10.666 113.667 -10.001 149c-20 33.333 -54 50 -102 50c-30.667 0 -69.667 -2.66699 -117 -8l-39 -181h151l-7 -33h-151l-40 -189c32.667 -4 69 -6 109 -6c106.667 0 175.334 72.667 206.001 218z" />
    <glyph glyph-name="dcroat" unicode="&#x111;" horiz-adv-x="401" 
d="M323 83c-5.33301 -24.667 -5.33008 -52.001 0.00292969 -82.001l-39 -8c-3.33301 22.667 -4 44.667 -2 66c-39.333 -45.333 -86 -68 -140 -68c-48.667 0 -83.834 16.833 -105.501 50.5s-26.834 77.834 -15.501 132.501c10.667 50 33.167 91.333 67.5 124
s75.166 49 122.499 49c57.333 0 95.333 -24 114 -72l32 151h-130l7 33h130l10 46h39l-10 -46h48l-7 -33h-48zM295.003 135.999l13.001 56.999c7.33301 36.667 1.16602 66.334 -18.501 89.001s-45.5 34 -77.5 34c-38.667 0 -71.5 -13.333 -98.5 -40s-45.167 -61 -54.5 -103
c-20.667 -99.333 11 -149 95 -149c33.333 0 63.5 10.667 90.5 32s43.833 48 50.5 80z" />
    <glyph glyph-name="Gbreve" unicode="&#x11e;" horiz-adv-x="425" 
d="M390 238l-47.9971 -228.001c-4.66699 4 -11.334 6 -20.001 6l-61.5 -10.5c-41 -7 -68.167 -10.5 -81.5 -10.5c-60.667 0 -104.5 22.167 -131.5 66.5s-32.833 103.5 -17.5 177.5c15.333 70.667 46.666 128 93.999 172c49.333 46.667 108 70 176 70
c48.667 0 89.667 -8 123 -24l-19 -32c-36.667 15.333 -74.334 23 -113.001 23c-50 0 -96 -19.667 -138 -59s-69.667 -89.666 -83 -150.999c-14 -65.333 -10.5 -116.833 10.5 -154.5s58.167 -56.5 111.5 -56.5c42 0 82.333 8.33301 121 25l32 154h-121l7 32h159z
M383.003 588.999c-7.33301 -18 -18.668 -32.667 -34.001 -44c-20.667 -16 -44 -24 -70 -24s-46.333 8 -61 24c-9.33301 11.333 -14 26 -14 44h35c0.666992 -7.33301 3 -13.666 7 -18.999c8 -12 21.333 -18 40 -18s34.334 6 47.001 18c6 5.33301 11.333 11.666 16 18.999h34z
" />
    <glyph glyph-name="gbreve" unicode="&#x11f;" horiz-adv-x="311" 
d="M280 228c-8 -37.333 -25.8369 -67 -53.5039 -89s-58.5 -33 -92.5 -33c-20.667 0 -37.667 3.66699 -51 11c-6 -10 -10 -19.667 -12 -29c-3.33301 -17.333 20.334 -33.666 71.001 -48.999c60 -18 85 -50.667 75 -98c-6 -28.667 -21.333 -52.167 -46 -70.5
s-57 -27.5 -97 -27.5c-35.333 0 -65.333 9 -90 27l20 32c24.667 -16.667 51.334 -25 80.001 -25c24.667 0 46.334 5.66699 65.001 17s29.667 26 33 44c7.33301 32 -13.667 56.667 -63 74c-30 10 -50 19 -60 27c-18 12.667 -25 29 -21 49c2.66699 12 9.33398 28 20.001 48
c-18.667 26.667 -25 55 -19 85c8 36 25.667 65 53 87s56.333 33 87 33h133l-7 -32l-48 5c22 -26.667 29.667 -55.334 23 -86.001zM244.996 223c4.66699 22 1.66895 41.334 -8.99805 58.001c-11.333 20 -30.666 30 -57.999 30c-26.667 0 -49.334 -8.83301 -68.001 -26.5
s-30.334 -38.5 -35.001 -62.5c-6 -26.667 -1.66699 -48 13 -64c13.333 -14.667 30.666 -22 51.999 -22c24 0 46 7.66699 66 23s33 36.666 39 63.999zM325.998 453.001c-7.33301 -18 -18.668 -32.667 -34.001 -44c-20.667 -16 -44 -24 -70 -24s-46.333 8 -61 24
c-9.33301 11.333 -14 26 -14 44h35c0.666992 -7.33301 3 -13.666 7 -18.999c8 -12 21.333 -18 40 -18s34.334 6 47.001 18c6 5.33301 11.333 11.666 16 18.999h34z" />
    <glyph glyph-name="Idotaccent" unicode="&#x130;" horiz-adv-x="147" 
d="M50 0h-39l101 476h39zM179 540c-2 -9.33301 -7 -17.166 -15 -23.499s-17 -9.5 -27 -9.5c-9.33301 0 -16.5 3.16699 -21.5 9.5s-6.5 14.166 -4.5 23.499s7 17.5 15 24.5s16.667 10.5 26 10.5c10 0 17.5 -3.5 22.5 -10.5s6.5 -15.167 4.5 -24.5z" />
    <glyph glyph-name="dotlessi" unicode="&#x131;" horiz-adv-x="143" 
d="M47 0h-38l72 340h38z" />
    <glyph glyph-name="Lslash" unicode="&#x141;" horiz-adv-x="361" 
d="M290 0h-273l41 194l-35 -10l-3 31l45 13l53 248h39l-50 -235l231 69l-7 -37l-232 -66l-36 -174h234z" />
    <glyph glyph-name="lslash" unicode="&#x142;" horiz-adv-x="209" 
d="M194 268l-7.00098 -35.001l-88 -27l-4 -20c-10.667 -49.333 -13.667 -84.666 -9 -105.999c5.33301 -34 27.333 -51.667 66 -53l-11 -34c-83.333 4 -112.666 63.333 -87.999 178l5 23l-35 -10l-3 31l45 13l59 277h39l-56 -264z" />
    <glyph glyph-name="OE" unicode="&#x152;" horiz-adv-x="711" 
d="M637 33l-7 -33h-259l15 74c-54 -56 -117 -84 -189 -84c-65.333 0 -113.5 23.333 -144.5 70s-38.833 105.667 -23.5 177s48.333 130.333 99 177s108.667 70 174 70c72 0 123.333 -28 154 -84l16 76h259l-7 -33h-220l-38 -175h196l-7 -33h-196l-42 -202h220zM401 145
l38.0029 175.001c2 32.667 -11 62.334 -39 89.001c-29.333 27.333 -64.333 41 -105 41c-53.333 0 -101.333 -20.833 -144 -62.5s-70.334 -91.834 -83.001 -150.501s-6.33398 -108.834 18.999 -150.501s64.666 -62.5 117.999 -62.5c38 0 74.5 11 109.5 33
s63.833 51.333 86.5 88z" />
    <glyph glyph-name="oe" unicode="&#x153;" horiz-adv-x="679" 
d="M596 48l-4 -33c-42 -16 -85.667 -24 -131 -24c-73.333 0 -119.333 30 -138 90c-43.333 -60.667 -100 -91 -170 -91c-51.333 0 -89 17.333 -113 52s-30.667 77 -20 127s35.334 92.167 74.001 126.5s83.667 51.5 135 51.5c72 0 116 -31 132 -93c42 62 99 93 171 93
c95.333 0 131.333 -59.667 108 -179h-278c-10 -47.333 -4.5 -83 16.5 -107s52.167 -36 93.5 -36c39.333 0 80.666 7.66699 123.999 23zM324 169c9.33301 40.667 4.50098 75 -14.499 103s-48.167 42 -87.5 42c-38.667 0 -73.334 -13.833 -104.001 -41.5
s-50.667 -62.167 -60 -103.5c-8.66699 -41.333 -3.5 -76 15.5 -104s47.833 -42 86.5 -42c38 0 72.5 13.833 103.5 41.5s51.167 62.5 60.5 104.5zM610.001 199c6 34 1.16699 62.001 -14.5 84.001s-40.5 33 -74.5 33c-32.667 0 -62.667 -10.833 -90 -32.5
s-47.333 -49.834 -60 -84.501h239z" />
    <glyph glyph-name="Scedilla" unicode="&#x15e;" horiz-adv-x="357" 
d="M305 124c-8 -36 -27.334 -66.001 -58.001 -90.001c-35.333 -28.667 -79.333 -43 -132 -43c-52 0 -93 12 -123 36l22 34c28 -24.667 65.333 -37 112 -37c37.333 0 68.5 8.83301 93.5 26.5s40.5 41.167 46.5 70.5c6 26.667 2.5 48.167 -10.5 64.5s-37.167 30.5 -72.5 42.5
c-82.667 28.667 -117.667 73.334 -105 134.001c8 35.333 28.167 64.666 60.5 87.999s70.5 35 114.5 35c44.667 0 79 -8.33301 103 -25c-8 -11.333 -15.667 -21.666 -23 -30.999c-25.333 15.333 -54.666 23 -87.999 23c-37.333 0 -68.333 -9.66699 -93 -29
c-19.333 -16 -31 -34.667 -35 -56c-10 -44 18 -78 84 -102c42.667 -16 72 -33.333 88 -52c18.667 -22 24 -51.667 16 -89zM176.999 -81.001c-8 -38.667 -35.333 -58 -82 -58c-15.333 0 -30 4.33301 -44 13l14 22c12.667 -6.66699 24.667 -10 36 -10
c25.333 0 40 9.33301 44 28c4 16.667 -14.667 26.667 -56 30l51 60h32l-35 -38c32 -8 45.333 -23.667 40 -47z" />
    <glyph glyph-name="scedilla" unicode="&#x15f;" horiz-adv-x="288" 
d="M227 90c-6.66699 -28.667 -22.666 -52.334 -47.999 -71.001s-57.333 -28 -96 -28c-33.333 0 -63.333 9 -90 27l21 32c28.667 -17.333 55 -26 79 -26c56 0 88.333 21 97 63c6.66699 32.667 -14.333 57 -63 73c-57.333 18.667 -81.333 49.334 -72 92.001
c5.33301 26 19.833 48.333 43.5 67s53.167 28 88.5 28s61.666 -7.66699 78.999 -23l-22 -32c-16.667 16 -40 24 -70 24c-21.333 0 -39.333 -5.66699 -54 -17s-23.667 -25.333 -27 -42c-5.33301 -26.667 16 -49 64 -67c56 -20.667 79.333 -54 70 -100zM142.804 -72.9023
c-7.2002 -34.8008 -31.8008 -52.2012 -73.8018 -52.2012c-13.7998 0 -27 3.90039 -39.6006 11.7002l12.6006 19.8008c11.3994 -6 22.1992 -9 32.3994 -9c22.8008 0 36.001 8.40039 39.6016 25.2002c3.59961 15.001 -13.2012 24.001 -50.4023 27.001l45.9014 54.001h28.8008
l-31.501 -34.2002c28.8008 -7.2002 40.8018 -21.3008 36.002 -42.3018z" />
    <glyph glyph-name="Scaron" unicode="&#x160;" horiz-adv-x="352" 
d="M303 124c-8 -36 -27.334 -66.001 -58.001 -90.001c-35.333 -28.667 -79.333 -43 -132 -43c-52 0 -93 12 -123 36l22 34c28 -24.667 65.333 -37 112 -37c37.333 0 68.5 8.83301 93.5 26.5s40.5 41.167 46.5 70.5c6 26.667 2.5 48.167 -10.5 64.5s-37.167 30.5 -72.5 42.5
c-82.667 28.667 -117.667 73.334 -105 134.001c8 35.333 28.167 64.666 60.5 87.999s70.5 35 114.5 35c44.667 0 79 -8.33301 103 -25c-8 -11.333 -15.667 -21.666 -23 -30.999c-25.333 15.333 -54.666 23 -87.999 23c-37.333 0 -68.333 -9.66699 -93 -29
c-19.333 -16 -31 -34.667 -35 -56c-10 -44 18 -78 84 -102c42.667 -16 72 -33.333 88 -52c18.667 -22 24 -51.667 16 -89zM256.999 519.999h-28l-52 78h37l35 -52l57 52h37z" />
    <glyph glyph-name="scaron" unicode="&#x161;" horiz-adv-x="282" 
d="M224 90c-6.66699 -28.667 -22.666 -52.334 -47.999 -71.001s-57.333 -28 -96 -28c-33.333 0 -63.333 9 -90 27l21 32c28.667 -17.333 55 -26 79 -26c56 0 88.333 21 97 63c6.66699 32.667 -14.333 57 -63 73c-57.333 18.667 -81.333 49.334 -72 92.001
c5.33301 26 19.833 48.333 43.5 67s53.167 28 88.5 28s61.666 -7.66699 78.999 -23l-22 -32c-16.667 16 -40 24 -70 24c-21.333 0 -39.333 -5.66699 -54 -17s-23.667 -25.333 -27 -42c-5.33301 -26.667 16 -49 64 -67c56 -20.667 79.333 -54 70 -100zM193.001 384h-28
l-52 78h37l35 -52l57 52h37z" />
    <glyph glyph-name="Ydieresis" unicode="&#x178;" horiz-adv-x="382" 
d="M431 476l-221 -266l-44 -210h-38l44 209l-107 267h45l88 -233l188 233h45zM234 555c-2 -8.66699 -6.5 -15.834 -13.5 -21.501s-14.833 -8.5 -23.5 -8.5s-15.334 2.83301 -20.001 8.5s-6 12.834 -4 21.501s6.5 16 13.5 22s14.833 9 23.5 9s15.334 -3 20.001 -9
s6 -13.333 4 -22zM358 555c-2 -8.66699 -6.5 -15.834 -13.5 -21.501s-14.833 -8.5 -23.5 -8.5s-15.334 2.83301 -20.001 8.5s-6 12.834 -4 21.501s6.5 16 13.5 22s14.833 9 23.5 9s15.334 -3 20.001 -9s6 -13.333 4 -22z" />
    <glyph glyph-name="florin" unicode="&#x192;" horiz-adv-x="398" 
d="M460 446l-23 -28c-10.667 7.33301 -25.334 11 -44.001 11c-52 0 -96.667 -42.333 -134 -127l-12 -26h98l-12 -31h-98l-68 -157c-46 -106.667 -108.667 -160 -188 -160c-25.333 0 -42 5.33301 -50 16l23 28c10.667 -7.33301 25.334 -11 44.001 -11
c51.333 0 95.333 42.333 132 127l68 157h-57l12 31h58l12 26c47.333 106.667 110.333 160 189 160c25.333 0 42 -5.33301 50 -16z" />
    <glyph glyph-name="Ohorn" unicode="&#x1a0;" horiz-adv-x="486" 
d="M471 237c-15.333 -71.333 -48.501 -130.333 -99.501 -177s-109.167 -70 -174.5 -70s-113.5 23.333 -144.5 70s-38.833 105.667 -23.5 177s48.333 130.333 99 177s108.667 70 174 70c58 0 103 -19 135 -57c34.667 30 55.334 61.333 62.001 94h32
c-2.66699 -14.667 -11 -32 -25 -52c-16 -23.333 -34.667 -43 -56 -59c28.667 -46 35.667 -103.667 21 -173zM431.999 237c12.667 58.667 6.33398 108.834 -18.999 150.501s-64.666 62.5 -117.999 62.5s-101.333 -20.833 -144 -62.5s-70.334 -91.834 -83.001 -150.501
s-6.33398 -108.834 18.999 -150.501s64.666 -62.5 117.999 -62.5s101.333 20.833 144 62.5s70.334 91.834 83.001 150.501z" />
    <glyph glyph-name="ohorn" unicode="&#x1a1;" horiz-adv-x="398" 
d="M362 169c-10.667 -50 -35.335 -92.334 -74.002 -127.001s-83.667 -52 -135 -52s-89 17.333 -113 52s-30.667 77 -20 127s35.334 92.167 74.001 126.5s83.667 51.5 135 51.5c44.667 0 80 -14.333 106 -43c28.667 22.667 48.334 54 59.001 94h33
c-10 -40.667 -36.333 -77.667 -79 -111c19.333 -33.333 24 -72.666 14 -117.999zM323.999 168.999c9.33301 41.333 4.33398 75.833 -14.999 103.5s-48.333 41.5 -87 41.5s-73.334 -13.833 -104.001 -41.5s-50.667 -62.167 -60 -103.5c-8.66699 -41.333 -3.5 -76 15.5 -104
s47.833 -42 86.5 -42s73.5 14 104.5 42s50.833 62.667 59.5 104z" />
    <glyph glyph-name="Uhorn" unicode="&#x1af;" horiz-adv-x="466" 
d="M411 201c-29.333 -140 -103.667 -210 -223 -210s-164.333 70 -135 210l59 275h39l-59 -274c-13.333 -62.667 -10 -108 10 -136s51 -42 93 -42c42.667 0 79.667 14 111 42s53.333 73.333 66 136l59 274h39l-10 -44c36 26 58.333 55.667 67 89h32
c-16 -47.333 -51 -87 -105 -119z" />
    <glyph glyph-name="uhorn" unicode="&#x1b0;" horiz-adv-x="373" 
d="M312 83c-5.33301 -24.667 -5.33203 -52 0.000976562 -82l-39 -8c-3.33301 22.667 -4 44.667 -2 66c-38.667 -45.333 -86 -68 -142 -68c-81.333 0 -111 52.667 -89 158l26 121c5.33301 28 4.33301 50.667 -3 68l39 8c7.33301 -22.667 9 -45 5 -67l-26 -123
c-18.667 -87.333 2.66602 -131 63.999 -131c28.667 0 56.667 9.33301 84 28c30 21.333 48.333 48.333 55 81l44 206h39l-9 -41c32 25.333 53.667 58.333 65 99h32c-16 -54.667 -50.333 -97 -103 -127z" />
    <glyph glyph-name="circumflex" unicode="&#x2c6;" horiz-adv-x="212" 
d="M205 470l53 -78h-37l-35 52l-57 -52h-37l85 78h28z" />
    <glyph glyph-name="caron" unicode="&#x2c7;" horiz-adv-x="212" 
d="M158 384h-28l-52 78h37l35 -52l57 52h37z" />
    <glyph glyph-name="breve" unicode="&#x2d8;" horiz-adv-x="302" 
d="M321 453c-7.33301 -18 -18.668 -32.667 -34.001 -44c-20.667 -16 -44 -24 -70 -24s-46.333 8 -61 24c-9.33301 11.333 -14 26 -14 44h35c0.666992 -7.33301 3 -13.666 7 -18.999c8 -12 21.333 -18 40 -18s34.334 6 47.001 18c6 5.33301 11.333 11.666 16 18.999h34z" />
    <glyph glyph-name="dotaccent" unicode="&#x2d9;" horiz-adv-x="302" 
d="M256 540c-2 -9.33301 -7 -17.166 -15 -23.499s-17 -9.5 -27 -9.5c-9.33301 0 -16.5 3.16699 -21.5 9.5s-6.5 14.166 -4.5 23.499s7 17.5 15 24.5s16.667 10.5 26 10.5c10 0 17.5 -3.5 22.5 -10.5s6.5 -15.167 4.5 -24.5z" />
    <glyph glyph-name="ring" unicode="&#x2da;" horiz-adv-x="302" 
d="M307 440c-4 -19.333 -14.666 -36.166 -31.999 -50.499s-36.333 -21.5 -57 -21.5c-19.333 0 -34.666 7.16699 -45.999 21.5s-15 31.166 -11 50.499c4.66699 20.667 15.667 38.334 33 53.001s35.666 22 54.999 22c20.667 0 36.667 -7.33301 48 -22
s14.666 -32.334 9.99902 -53.001zM278.001 439c2.66699 12.667 0.669922 23.167 -5.99707 31.5s-16.334 12.5 -29.001 12.5c-12 0 -22.833 -4.16699 -32.5 -12.5s-15.834 -18.833 -18.501 -31.5c-2.66699 -11.333 -0.833984 -21 5.49902 -29s15.5 -12 27.5 -12
c12.667 0 24 4 34 12s16.333 17.667 19 29z" />
    <glyph glyph-name="ogonek" unicode="&#x2db;" horiz-adv-x="302" 
d="M144 -143c-14 -5.33301 -26.502 -9.16406 -37.502 -11.4971s-22.167 -3.5 -33.5 -3.5c-24 0 -40.167 7.16699 -48.5 21.5s-10.5 31.166 -6.5 50.499c2.66699 12 7.33398 25.667 14.001 41s14.334 31.666 23.001 48.999h40c-19.333 -32.667 -31.333 -59.334 -36 -80.001
c-6 -28.667 4 -44 30 -46c20 0 40.667 5 62 15z" />
    <glyph glyph-name="tilde" unicode="&#x2dc;" horiz-adv-x="212" 
d="M247 457c-4.66699 -17.333 -12.501 -32 -23.501 -44s-24.167 -18 -39.5 -18c-6 0 -12.167 1.5 -18.5 4.5s-12.666 6.16699 -18.999 9.5l-18 9.5c-5.66699 3 -10.834 4.5 -15.501 4.5c-5.33301 0 -10.166 -3 -14.499 -9s-7.83301 -13.667 -10.5 -23h-25
c4 16 10.5 30.667 19.5 44s21.167 20 36.5 20c6.66699 0 13 -1.5 19 -4.5s12 -6.5 18 -10.5s12 -7.5 18 -10.5s12.667 -4.5 20 -4.5c4.66699 0 9.5 2.5 14.5 7.5s9.16699 13.167 12.5 24.5h26z" />
    <glyph glyph-name="hungarumlaut" unicode="&#x2dd;" horiz-adv-x="279" 
d="M183 330h-27l93 161h47zM96 330h-27l93 161h47z" />
    <glyph glyph-name="gravecomb" unicode="&#x300;" 
d="M12 390h-31l-40 81l41 10z" />
    <glyph glyph-name="acutecomb" unicode="&#x301;" 
d="M-56 390h-31l70 91l37 -10z" />
    <glyph glyph-name="tildecomb" unicode="&#x303;" 
d="M34 454h28c-10 -41.333 -30.333 -62 -61 -62c-8.66699 0 -21.167 4.66699 -37.5 14s-27.5 14 -33.5 14c-11.333 0 -20 -10.667 -26 -32h-26c10.667 42.667 30 64 58 64c8.66699 0 20.667 -5 36 -15s28 -15 38 -15c11.333 0 19.333 10.667 24 32z" />
    <glyph glyph-name="hookabovecomb" unicode="&#x309;" 
d="M13 471c-4.66699 -20.667 -17.833 -38.332 -39.5 -52.999s-33.5 -26 -35.5 -34h-31c4.66699 17.333 17.5 32.666 38.5 45.999s33.167 27 36.5 41c2 9.33301 0.333008 16.5 -5 21.5s-13.333 7.5 -24 7.5c-17.333 0 -34.333 -9.33301 -51 -28l-16 15
c20.667 26.667 46.667 40 78 40c18 0 31.5 -4.83301 40.5 -14.5s11.833 -23.5 8.5 -41.5z" />
    <glyph glyph-name="dotbelowcomb" unicode="&#x323;" 
d="M-108 -77c-1.33301 -8 -5.33203 -14.833 -11.999 -20.5s-14.334 -8.5 -23.001 -8.5c-8 0 -14.167 2.83301 -18.5 8.5s-5.83301 12.5 -4.5 20.5c1.33301 6.66699 5.5 13 12.5 19s14.5 9 22.5 9c8.66699 0 15 -3 19 -9s5.33301 -12.333 4 -19z" />
    <glyph glyph-name="uni0E00" unicode="&#xe00;" 
 />
    <glyph glyph-name="uni0E01" unicode="&#xe01;" horiz-adv-x="386" 
d="M294 34c-8 -31.333 -24.001 -55.0029 -48.001 -71.0029l-28 18c22.667 17.333 37 39.333 43 66l45 214c6.66699 32.667 2 58.667 -14 78s-40 29 -72 29c-22.667 0 -46 -6.33301 -70 -19s-42.333 -29 -55 -49c38.667 -3.33301 62.667 -18 72 -44
c-16.667 -3.33301 -32.5 -12.166 -47.5 -26.499s-24.5 -30.166 -28.5 -47.499l-38 -182h-36l38 181c8.66699 39.333 31.667 66 69 80c-20 10.667 -44.667 14.334 -74 11.001c13.333 37.333 36.833 68 70.5 92s69.834 36 108.501 36c43.333 0 75.333 -12 96 -36
s26.667 -57 18 -99z" />
    <glyph glyph-name="uni0E02" unicode="&#xe02;" horiz-adv-x="378" 
d="M129 289c2 9.33301 0.666992 17 -4 23s-11.667 9 -21 9s-17.666 -3 -24.999 -9s-12 -13.667 -14 -23s-0.666992 -17 4 -23s11.667 -9 21 -9s17.666 3 24.999 9s12 13.667 14 23zM296 83c-12.667 -60.667 -49.668 -91.002 -111.001 -91.002c-60 0 -83.667 30.333 -71 91
l20 95c4 16.667 17.333 39.334 40 68.001s35.667 51 39 67c3.33301 15.333 -0.333984 28.833 -11.001 40.5s-25.334 17.5 -44.001 17.5c-29.333 0 -53.666 -9.66699 -72.999 -29c6.66699 2.66699 14.667 4 24 4c17.333 0 30.333 -5.5 39 -16.5s11.334 -24.833 8.00098 -41.5
c-4 -17.333 -12.667 -31.833 -26 -43.5s-28.666 -17.5 -45.999 -17.5c-20.667 0 -34.834 7.66699 -42.501 23s-9.16699 34 -4.5 56c4.66699 24.667 18.667 46.5 42 65.5s52 28.5 86 28.5c29.333 0 51.833 -7.33301 67.5 -22s20.834 -34.667 15.501 -60
c-4 -19.333 -17.333 -44.666 -40 -75.999s-35.667 -54.333 -39 -69l-19 -93c-8 -37.333 6.33301 -56 43 -56s59 18.667 67 56l61 287c5.33301 25.333 15 45.333 29 60l28 -18c-9.33301 -8 -17.333 -26.333 -24 -55z" />
    <glyph glyph-name="uni0E03" unicode="&#xe03;" horiz-adv-x="382" 
d="M124 249c2 9.33301 0.666016 17 -4.00098 23s-11.667 9 -21 9s-17.666 -3 -24.999 -9s-12 -13.667 -14 -23s-0.5 -17 4.5 -23s12.167 -9 21.5 -9s17.5 3 24.5 9s11.5 13.667 13.5 23zM299.999 83c-12.667 -60.667 -49.665 -91 -110.998 -91c-60 0 -83.667 30.333 -71 91
l14 63c4 21.333 19.5 48.166 46.5 80.499s42.833 58.833 47.5 79.5c7.33301 34.667 -1.33398 54.667 -26.001 60l-44 -42l-27 41c-24.667 -14.667 -43 -34 -55 -58c10 4 21 6 33 6c19.333 0 33.333 -6.16699 42 -18.5s11 -27.833 7 -46.5c-4 -19.333 -13.5 -35 -28.5 -47
s-31.5 -18 -49.5 -18c-22.667 0 -38 9.33301 -46 28c-6.66699 16.667 -7.66699 37 -3 61c6 28.667 19.667 55.334 41 80.001c23.333 27.333 49.333 43.666 78 48.999l17 -35l35 35c23.333 -2.66699 40.666 -14 51.999 -34c9.33301 -18.667 11.333 -40 6 -64
c-4.66699 -20.667 -20 -47.667 -46 -81s-41 -59.666 -45 -78.999l-13 -63c-8 -37.333 6.33301 -56 43 -56s59 18.667 67 56l61 287c5.33301 25.333 15 45.333 29 60l28 -18c-9.33301 -8 -17.333 -26.333 -24 -55z" />
    <glyph glyph-name="uni0E04" unicode="&#xe04;" horiz-adv-x="393" 
d="M301 34c-8 -31.333 -24 -54.9971 -48 -70.9971l-28 18c22.667 17.333 37 39.333 43 66l47 222c6.66699 32 0 56.5 -20 73.5s-45 25.5 -75 25.5c-30.667 0 -59.834 -10.5 -87.501 -31.5s-44.5 -46.833 -50.5 -77.5c-3.33301 -14.667 -4.66602 -32.334 -3.99902 -53.001
c1.33301 -29.333 2 -46 2 -50c14 38 31 70.333 51 97c26.667 34.667 54.667 52 84 52c16.667 0 29.334 -5.33301 38.001 -16s11 -25 7 -43c-4 -16.667 -12.833 -30.834 -26.5 -42.501s-28.834 -17.5 -45.501 -17.5c-17.333 0 -31 8 -41 24c-12 -14 -25.667 -34 -41 -60
c-18 -32 -29.667 -60.333 -35 -85l-13 -65h-36l19 92c4 19.333 4.5 46.666 1.5 81.999s-2.5 62.333 1.5 81c9.33301 43.333 31.5 78.333 66.5 105s74.5 40 118.5 40c40.667 0 73.5 -10.833 98.5 -32.5s32.833 -53.5 23.5 -95.5zM232 246.003
c2 8.66699 0.499023 16 -4.50098 22s-11.833 9 -20.5 9s-16.5 -3 -23.5 -9s-11.5 -13.333 -13.5 -22s-0.666992 -16 4 -22s11.334 -9 20.001 -9s16.667 3 24 9s12 13.333 14 22z" />
    <glyph glyph-name="uni0E05" unicode="&#xe05;" horiz-adv-x="393" 
d="M301 34c-8 -31.333 -24.002 -55.002 -48.002 -71.002l-28 18c22.667 17.333 37 39.333 43 66l49 233c9.33301 46 -7 74.333 -49 85l-59 -54l-42 55c-23.333 -11.333 -43.333 -28.666 -60 -51.999c-12 -17.333 -19.667 -33.666 -23 -48.999
c-4.66699 -22.667 -6.66699 -62.334 -6 -119.001c36.667 90.667 80 136 130 136c17.333 0 30.333 -5.33301 39 -16s11 -24.667 7 -42c-3.33301 -16.667 -11.666 -30.667 -24.999 -42s-28 -17 -44 -17c-21.333 0 -37.333 7.66699 -48 23
c-10.667 -9.33301 -22.667 -27 -36 -53c-14.667 -28.667 -24.667 -55.667 -30 -81l-11 -54h-36l17 80c4 20.667 4.5 50.334 1.5 89.001s-2.5 68 1.5 88c16.667 76.667 63.334 125 140.001 145l33 -51l51 51c70 -14.667 98.333 -54.667 85 -120zM226.998 223.998
c2 8.66699 0.667969 16 -3.99902 22s-11.334 9 -20.001 9s-16.667 -3 -24 -9s-12 -13.333 -14 -22s-0.5 -16 4.5 -22s11.833 -9 20.5 -9s16.5 3 23.5 9s11.5 13.333 13.5 22z" />
    <glyph glyph-name="uni0E06" unicode="&#xe06;" horiz-adv-x="408" 
d="M144 61c2 9.33301 0.333008 17.5 -5 24.5s-12.666 10.5 -21.999 10.5s-18.333 -3.5 -27 -10.5s-14 -15.167 -16 -24.5s-0.166992 -17.5 5.5 -24.5s13.167 -10.5 22.5 -10.5s18.166 3.5 26.499 10.5s13.5 15.167 15.5 24.5zM124 249c2 9.33301 0.666016 17 -4.00098 23
s-11.667 9 -21 9s-17.666 -3 -24.999 -9s-12 -13.667 -14 -23s-0.5 -17 4.5 -23s12.167 -9 21.5 -9s17.5 3 24.5 9s11.5 13.667 13.5 23zM308.999 0l-35.999 0.00195312c-17.333 54.667 -51 87.667 -101 99c6.66699 -10.667 8.33398 -23.334 5.00098 -38.001
c-4 -19.333 -13.833 -35.666 -29.5 -48.999s-33.167 -20 -52.5 -20c-20 0 -35.167 6.66699 -45.5 20s-13.5 29.666 -9.5 48.999c4.66699 19.333 15 35.5 31 48.5s33.667 19.5 53 19.5h4l4 17c4 21.333 19.5 48.166 46.5 80.499s42.833 58.833 47.5 79.5
c7.33301 34.667 -1.33398 54.667 -26.001 60l-44 -42l-27 41c-24.667 -14.667 -43 -34 -55 -58c10 4 21 6 33 6c19.333 0 33.333 -6.16699 42 -18.5s11 -27.833 7 -46.5c-4 -19.333 -13.5 -35 -28.5 -47s-31.5 -18 -49.5 -18c-22.667 0 -38 9.33301 -46 28
c-6.66699 16.667 -7.66699 37 -3 61c6 28.667 19.667 55.334 41 80.001c23.333 27.333 49.333 43.666 78 48.999l17 -35l35 35c23.333 -2.66699 40.166 -13.167 50.499 -31.5s12.833 -40.5 7.5 -66.5c-4.66699 -20.667 -20 -47.667 -46 -81s-41 -59.666 -45 -78.999l-3 -15
c58 -6.66699 98 -31.334 120 -74.001l67 313c5.33301 25.333 15 45.333 29 60l28 -18c-9.33301 -8 -17.333 -26.333 -24 -55z" />
    <glyph glyph-name="uni0E07" unicode="&#xe07;" horiz-adv-x="294" 
d="M233 335c2 9.33301 0.333008 17.333 -5 24s-12.666 10 -21.999 10s-18 -3.33301 -26 -10s-13 -14.667 -15 -24s-0.5 -17.333 4.5 -24s12.167 -10 21.5 -10s18.166 3.33301 26.499 10s13.5 14.667 15.5 24zM195 0h-36l-120 176c-8 12.667 -13.333 27 -16 43l24 29
c4 -19.333 11.667 -38 23 -56l99 -141l48 224c-10.667 -4.66699 -21.667 -7 -33 -7c-18 0 -32 6.5 -42 19.5s-13.333 28.167 -10 45.5c4 19.333 13.833 35.333 29.5 48s32.834 19 51.501 19c21.333 0 36.666 -7 45.999 -21c8 -12.667 10 -28 6 -46z" />
    <glyph glyph-name="uni0E08" unicode="&#xe08;" horiz-adv-x="367" 
d="M281 65c-10 -49.333 -38.665 -73.999 -85.998 -73.999c-37.333 0 -55 18.667 -53 56l7 112c-11.333 -6 -23.333 -9 -36 -9c-16.667 0 -29.334 5.66699 -38.001 17s-11.334 25.333 -8.00098 42c3.33301 17.333 12 31.833 26 43.5s29.333 17.5 46 17.5
c14.667 0 26.667 -4.83301 36 -14.5s13.666 -21.834 12.999 -36.501l-7 -170c-0.666992 -16.667 7 -25 23 -25c22 0 35.333 12 40 36l50 235c5.33301 26 -1 44.5 -19 55.5s-40.667 16.5 -68 16.5c-30 0 -56.333 -6.33301 -79 -19s-38.667 -30 -48 -52h-37
c9.33301 28 27.333 51.333 54 70c32.667 22.667 71.334 34 116.001 34c93.333 0 132.333 -35 117 -105zM158.002 209.001c2 8.66699 0.666992 16 -4 22s-11.334 9 -20.001 9s-16.5 -3 -23.5 -9s-11.5 -13.333 -13.5 -22s-0.666992 -15.834 4 -21.501
s11.334 -8.5 20.001 -8.5s16.5 2.83301 23.5 8.5s11.5 12.834 13.5 21.501z" />
    <glyph glyph-name="uni0E09" unicode="&#xe09;" horiz-adv-x="377" 
d="M307 55c-3.33301 -17.333 -11.999 -32.001 -25.999 -44.001s-30.667 -18 -50 -18c-17.333 0 -30.666 6 -39.999 18s-12.333 26.667 -9 44c1.33301 6 2.66602 10.333 3.99902 13c-41.333 -16 -75 -38.667 -101 -68h-45l19 93c4 19.333 9.66699 34 17 44h-4
c-16.667 0 -29.667 5.83301 -39 17.5s-12.333 25.834 -9 42.501c4 17.333 13 31.833 27 43.5s29.333 17.5 46 17.5c17.333 0 30.666 -5.83301 39.999 -17.5s12 -26.167 8 -43.5c-2.66699 -12.667 -10.667 -28.5 -24 -47.5s-21.333 -35.833 -24 -50.5l-14 -64
c28.667 32 70 55.667 124 71c42 17.333 67 46 75 86l22 100c4.66699 23.333 -3.33301 42.333 -24 57c-18 12 -40.667 18 -68 18c-25.333 0 -50 -6 -74 -18c-27.333 -14 -46 -32.333 -56 -55h-37c8 28 26.333 52 55 72c33.333 22.667 72.333 34 117 34
c43.333 0 76 -8.66699 98 -26c24 -19.333 32 -47 24 -83l-21 -101c-6.66699 -32 -21 -57 -43 -75c28 -9.33301 38.667 -29.333 32 -60zM278.001 54.999c2 9.33301 0.5 17.166 -4.5 23.499s-12.167 9.5 -21.5 9.5c-8.66699 0 -17 -3.16699 -25 -9.5s-13 -14.166 -15 -23.499
c-2 -8.66699 -0.333008 -16.334 5 -23.001s12.333 -10 21 -10c9.33301 0 17.833 3.33301 25.5 10s12.5 14.334 14.5 23.001zM115.001 196.999c2 8.66699 0.833008 15.834 -3.5 21.501s-10.833 8.5 -19.5 8.5s-16.5 -2.83301 -23.5 -8.5s-11.5 -12.834 -13.5 -21.501
c-1.33301 -8.66699 0.166992 -15.834 4.5 -21.501s10.833 -8.5 19.5 -8.5s16.5 2.83301 23.5 8.5s11.167 12.834 12.5 21.501z" />
    <glyph glyph-name="uni0E0A" unicode="&#xe0a;" horiz-adv-x="380" 
d="M298 83c-12.667 -60.667 -49.999 -91.0029 -111.999 -91.0029c-60.667 0 -84.667 30.333 -72 91l20 95c4 16.667 17.333 39.334 40 68.001s35.667 51 39 67c3.33301 15.333 -0.333984 28.833 -11.001 40.5s-25.334 17.5 -44.001 17.5
c-29.333 0 -53.666 -9.66699 -72.999 -29c6.66699 2.66699 14.667 4 24 4c17.333 0 30.333 -5.5 39 -16.5s11.334 -24.833 8.00098 -41.5c-4 -17.333 -12.667 -31.833 -26 -43.5s-28.666 -17.5 -45.999 -17.5c-20.667 0 -34.834 7.66699 -42.501 23s-9.16699 34 -4.5 56
c4.66699 24.667 18.667 46.5 42 65.5s52 28.5 86 28.5c29.333 0 51.833 -7.33301 67.5 -22s20.834 -34.667 15.501 -60c-4 -19.333 -17.333 -44.666 -40 -75.999s-35.667 -54.333 -39 -69l-19 -93c-8 -37.333 6.66699 -56 44 -56s60 18.667 68 56l34 161
c6 29.333 -4.33301 49 -31 59c10.667 30.667 27.667 57.834 51 81.501s51.666 38.834 84.999 45.501l18 -25c-52.667 -9.33301 -91.334 -39 -116.001 -89c27.333 -10.667 37.333 -33.334 30 -68.001zM129.001 288.997c2 9.33301 0.666992 17 -4 23s-11.667 9 -21 9
s-17.666 -3 -24.999 -9s-12 -13.667 -14 -23s-0.666992 -17 4 -23s11.667 -9 21 -9s17.666 3 24.999 9s12 13.667 14 23z" />
    <glyph glyph-name="uni0E0B" unicode="&#xe0b;" horiz-adv-x="384" 
d="M124 249c2 9.33301 0.666016 17 -4.00098 23s-11.667 9 -21 9s-17.666 -3 -24.999 -9s-12 -13.667 -14 -23s-0.5 -17 4.5 -23s12.167 -9 21.5 -9s17.5 3 24.5 9s11.5 13.667 13.5 23zM301.999 83c-12.667 -60.667 -49.9961 -91.001 -111.996 -91.001
c-60.667 0 -84.667 30.333 -72 91l14 63c4 21.333 19.5 48.166 46.5 80.499s42.833 58.833 47.5 79.5c7.33301 34.667 -1.33398 54.667 -26.001 60l-44 -42l-27 41c-24.667 -14.667 -43 -34 -55 -58c10 4 21 6 33 6c19.333 0 33.333 -6.16699 42 -18.5s11 -27.833 7 -46.5
c-4 -19.333 -13.5 -35 -28.5 -47s-31.5 -18 -49.5 -18c-22.667 0 -38 9.33301 -46 28c-6.66699 16.667 -7.66699 37 -3 61c6 28.667 19.667 55.334 41 80.001c23.333 27.333 49.333 43.666 78 48.999l17 -35l35 35c23.333 -2.66699 40.666 -14 51.999 -34
c9.33301 -18.667 11.333 -40 6 -64c-4.66699 -20.667 -20 -47.667 -46 -81s-41 -59.666 -45 -78.999l-13 -62c-8 -38 6.66699 -57 44 -57s60 18.667 68 56l34 161c6 29.333 -4.33301 49 -31 59c10.667 30.667 27.667 57.834 51 81.501s51.666 38.834 84.999 45.501l18 -25
c-52.667 -9.33301 -91.334 -39 -116.001 -89c27.333 -10.667 37.333 -33.334 30 -68.001z" />
    <glyph glyph-name="uni0E0C" unicode="&#xe0c;" horiz-adv-x="519" 
d="M420 0h-36.999c-11.333 24.667 -33.333 48 -66 70c0.666992 -5.33301 0.666992 -9.66602 0 -12.999c-4 -18 -13.167 -33.5 -27.5 -46.5s-31.833 -19.5 -52.5 -19.5c-18 0 -32.167 6.5 -42.5 19.5s-13.5 28.5 -9.5 46.5c3.33301 17.333 12.166 32.333 26.499 45
s30.166 19.667 47.499 21l30 142c14.667 68.667 -12.333 103 -81 103c-21.333 0 -43 -6.5 -65 -19.5s-38.667 -29.5 -50 -49.5c36.667 -2.66699 60.334 -17.334 71.001 -44.001c-16.667 -3.33301 -32.5 -12 -47.5 -26s-24.5 -29.667 -28.5 -47l-13 -63
c6.66699 2.66699 14.667 4 24 4c18 0 32 -6.5 42 -19.5s13.333 -28.5 10 -46.5c-4 -18 -13.5 -33.5 -28.5 -46.5s-32.167 -19.5 -51.5 -19.5s-33.833 6.5 -43.5 19.5s-12.5 28.5 -8.5 46.5c2 10.667 6.33301 20.334 13 29.001l20 95c7.33301 36 30.333 62.333 69 79
c-23.333 10 -49 13.667 -77 11c14 37.333 37.167 68.166 69.5 92.499s66.833 36.5 103.5 36.5c42 0 72.833 -11.5 92.5 -34.5s25.167 -55.167 16.5 -96.5l-32 -150c50.667 -18.667 83.667 -42.667 99 -72l69 320c5.33301 25.333 15 45.333 29 60l28 -18
c-9.33301 -8 -17.333 -26.333 -24 -55zM284.001 57c2 9.33301 0.332031 17.333 -5.00098 24s-12.666 10 -21.999 10s-17.833 -3.33301 -25.5 -10s-12.5 -14.667 -14.5 -24s-0.5 -17.166 4.5 -23.499s12.167 -9.5 21.5 -9.5s18 3.16699 26 9.5s13 14.166 15 23.499zM119 57
c2 9.33301 0.332031 17.333 -5.00098 24s-12.666 10 -21.999 10s-17.833 -3.33301 -25.5 -10s-12.5 -14.667 -14.5 -24s-0.5 -17.166 4.5 -23.499s12.167 -9.5 21.5 -9.5s18 3.16699 26 9.5s13 14.166 15 23.499z" />
    <glyph glyph-name="uni0E0D" unicode="&#xe0d;" horiz-adv-x="519" 
d="M427 -34c-9.33301 -40 -26.6641 -72.834 -51.9971 -98.501s-59 -38.5 -101 -38.5c-26.667 0 -48.834 8.33301 -66.501 25s-23.834 37.334 -18.501 62.001c2.66699 14.667 10.5 27.334 23.5 38.001s26.833 16 41.5 16c15.333 0 27.166 -5.33301 35.499 -16
s11.166 -23.334 8.49902 -38.001c-5.33301 -24.667 -20.666 -41.667 -45.999 -51c6.66699 -4.66699 15.667 -7 27 -7c57.333 0 94.333 36 111 108h37zM271.002 -84.001c1.33301 7.33301 -0.167969 13.666 -4.50098 18.999s-10.166 8 -17.499 8s-14.166 -2.66699 -20.499 -8
s-10.166 -11.666 -11.499 -18.999c-2 -7.33301 -0.833008 -13.666 3.5 -18.999s10.166 -8 17.499 -8s14.166 2.66699 20.499 8s10.5 11.666 12.5 18.999zM126.001 56.999c2 9.33301 0.332031 17.333 -5.00098 24s-12.666 10 -21.999 10s-17.833 -3.33301 -25.5 -10
s-12.5 -14.667 -14.5 -24s-0.5 -17.166 4.5 -23.499s12.167 -9.5 21.5 -9.5s18 3.16699 26 9.5s13 14.166 15 23.499zM437 81.999c-12.667 -60 -51.6689 -89.9971 -117.002 -89.9971c-64.667 0 -90.667 30.333 -78 91l39 182c14.667 68.667 -10.333 103 -75 103
c-21.333 0 -42.5 -6.33301 -63.5 -19s-37.5 -29.334 -49.5 -50.001c36.667 -2.66699 60.334 -17.334 71.001 -44.001c-16.667 -3.33301 -32.5 -12 -47.5 -26s-24.5 -29.667 -28.5 -47l-14 -65c10 4 20.667 6 32 6c18.667 0 33 -6.33301 43 -19s13 -28 9 -46
s-12.5 -33.667 -25.5 -47s-31.167 -20 -54.5 -20c-19.333 0 -34 6.16699 -44 18.5s-12.667 28.833 -8 49.5l26 122c7.33301 36 30.333 62.333 69 79c-23.333 10 -49 13.667 -77 11c14 37.333 36.833 68.166 68.5 92.499s65.834 36.5 102.501 36.5
c41.333 0 71 -11.333 89 -34s22.667 -55 14 -97l-40 -189c-8 -37.333 8.66699 -56 50 -56c40.667 0 65 18.667 73 56l61 287c5.33301 25.333 15 45.333 29 60l28 -18c-9.33301 -8 -17.333 -26.333 -24 -55z" />
    <glyph glyph-name="uni0E0E" unicode="&#xe0e;" horiz-adv-x="425" 
d="M280 -215l-39.9941 -0.000976562c-2 16 -13.833 32 -35.5 48s-41.834 26.667 -60.501 32l-2 -7c-4 -21.333 -14 -39.5 -30 -54.5s-34.667 -22.5 -56 -22.5c-20 0 -34.333 5.83301 -43 17.5s-11.334 26.167 -8.00098 43.5c4.66699 20.667 15.5 37 32.5 49
s35.833 18 56.5 18c3.33301 0 12 -1 26 -3c7.33301 24.667 23.333 43.334 48 56.001l24 -16c-22.667 -12.667 -36.334 -28.667 -41.001 -48c49.333 -18.667 83.666 -41 102.999 -67l91 429c6.66699 32.667 2 58.834 -14 78.501s-40 29.5 -72 29.5
c-22.667 0 -46 -6.5 -70 -19.5s-42 -29.5 -54 -49.5c34.667 -3.33301 58.667 -18 72 -44c-38.667 -12 -62 -36.333 -70 -73c-5.33301 -26 -8 -52.667 -8 -80c0 -12 -1.66699 -26 -5 -42c-4 -19.333 -13.833 -35.5 -29.5 -48.5s-32.5 -19.5 -50.5 -19.5
s-31.833 6.33301 -41.5 19s-12.5 28 -8.5 46c3.33301 18 12.666 33.5 27.999 46.5s32 19.5 50 19.5c7.33301 0 15 -1.66699 23 -5c2 30.667 4.66699 54 8 70c6.66699 30.667 25.334 54.667 56.001 72c-16.667 8 -33.667 12 -51 12c-8.66699 0 -15 -0.333008 -19 -1
c11.333 37.333 34.166 68.166 68.499 92.499s70.833 36.5 109.5 36.5c42.667 0 74.667 -12.167 96 -36.5s27.666 -57.5 18.999 -99.5zM110.006 -127.001c-6 2 -13 3 -21 3c-30 0 -47.333 -10.667 -52 -32c-4 -20.667 5 -31 27 -31c23.333 0 38 15 44 45
c1.33301 4.66699 2 9.66699 2 15zM92.0059 56.999c2 9.33301 0.332031 17.333 -5.00098 24s-12.666 10 -21.999 10s-17.833 -3.33301 -25.5 -10s-12.5 -14.667 -14.5 -24s-0.5 -17.166 4.5 -23.499s12.167 -9.5 21.5 -9.5s18 3.16699 26 9.5s13 14.166 15 23.499z" />
    <glyph glyph-name="uni0E0F" unicode="&#xe0f;" horiz-adv-x="425" 
d="M75 -134c-4.66699 6 -14 9 -28 9c-26 0 -41.333 -11.333 -46 -34c-4 -20 4.33301 -30 25 -30c24.667 0 41 18.333 49 55zM280 -215l-39.998 0.00195312l-41 61l-57 -60l-42 60c-5.33301 -20.667 -15.5 -36.834 -30.5 -48.501s-30.833 -17.5 -47.5 -17.5
c-20 0 -34.333 6 -43 18s-11 26.667 -7 44c4 19.333 13.5 34.833 28.5 46.5s31.833 17.5 50.5 17.5c12.667 0 23 -2.33301 31 -7c6 23.333 23.667 42.666 53 57.999l24 -16c-26 -14 -42 -32.667 -48 -56l38 -52l60 63l45 -65l91 429c6.66699 32.667 2 58.834 -14 78.501
s-40 29.5 -72 29.5c-22.667 0 -46 -6.5 -70 -19.5s-42 -29.5 -54 -49.5c34.667 -3.33301 58.667 -18 72 -44c-38.667 -12 -62 -36.333 -70 -73c-5.33301 -26 -8 -52.667 -8 -80c0 -12 -1.66699 -26 -5 -42c-4 -19.333 -13.833 -35.5 -29.5 -48.5s-32.5 -19.5 -50.5 -19.5
s-31.833 6.33301 -41.5 19s-12.5 28 -8.5 46c3.33301 18 12.666 33.5 27.999 46.5s32 19.5 50 19.5c7.33301 0 15 -1.66699 23 -5c2 30.667 4.66699 54 8 70c6.66699 30.667 25.334 54.667 56.001 72c-16.667 8 -33.667 12 -51 12c-8.66699 0 -15 -0.333008 -19 -1
c11.333 37.333 34.166 68.166 68.499 92.499s70.833 36.5 109.5 36.5c42.667 0 74.667 -12.167 96 -36.5s27.666 -57.5 18.999 -99.5zM92.002 57.002c2 9.33301 0.332031 17.333 -5.00098 24s-12.666 10 -21.999 10s-17.833 -3.33301 -25.5 -10s-12.5 -14.667 -14.5 -24
s-0.5 -17.166 4.5 -23.499s12.167 -9.5 21.5 -9.5s18 3.16699 26 9.5s13 14.166 15 23.499z" />
    <glyph glyph-name="uni0E10" unicode="&#xe10;" horiz-adv-x="343" 
d="M256 79c-12 -58.667 -44.6689 -88 -98.002 -88c-52.667 0 -73 29.333 -61 88l11 51c-8 -2.66699 -16.667 -4 -26 -4c-16.667 0 -29.5 5.5 -38.5 16.5s-11.5 24.833 -7.5 41.5c3.33301 17.333 12 31.833 26 43.5s29.333 17.5 46 17.5
c17.333 0 30.666 -5.16699 39.999 -15.5s12 -24.833 8 -43.5l-23 -110c-7.33301 -34.667 3.33398 -52 32.001 -52c29.333 0 47.666 17.333 54.999 52l30 145c4 16 -24.667 32 -86 48c-36.667 10 -76.334 18 -119.001 24c8.66699 30.667 25.834 56.167 51.501 76.5
s56.167 30.5 91.5 30.5c14 0 32 -3.66699 54 -11s39.333 -11 52 -11c23.333 0 40 16.333 50 49l29 -7c-18 -52.667 -46.333 -79 -85 -79c-14.667 0 -34 4 -58 12s-42.667 12 -56 12c-15.333 0 -31.166 -4.5 -47.499 -13.5s-26.166 -19.5 -29.499 -31.5
c63.333 -13.333 108 -25.333 134 -36c42.667 -16.667 61.334 -36.667 56.001 -60zM220.998 -100l-23.999 -115.998h-39l-38 27l-49 -26l-34 55c-4 -18.667 -13.333 -33.334 -28 -44.001s-30.667 -16 -48 -16c-42.667 0.666992 -60 19.667 -52 57
c3.33301 16 12.5 28.333 27.5 37s31.5 13 49.5 13c14.667 0 25.667 -1.66699 33 -5c10 27.333 29 47.666 57 60.999l24 -15c-30 -13.333 -48 -33 -54 -59l33 -51l47 22l42 -30l10 45c-4 -0.666992 -9.66699 -1 -17 -1c-14 0 -25 4.5 -33 13.5s-10.667 19.833 -8 32.5
s10 23.5 22 32.5s25 13.5 39 13.5c13.333 0 24.166 -4.16699 32.499 -12.5s10.833 -19.5 7.5 -33.5zM8.99902 -146.998c-5.33301 4.66699 -15.667 7.00098 -31 7.00098c-22.667 -1.33301 -35.667 -10 -39 -26c-3.33301 -17.333 5.33398 -26 26.001 -26
c24.667 0 39 10.667 43 32c1.33301 3.33301 1.66602 7.66602 0.999023 12.999zM194.998 -99.9971c3.33301 14.667 -3 22 -19 22s-25.667 -7.33301 -29 -22c-3.33301 -15.333 3 -23 19 -23s25.667 7.66699 29 23zM121.998 185.003
c1.33301 7.33301 -0.000976562 13.666 -4.00098 18.999s-9.66699 8 -17 8s-14.166 -2.66699 -20.499 -8s-10.166 -11.666 -11.499 -18.999c-2 -7.33301 -1 -13.5 3 -18.5s9.66699 -7.5 17 -7.5s14.166 2.5 20.499 7.5s10.5 11.167 12.5 18.5z" />
    <glyph glyph-name="uni0E11" unicode="&#xe11;" horiz-adv-x="461" 
d="M369 34c-8 -31.333 -23.9971 -54.999 -47.9971 -70.999l-28 18c22.667 17.333 37 39.333 43 66l58 273c6 30 -0.666992 45 -20 45c-7.33301 0 -17 -8.66699 -29 -26l-199 -339h-45l31 146c4 21.333 18.5 48.166 43.5 80.499s39.833 58.833 44.5 79.5
c7.33301 36 0.666016 56 -20.001 60l-44 -42l-27 41c-24.667 -14.667 -43 -34 -55 -58c10 4 21 6 33 6c19.333 0 33.333 -6.16699 42 -18.5s11 -27.833 7 -46.5c-4 -19.333 -13.5 -35 -28.5 -47s-31.5 -18 -49.5 -18c-22.667 0 -38 9.33301 -46 28
c-6.66699 16.667 -7.66699 37 -3 61c6 28.667 20.167 56 42.5 82s47.833 41.667 76.5 47l17 -35l35 35c47.333 -6 64.666 -38.667 51.999 -98c-4.66699 -20.667 -19 -48 -43 -82s-38.333 -61.667 -43 -83l-22 -85c13.333 28 26.666 53 39.999 75l128 216
c22 37.333 46.333 56 73 56c41.333 0 56.333 -26.667 45 -80zM124.003 249.001c2 9.33301 0.666016 17 -4.00098 23s-11.667 9 -21 9s-17.666 -3 -24.999 -9s-12 -13.667 -14 -23s-0.5 -17 4.5 -23s12.167 -9 21.5 -9s17.5 3 24.5 9s11.5 13.667 13.5 23z" />
    <glyph glyph-name="uni0E12" unicode="&#xe12;" horiz-adv-x="532" 
d="M433 0l-35.999 -0.00292969c-11.333 28.667 -33.333 52.334 -66 71.001c0 -4 -0.333008 -8.66699 -1 -14c-4 -17.333 -13.333 -32.5 -28 -45.5s-32 -19.5 -52 -19.5s-34.667 6.5 -44 19.5s-12 28.5 -8 46.5c3.33301 17.333 12.166 32.333 26.499 45
s30.166 19.667 47.499 21l29 136c10 48 1.66699 82 -25 102l-76 -58l-46 59c-18 -10 -33.833 -25 -47.5 -45s-22.834 -40 -27.501 -60c-4 -19.333 -3 -47.166 3 -83.499s7 -65.833 3 -88.5c7.33301 11.333 20 24.333 38 39c20.667 16 35 28.333 43 37
c-16 2 -27.667 8.5 -35 19.5s-9.66602 24.167 -6.99902 39.5c4 16.667 12.833 30.667 26.5 42s28.834 17 45.501 17s29.667 -5.83301 39 -17.5s11.666 -25.5 6.99902 -41.5c-7.33301 -30.667 -36.333 -67.5 -87 -110.5s-80 -79.833 -88 -110.5h-36l19 91
c4 20 2.83301 47.5 -3.5 82.5s-7.83301 61.833 -4.5 80.5c7.33301 32.667 21.333 62.334 42 89.001c24 29.333 51.667 48 83 56l42 -57l67 58c28 -5.33301 47 -21.333 57 -48s11.667 -56 5 -88l-31 -145c50.667 -18.667 84.334 -41 101.001 -67l67 315
c5.33301 25.333 15 45.333 29 60l28 -18c-9.33301 -8 -17.333 -26.333 -24 -55zM215.001 221.997c2 9.33301 0.501953 17 -4.49805 23s-12.167 9 -21.5 9s-17.333 -3 -24 -9s-11 -13.667 -13 -23s-0.833008 -16.833 3.5 -22.5s11.166 -8.5 20.499 -8.5
s17.666 2.83301 24.999 8.5s12 13.167 14 22.5zM297.003 56.9971c2 9.33301 0.332031 17.333 -5.00098 24s-12.666 10 -21.999 10s-17.833 -3.33301 -25.5 -10s-12.5 -14.667 -14.5 -24s-0.5 -17.166 4.5 -23.499s12.167 -9.5 21.5 -9.5s18 3.16699 26 9.5
s13 14.166 15 23.499z" />
    <glyph glyph-name="uni0E13" unicode="&#xe13;" horiz-adv-x="543" 
d="M126 57c2 9.33301 0.332031 17.333 -5.00098 24s-12.666 10 -21.999 10s-17.833 -3.33301 -25.5 -10s-12.5 -14.667 -14.5 -24s-0.5 -17.166 4.5 -23.499s12.167 -9.5 21.5 -9.5s18 3.16699 26 9.5s13 14.166 15 23.499zM442.999 56c2 9.33301 0.5 17.333 -4.5 24
s-12.167 10 -21.5 10s-18.166 -3.33301 -26.499 -10s-13.5 -14.667 -15.5 -24s-0.333008 -17.333 5 -24s12.666 -10 21.999 -10s18 3.33301 26 10s13 14.667 15 24zM475.999 56c-4 -18.667 -13.6699 -34.3311 -29.0029 -46.998s-32.666 -19 -51.999 -19
c-18.667 0 -33 6.33301 -43 19s-13 28.334 -9 47.001l2 6c-26 -9.33301 -51.667 -30 -77 -62h-43l56 265c14.667 68.667 -10.333 103 -75 103c-21.333 0 -42.5 -6.33301 -63.5 -19s-37.5 -29.334 -49.5 -50.001c36.667 -2.66699 60.334 -17.334 71.001 -44.001
c-16.667 -3.33301 -32.5 -12 -47.5 -26s-24.5 -29.667 -28.5 -47l-14 -65c10 4 20.667 6 32 6c18.667 0 33 -6.33301 43 -19s13 -28 9 -46c-4 -19.333 -13.5 -35.333 -28.5 -48s-32.167 -19 -51.5 -19s-33.833 6.5 -43.5 19.5s-12.5 29.167 -8.5 48.5l26 122
c7.33301 36 30.333 62.333 69 79c-23.333 10 -49 13.667 -77 11c14 37.333 36.833 68.166 68.5 92.499s65.834 36.5 102.501 36.5c41.333 0 71 -11.333 89 -34s22.667 -55 14 -97l-47 -221c19.333 20 44 36.333 74 49c36 16 57.667 26.333 65 31
c19.333 14.667 32.333 37 39 67l37 172c5.33301 25.333 15 45.333 29 60l28 -18c-9.33301 -8 -17.333 -26.333 -24 -55l-34 -157c-8 -40 -19.667 -66.333 -35 -79c24 -11.333 32.667 -32 26 -62z" />
    <glyph glyph-name="uni0E14" unicode="&#xe14;" horiz-adv-x="391" 
d="M226 245c1.33301 8.66699 -0.333984 16 -5.00098 22s-11.334 9 -20.001 9s-16.667 -3 -24 -9s-11.666 -13.333 -12.999 -22c-2 -8.66699 -0.666992 -16 4 -22s11.334 -9 20.001 -9s16.667 3 24 9s12 13.333 14 22zM299 34c-8 -31.333 -24.002 -55.001 -48.002 -71.001
l-28 18c22.667 17.333 37 39.333 43 66l45 213c15.333 72 -15.334 108 -92.001 108c-30.667 0 -60 -10.5 -88 -31.5s-45 -46.833 -51 -77.5c-4.66699 -19.333 -5.16699 -45.5 -1.5 -78.5s3.83398 -58.5 0.500977 -76.5c-3.33301 -13.333 -6 -22.333 -8 -27
c11.333 17.333 29 36.666 53 57.999l58 51c-16.667 0 -29.5 5.66699 -38.5 17s-11.5 25.333 -7.5 42c3.33301 16.667 11.833 30.667 25.5 42s28.834 17 45.501 17s29.5 -5.66699 38.5 -17s11.833 -25.333 8.5 -42c-7.33301 -32 -39.666 -72.667 -96.999 -122
s-90.333 -90.333 -99 -123h-36l19 90c4 19.333 4.33301 46.833 1 82.5s-3.33301 62.834 0 81.501c10 45.333 32.833 81 68.5 107s75.834 39 120.501 39c46 0 79.167 -12.167 99.5 -36.5s26.166 -57.166 17.499 -98.499z" />
    <glyph glyph-name="uni0E15" unicode="&#xe15;" horiz-adv-x="391" 
d="M299 34c-8 -31.333 -23.9961 -55 -47.9961 -71l-28 18c22.667 17.333 37 39.333 43 66l45 213c10 49.333 1.33301 83.666 -26 102.999l-77 -59l-55 59c-38 -21.333 -62 -56 -72 -104c-4.66699 -20.667 -5.5 -49.167 -2.5 -85.5s1.5 -67.833 -4.5 -94.5
c10 13.333 26.833 28.333 50.5 45s39.834 30 48.501 40c-14.667 1.33301 -26 7.33301 -34 18s-10.333 24 -7 40c3.33301 16.667 11.666 30.667 24.999 42s28.333 17 45 17s29.5 -5.66699 38.5 -17s11.833 -25.333 8.5 -42
c-6.66699 -30.667 -37.834 -67.334 -93.501 -110.001s-87.834 -80 -96.501 -112h-36l19 90c4 19.333 4.16699 46.833 0.5 82.5s-3.83398 62.834 -0.500977 81.501c7.33301 32.667 21 62.334 41 89.001c24 30 52 49 84 57l50 -55l69 55c28 -5.33301 47.333 -22.333 58 -51
c9.33301 -24.667 10.666 -52.667 3.99902 -84zM223.004 223c2 8.66699 0.499023 16 -4.50098 22s-11.833 9 -20.5 9s-16.5 -3 -23.5 -9s-11.5 -13.333 -13.5 -22s-0.666992 -16 4 -22s11.334 -9 20.001 -9s16.667 3 24 9s12 13.333 14 22z" />
    <glyph glyph-name="uni0E16" unicode="&#xe16;" horiz-adv-x="378" 
d="M123 57c2 9.33301 0.332031 17.333 -5.00098 24s-12.666 10 -21.999 10s-17.833 -3.33301 -25.5 -10s-12.5 -14.667 -14.5 -24s-0.5 -17.166 4.5 -23.499s12.167 -9.5 21.5 -9.5s18 3.16699 26 9.5s13 14.166 15 23.499zM285.999 34
c-8 -31.333 -23.998 -55.0029 -47.998 -71.0029l-28 18c22.667 17.333 37 39.333 43 66l45 214c7.33301 34 3 60.333 -13 79s-40.333 28 -73 28c-22.667 0 -45.834 -6.5 -69.501 -19.5s-41.5 -29.5 -53.5 -49.5c40 -3.33301 63.333 -17.666 70 -42.999
c-16 -3.33301 -31.5 -12.166 -46.5 -26.499s-24.5 -29.833 -28.5 -46.5l-13 -65c11.333 4.66699 21.666 7 30.999 7c18.667 0 33.167 -6.5 43.5 -19.5s13.5 -28.833 9.5 -47.5c-4.66699 -20 -14.5 -36 -29.5 -48s-32.167 -18 -51.5 -18c-18.667 0 -33 6.33301 -43 19
s-13 28.334 -9 47.001l26 124c8 36 30.667 62.333 68 79c-16.667 7.33301 -42 11 -76 11c13.333 36.667 37.333 67.167 72 91.5s71 36.5 109 36.5c42.667 0 74.5 -12 95.5 -36s27.167 -57 18.5 -99z" />
    <glyph glyph-name="uni0E17" unicode="&#xe17;" horiz-adv-x="430" 
d="M338 34c-8 -31.333 -24 -55 -48 -71l-28 18c22.667 17.333 37 39 43 65l58 274c6 30 -0.666992 45 -20 45c-12 0 -24 -8.66699 -36 -26l-199 -339h-38l58 275c-10 -4.66699 -20.667 -7 -32 -7c-18 0 -32 6.5 -42 19.5s-13.333 28.5 -10 46.5c4 18 14 33.5 30 46.5
s33 19.5 51 19.5s32 -6.5 42 -19.5s13 -28.5 9 -46.5l-41 -196c-8 -30.667 -14.333 -52.667 -19 -66c6.66699 13.333 16.667 32 30 56l127 216c22 37.333 49 56 81 56c41.333 0 56.333 -26.667 45 -80zM144 334c2 9.33301 0.500977 17.333 -4.49902 24s-12.167 10 -21.5 10
s-18.166 -3.33301 -26.499 -10s-13.5 -14.667 -15.5 -24c-1.33301 -9.33301 0.5 -17.333 5.5 -24s12.167 -10 21.5 -10s18.166 3.33301 26.499 10s13.166 14.667 14.499 24z" />
    <glyph glyph-name="uni0E18" unicode="&#xe18;" horiz-adv-x="335" 
d="M250 76c-12 -55.333 -54.666 -83 -127.999 -83s-104 27.667 -92 83l23 108c5.33301 25.333 15 45.333 29 60l28 -18c-9.33301 -8 -17.333 -26.333 -24 -55l-21 -97c-6.66699 -32.667 14.666 -49 63.999 -49s77.333 16.333 84 49l32 148c3.33301 16 -25.667 32 -87 48
c-37.333 10 -77 18 -119 24c8.66699 30 25 55.167 49 75.5s53 30.5 87 30.5c15.333 0 34.5 -3.66699 57.5 -11s40.5 -11 52.5 -11c12.667 0 26.334 16.333 41.001 49l26 -8c-16 -49.333 -40.333 -74 -73 -74c-14 0 -33 3.83301 -57 11.5s-42.667 11.5 -56 11.5
c-14 0 -28.833 -4.66699 -44.5 -14s-25.834 -20.333 -30.501 -33c68.667 -14.667 110.667 -24.667 126 -30c48.667 -17.333 70 -39.333 64 -66z" />
    </font>
</defs>
</svg>
